<svg xmlns="http://www.w3.org/2000/svg" width="232" height="443" viewBox="0 0 232 443"><style>@media (prefers-color-scheme:dark){path{fill:#f6f6f6}}</style><path d="M5.763 152.715q-.413.22-.848.33-.436.11-.924.11-1.542 0-2.393-1.09T.747 149q0-1.966.856-3.065.857-1.098 2.388-1.098.488 0 .924.11.435.11.848.33v1.112q-.397-.327-.854-.5-.456-.171-.918-.171-1.058 0-1.585.816-.526.817-.526 2.466 0 1.643.526 2.46.527.816 1.585.816.472 0 .926-.172t.846-.5ZM2.45 169.32V155.3h1.718v14.02Z"/><path d="M2.45 182.32V168.3h1.718v14.02Z"/><path d="M2.45 195.32V181.3h1.718v14.02Z"/><path d="M2.45 208.32V194.3h1.718v14.02Z"/><path d="M2.45 221.32V207.3h1.718v14.02Z"/><path d="M2.45 234.32V220.3h1.718v14.02Z"/><path d="M2.45 247.32V233.3h1.718v14.02Z"/><path d="M2.45 260.32V246.3h1.718v14.02Z"/><path d="M2.45 273.32V259.3h1.718v14.02Z"/><path d="M2.45 286.32V272.3h1.718v14.02Z"/><path d="M2.45 299.32V285.3h1.718v14.02Z"/><path d="M2.45 312.32V298.3h1.718v14.02Z"/><path d="M2.45 319.798V311.3h1.718v6.65H6.73v1.847Zm77.429 18.522v-6.908h3.851v.924h-2.992v5.983Z"/><path d="M79.879 351.32V337.3h.86v14.02Z"/><path d="M79.879 364.32V350.3h.86v14.02Z"/><path d="M79.879 377.32V363.3h.86v14.02Z"/><path d="M79.879 390.32V376.3h.86v14.02Z"/><path d="M79.879 403.32V389.3h.86v14.02Z"/><path d="M79.879 416.32V402.3h.86v14.02Zm-2.847 6.823 6.558-3.277v6.553Zm2.847 13.193V428.3h.86v7.111h2.991v.924Zm4.014 0v-.924h6.837v.924Zm7 0v-.924h6.837v.924Zm7 0v-.924h6.837v.924Zm7 0v-.924h6.837v.924Zm7 0v-.924h6.837v.924Zm7 0v-.924h6.837v.924Zm7 0v-.924h6.837v.924Zm7 0v-.924h6.837v.924Zm7 0v-.924h6.837v.924Zm7 0v-.924h6.837v.924Zm7 0v-.924h6.837v.924Zm7 0v-.924h6.837v.924Zm7 0v-.924h6.837v.924Zm7 0v-.924h6.837v.924Zm7 0v-.924h6.837v.924Zm7 0v-.924h2.986v-7.111h.86v8.035Zm-105-13v-.924h6.837v.924Zm7 0v-.924h6.837v.924Zm7 0v-.924h6.837v.924Zm7 0v-.924h6.837v.924Zm7 0v-.924h6.837v.924Zm7 0v-.924h6.837v.924Zm11.055-4.366-2.53 4.237h2.53Zm-.177-.989h1.256v5.226h1.07v.88h-1.07V426h-1.08v-1.912h-3.4v-1.026Zm7.177.989-2.53 4.237h2.53Zm-.177-.989h1.256v5.226h1.07v.88h-1.07V426h-1.08v-1.912h-3.4v-1.026Zm6.538 4.211q-.726 0-1.12.405-.395.406-.395 1.147t.4 1.152 1.115.411q.73 0 1.125-.405.395-.406.395-1.158 0-.736-.4-1.144t-1.12-.408m-.946-.451q-.693-.178-1.082-.66-.39-.484-.39-1.166 0-.957.65-1.518t1.768-.561q1.122 0 1.772.561t.65 1.518q0 .682-.39 1.165-.389.483-1.082.66.806.178 1.233.715t.427 1.391q0 1.085-.693 1.697t-1.917.613-1.915-.61-.69-1.69q0-.858.427-1.398t1.232-.717m-.392-1.724q0 .644.344.983t.994.338q.655 0 .999-.338.343-.339.343-.983 0-.656-.34-1-.342-.343-1.002-.343-.65 0-.994.346-.344.347-.344.997m4.922 3.319v-.924h6.837v.924Zm7 0v-.924h6.837v.924Zm7 0v-.924h6.837v.924Zm7 0v-.924h6.837v.924Zm7 0v-.924h6.837v.924Zm7 0v-.924h6.837v.924Zm7.139 3.083v-6.553l6.558 3.277ZM84.79 383.922v-4.941h1.09v5.436q0 .585.032.835t.113.384q.172.317.497.478t.787.16q.467 0 .79-.16.321-.161.499-.478.08-.135.112-.382.033-.247.033-.827v-5.446h1.085v4.941q0 1.23-.153 1.749-.154.518-.53.856-.354.317-.81.473t-1.026.156q-.564 0-1.02-.156t-.817-.473q-.37-.333-.527-.862-.155-.529-.155-1.743m107.089 19.398V389.3h.86v14.02Z"/><path d="M191.879 416.32V402.3h.86v14.02Zm-98.865-30.077v3.045h-.993v-8.304h.993v.768q.247-.445.658-.679t.948-.234q1.09 0 1.71.844.621.843.621 2.336 0 1.466-.623 2.302-.623.835-1.708.835-.548 0-.959-.234t-.647-.68m2.9-2.245q0-1.15-.362-1.735-.363-.586-1.077-.586-.72 0-1.09.588-.37.589-.37 1.733 0 1.138.37 1.73.37.59 1.09.59.714 0 1.077-.586.363-.585.363-1.734m6.693-2.245v-3.11h.989V387h-.989v-.757q-.247.445-.658.68-.41.233-.948.233-1.09 0-1.716-.846t-.625-2.334q0-1.466.628-2.301t1.713-.836q.543 0 .956.234.414.234.65.68m-2.905 2.246q0 1.149.365 1.734.365.586 1.08.586.714 0 1.087-.59.373-.592.373-1.73 0-1.144-.373-1.733-.373-.588-1.088-.588-.714 0-1.08.586-.364.585-.364 1.735m9.067-.023h-.327q-.865 0-1.303.304-.437.303-.437.905 0 .542.327.843.328.3.908.3.816 0 1.284-.566.467-.567.472-1.566v-.22Zm1.918-.408V387h-.994v-.892q-.317.538-.797.793t-1.168.255q-.919 0-1.467-.519-.548-.518-.548-1.388 0-1.004.674-1.525t1.98-.521h1.326v-.156q-.005-.72-.365-1.045t-1.15-.325q-.504 0-1.02.145-.515.145-1.004.425v-.989q.548-.21 1.05-.314t.975-.105q.746 0 1.275.22.53.22.857.661.204.269.29.664.086.394.086 1.184m4.61-4.292v1.708h2.245v.768h-2.245v3.266q0 .666.252.93.253.262.881.262h1.112v.79h-1.209q-1.111 0-1.568-.446-.456-.446-.456-1.536v-3.266h-1.606v-.768h1.606v-1.708Zm9.718 4.222v.483h-4.281v.033q-.043 1.23.47 1.767t1.447.537q.473 0 .989-.15.515-.15 1.1-.457v.983q-.563.23-1.087.346t-1.012.116q-1.402 0-2.192-.84-.79-.841-.79-2.318 0-1.44.774-2.3t2.063-.859q1.149 0 1.812.78.664.778.707 1.879m-.989-.29q-.064-.623-.454-1.077-.389-.454-1.12-.454-.714 0-1.176.473t-.505 1.063Zm6.581-1.456v-3.11h.989V387h-.989v-.757q-.247.445-.658.68-.41.233-.948.233-1.09 0-1.716-.846t-.625-2.334q0-1.466.628-2.301t1.713-.836q.543 0 .956.234.414.234.65.68m-2.905 2.246q0 1.149.365 1.734.365.586 1.08.586.714 0 1.087-.59.373-.592.373-1.73 0-1.144-.373-1.733-.373-.588-1.088-.588-.714 0-1.08.586-.364.585-.364 1.735m13.033-5.018h1.09v3.566l3.39-3.566h1.272l-3.12 3.276L146.58 387h-1.311l-2.616-4.018-.827.881V387h-1.09Zm19.027 7.734q-.413.22-.848.33-.436.11-.924.11-1.542 0-2.393-1.09t-.851-3.066q0-1.966.856-3.065.857-1.098 2.388-1.098.488 0 .924.11.435.11.848.33v1.112q-.397-.327-.854-.5-.456-.171-.918-.171-1.058 0-1.585.816-.526.817-.526 2.466 0 1.643.526 2.46.527.816 1.585.816.472 0 .926-.172t.846-.5Zm5.007-2.739h-.327q-.865 0-1.303.304-.437.303-.437.905 0 .542.327.843.328.3.908.3.816 0 1.284-.566.467-.567.472-1.566v-.22Zm1.918-.408V387h-.994v-.892q-.317.538-.797.793t-1.168.255q-.919 0-1.467-.519-.548-.518-.548-1.388 0-1.004.674-1.525t1.98-.521h1.326v-.156q-.005-.72-.365-1.045t-1.15-.325q-.504 0-1.02.145-.515.145-1.004.425v-.989q.548-.21 1.05-.314t.975-.105q.746 0 1.275.22.53.22.857.661.204.269.29.664.086.394.086 1.184m7.011 3.126q-.398.23-.82.346t-.861.116q-1.397 0-2.184-.838t-.787-2.32.787-2.32 2.184-.839q.435 0 .848.113.414.113.833.35v1.036q-.392-.35-.787-.505t-.894-.156q-.93 0-1.43.602-.499.601-.499 1.719 0 1.111.503 1.716.502.604 1.426.604.515 0 .923-.159.409-.158.758-.491Zm6.946-3.422V387h-.994v-3.728q0-.81-.284-1.192-.285-.381-.892-.381-.693 0-1.066.491-.373.492-.373 1.41v3.4h-.989v-8.357h.989v3.244q.263-.516.714-.782t1.069-.266q.918 0 1.372.605.454.604.454 1.828m7.371.226v.483h-4.281v.033q-.043 1.23.47 1.767t1.447.537q.473 0 .989-.15.515-.15 1.1-.457v.983q-.563.23-1.087.346t-1.012.116q-1.402 0-2.192-.84-.79-.841-.79-2.318 0-1.44.774-2.3t2.063-.859q1.149 0 1.812.78.664.778.707 1.879m-.989-.29q-.064-.623-.454-1.077-.389-.454-1.12-.454-.714 0-1.176.473t-.505 1.063Zm4.852 7.112V376.3h.86v14.02Zm0-39V337.3h.86v14.02Z"/><path d="M191.879 364.32V350.3h.86v14.02Z"/><path d="M191.879 377.32V363.3h.86v14.02ZM83.893 332.336v-.924h6.837v.924Zm7 0v-.924h6.837v.924Zm7 0v-.924h6.837v.924Zm7 0v-.924h6.837v.924Zm7 0v-.924h6.837v.924Zm7 0v-.924h6.837v.924Zm7 0v-.924h6.837v.924Zm10.416 3.083-3.277-6.553h6.558Zm3.584-3.083v-.924h6.837v.924Zm7 0v-.924h6.837v.924Zm7 0v-.924h6.837v.924Zm7 0v-.924h6.837v.924Zm7 0v-.924h6.837v.924Zm7 0v-.924h6.837v.924Zm7 0v-.924h6.837v.924Zm9.986 5.984v-5.984h-2.986v-.924h3.845v6.907ZM6.893 319.798v-1.848h6.837v1.848Zm7 0v-1.848h6.837v1.848Zm7 0v-1.848h6.837v1.848Zm7 0v-1.848h6.837v1.848Zm7 0v-1.848h6.837v1.848Zm7 0v-1.848h6.837v1.848Zm7 0v-1.848h6.837v1.848Zm7 0v-1.848h6.837v1.848Zm7 0v-1.848h6.837v1.848Zm7 0v-1.848h6.837v1.848Zm7 0v-1.848h6.837v1.848Zm7 0v-1.848h6.837v1.848Zm7 0v-1.848h6.837v1.848Zm7 0v-1.848h6.837v1.848Zm7 0v-1.848h6.837v1.848Zm7 0v-1.848h6.837v1.848Zm7 0v-1.848h6.837v1.848Zm7 0v-1.848h6.837v1.848Zm9.557 5.522v-5.522h-2.557v-1.848h2.556v-6.65h1.719v6.65h2.562v1.848h-2.562v5.521Zm4.443-5.522v-1.848h6.837v1.848Zm7 0v-1.848h6.837v1.848Zm7 0v-1.848h6.837v1.848Zm7 0v-1.848h6.837v1.848Zm7 0v-1.848h6.837v1.848Zm7 0v-1.848h6.837v1.848Zm7 0v-1.848h6.837v1.848Zm7 0v-1.848h6.837v1.848Zm7 0v-1.848h6.837v1.848Zm7 0v-1.848h6.837v1.848Zm7 0v-1.848h6.837v1.848Zm7 0v-1.848h6.837v1.848Zm7 0v-1.848h2.556v-6.65h1.719v8.498ZM37.879 182.32v-6.908h3.851v.924h-2.992v5.983Z"/><path d="M37.879 195.32V181.3h.86v14.02Z"/><path d="M37.879 208.32V194.3h.86v14.02Z"/><path d="M37.879 221.32V207.3h.86v14.02Z"/><path d="M37.879 234.32V220.3h.86v14.02Z"/><path d="M37.879 247.32V233.3h.86v14.02Z"/><path d="M37.879 260.32V246.3h.86v14.02Z"/><path d="M37.879 273.32V259.3h.86v14.02Z"/><path d="M37.879 280.336V272.3h.86v7.111h2.991v.924Zm42 26V298.3h.86v7.111h2.991v.924Zm4.014 0v-.924h6.837v.924Zm7 0v-.924h6.837v.924Zm7 0v-.924h6.837v.924Zm7 0v-.924h6.837v.924Zm7 0v-.924h6.837v.924Zm7 0v-.924h6.837v.924Zm7 0v-.924h6.837v.924Zm9.986 5.984v-5.984h-2.986v-.924h6.837v.924h-2.992v5.983Zm4.014-5.984v-.924h6.837v.924Zm7 0v-.924h6.837v.924Zm7 0v-.924h6.837v.924Zm7 0v-.924h6.837v.924Zm7 0v-.924h6.837v.924Zm7 0v-.924h6.837v.924Zm7 0v-.924h6.837v.924Zm7 0v-.924h2.986v-7.111h.86v8.035Zm37.557 5.984V298.3h1.718v14.02Z"/><path d="M226.45 299.32V285.3h1.718v14.02ZM41.893 280.336v-.924h6.837v.924Zm7 0v-.924h6.837v.924Zm7 0v-.924h6.837v.924Zm7 0v-.924h6.837v.924Zm7 0v-.924h6.837v.924Zm7 0v-.924h6.837v.924Zm7 0v-.924h6.837v.924Zm7 0v-.924h6.837v.924Zm7 0v-.924h6.837v.924Zm7 0v-.924h6.837v.924Zm7 0v-.924h6.837v.924Zm7 0v-.924h6.837v.924Zm7 0v-.924h6.837v.924Zm7 0v-.924h6.837v.924Zm7 0v-.924h6.837v.924Zm7 0v-.924h2.986v-7.111h.86v7.111h2.991v.924Zm7 0v-.924h6.837v.924Zm7 0v-.924h6.837v.924Zm7 0v-.924h6.837v.924Zm7 0v-.924h6.837v.924Zm7 0v-.924h6.837v.924Zm7 0v-.924h2.986v-7.111h.86v8.035Z"/><path d="M226.45 286.32V272.3h1.718v14.02Zm-76.571-91V181.3h.86v14.02Z"/><path d="M149.879 208.32V194.3h.86v14.02Z"/><path d="M149.879 221.32V207.3h.86v14.02Z"/><path d="M149.879 234.32V220.3h.86v14.02Z"/><path d="M149.879 247.32V233.3h.86v14.02Z"/><path d="M149.879 260.32V246.3h.86v14.02Z"/><path d="M149.879 273.32V259.3h.86v14.02Zm42-78V181.3h.86v14.02Z"/><path d="M191.879 208.32V194.3h.86v14.02Z"/><path d="M191.879 221.32V207.3h.86v14.02Z"/><path d="M191.879 234.32V220.3h.86v14.02Z"/><path d="M191.879 247.32V233.3h.86v14.02Z"/><path d="M191.879 260.32V246.3h.86v14.02Z"/><path d="M191.879 273.32V259.3h.86v14.02Zm34.571-78V181.3h1.718v14.02Z"/><path d="M226.45 208.32V194.3h1.718v14.02Z"/><path d="M226.45 221.32V207.3h1.718v14.02Z"/><path d="M226.45 234.32V220.3h1.718v14.02Z"/><path d="M226.45 247.32V233.3h1.718v14.02Z"/><path d="M226.45 260.32V246.3h1.718v14.02Z"/><path d="M226.45 273.32V259.3h1.718v14.02ZM41.893 176.336v-.924h6.837v.924Zm7 0v-.924h6.837v.924Zm7 0v-.924h6.837v.924Zm7 0v-.924h6.837v.924Zm7 0v-.924h6.837v.924Zm7 0v-.924h6.837v.924Zm10.416 3.083-3.277-6.553h6.558Zm3.584-3.083v-.924h6.837v.924Zm7 0v-.924h6.837v.924Zm7 0v-.924h6.837v.924Zm7 0v-.924h6.837v.924Zm7 0v-.924h6.837v.924Zm7 0v-.924h6.837v.924Zm7 0v-.924h6.837v.924Zm7 0v-.924h6.837v.924Zm9.986 5.984v-5.984h-2.986v-.924h6.837v.924h-2.992v5.983Zm4.014-5.984v-.924h6.837v.924Zm7 0v-.924h6.837v.924Zm7 0v-.924h6.837v.924Zm10.416 3.083-3.277-6.553h6.558Zm3.584-3.083v-.924h6.837v.924Zm9.986 5.984v-5.984h-2.986v-.924h3.845v6.907Zm34.571 0V168.3h1.718v14.02Zm-139.571-13V155.3h.86v14.02Zm91 0V155.3h.86v14.02Z"/><path d="M226.45 169.32V155.3h1.718v14.02ZM10.77 149.976h-.327q-.865 0-1.303.304-.437.303-.437.905 0 .542.327.843.328.3.908.3.816 0 1.284-.566.467-.567.472-1.566v-.22Zm1.918-.408V153h-.994v-.892q-.317.538-.797.793t-1.168.255q-.919 0-1.467-.519-.548-.518-.548-1.388 0-1.004.674-1.525.675-.521 1.98-.521h1.326v-.156q-.005-.72-.365-1.045t-1.15-.325q-.504 0-1.02.145-.515.145-1.004.425v-.989q.548-.21 1.05-.314t.975-.105q.746 0 1.275.22.53.22.857.661.204.269.29.664.086.394.086 1.184m7.011 3.126q-.398.23-.82.346t-.861.116q-1.397 0-2.184-.838t-.787-2.32.787-2.32q.787-.839 2.184-.839.435 0 .848.113.414.113.833.35v1.036q-.392-.35-.787-.505t-.894-.156q-.93 0-1.43.602-.499.601-.499 1.719 0 1.111.503 1.716.502.604 1.426.604.515 0 .923-.159.409-.158.758-.491Zm6.946-3.422V153h-.994v-3.728q0-.81-.284-1.192-.285-.381-.892-.381-.693 0-1.066.491-.373.492-.373 1.41v3.4h-.989v-8.357h.989v3.244q.263-.516.714-.782t1.069-.266q.918 0 1.372.605.454.604.454 1.828m7.371.226v.483h-4.281v.033q-.043 1.23.47 1.767t1.447.537q.473 0 .989-.15.515-.15 1.1-.457v.983q-.563.23-1.087.346t-1.012.116q-1.402 0-2.192-.84-.79-.841-.79-2.318 0-1.44.774-2.3t2.063-.859q1.149 0 1.812.78.664.778.707 1.879m-.989-.29q-.064-.623-.454-1.077-.389-.454-1.12-.454-.714 0-1.176.473t-.505 1.063Zm9.763.714v-4.941h1.09v5.436q0 .585.032.835t.113.384q.172.317.497.478t.787.16q.467 0 .79-.16.321-.161.499-.478.08-.135.112-.382.033-.247.033-.827v-5.446h1.085v4.941q0 1.23-.153 1.749-.154.518-.53.856-.354.317-.81.473t-1.026.156q-.564 0-1.02-.156t-.817-.473q-.37-.333-.527-.862-.155-.529-.155-1.743m8.224 2.321v3.045h-.993v-8.304h.993v.768q.247-.445.658-.679t.948-.234q1.09 0 1.71.844.621.843.621 2.336 0 1.466-.623 2.302-.623.835-1.708.835-.548 0-.959-.234t-.647-.68m2.9-2.245q0-1.15-.362-1.735-.363-.586-1.077-.586-.72 0-1.09.588-.37.589-.37 1.733 0 1.138.37 1.73.37.59 1.09.59.714 0 1.077-.586.363-.585.363-1.734m6.693-2.245v-3.11h.989V153h-.989v-.757q-.247.445-.658.68-.41.233-.948.233-1.09 0-1.716-.846t-.625-2.334q0-1.466.628-2.301t1.713-.836q.543 0 .956.234.414.234.65.68m-2.905 2.246q0 1.149.365 1.734.365.586 1.08.586.714 0 1.087-.59.373-.592.373-1.73 0-1.144-.373-1.733-.373-.588-1.088-.588-.714 0-1.08.586-.364.585-.364 1.735m9.067-.023h-.327q-.865 0-1.303.304-.437.303-.437.905 0 .542.327.843.328.3.908.3.816 0 1.284-.566.467-.567.472-1.566v-.22Zm1.918-.408V153h-.994v-.892q-.317.538-.797.793t-1.168.255q-.919 0-1.467-.519-.548-.518-.548-1.388 0-1.004.674-1.525t1.98-.521h1.326v-.156q-.005-.72-.365-1.045t-1.15-.325q-.504 0-1.02.145-.515.145-1.004.425v-.989q.548-.21 1.05-.314t.975-.105q.746 0 1.275.22.53.22.857.661.204.269.29.664.086.394.086 1.184m4.61-4.292v1.708h2.245v.768h-2.245v3.266q0 .666.252.93.253.262.881.262h1.112v.79h-1.209q-1.111 0-1.568-.446-.456-.446-.456-1.536v-3.266h-1.606v-.768h1.606v-1.708Zm9.718 4.222v.483h-4.281v.033q-.043 1.23.47 1.767t1.447.537q.473 0 .989-.15.515-.15 1.1-.457v.983q-.563.23-1.087.346t-1.012.116q-1.402 0-2.192-.84-.79-.841-.79-2.318 0-1.44.774-2.3t2.063-.859q1.149 0 1.812.78.664.778.707 1.879m-.989-.29q-.064-.623-.454-1.077-.389-.454-1.12-.454-.714 0-1.176.473t-.505 1.063Zm4.852 7.112V142.3h.86v14.02Zm4.314-11.312h1.45l1.386 4.071 1.397-4.071h1.455V153h-1.004v-7.063l-1.429 4.21h-.822l-1.434-4.21V153h-.999Zm10.116 2.669q-.752 0-1.14.586-.386.585-.386 1.735 0 1.144.387 1.732t1.139.588q.757 0 1.144-.588t.386-1.732q0-1.15-.386-1.735-.387-.586-1.144-.586m0-.838q1.251 0 1.914.811.664.811.664 2.348 0 1.541-.66 2.35-.662.808-1.918.808-1.252 0-1.913-.809-.66-.808-.66-2.35 0-1.536.66-2.347.661-.81 1.913-.81m8.299.912v-3.11h.989V153h-.989v-.757q-.247.445-.658.68-.41.233-.948.233-1.09 0-1.716-.846t-.625-2.334q0-1.466.628-2.301t1.713-.836q.543 0 .956.234.414.234.65.68m-2.905 2.246q0 1.149.365 1.734.365.586 1.08.586.714 0 1.087-.59.373-.592.373-1.73 0-1.144-.373-1.733-.373-.588-1.088-.588-.714 0-1.08.586-.364.585-.364 1.735m11.313-.501v.483h-4.281v.033q-.043 1.23.47 1.767t1.447.537q.473 0 .989-.15.515-.15 1.1-.457v.983q-.563.23-1.087.346t-1.012.116q-1.402 0-2.192-.84-.79-.841-.79-2.318 0-1.44.774-2.3t2.063-.859q1.149 0 1.812.78.664.778.707 1.879m-.989-.29q-.064-.623-.454-1.077-.389-.454-1.12-.454-.714 0-1.176.473t-.505 1.063Zm5.835 1.617q0 .666.244 1.004.245.338.723.338h1.154V153h-1.251q-.886 0-1.372-.567-.486-.566-.486-1.608v-5.441h-1.585v-.774h2.573Zm3.031-.027v-1.848h6.837v1.848Zm7 0v-1.848h6.837v1.848Zm7 0v-1.848h6.837v1.848Zm7 0v-1.848h6.837v1.848Zm7 0v-1.848h6.837v1.848Zm7 0v-1.848h6.837v1.848Zm7 0v-1.848h6.837v1.848Zm9.557 5.522v-5.522h-2.557v-1.848h2.556v-6.65h1.719v6.65h2.562v1.848h-2.562v5.521Zm4.443-5.522v-1.848h6.837v1.848Zm7 0v-1.848h6.837v1.848Zm7 0v-1.848h6.837v1.848Zm7 0v-1.848h6.837v1.848Zm7 0v-1.848h6.837v1.848Zm7 0v-1.848h6.837v1.848Z"/><path d="M226.45 156.32v-5.522h-2.557v-1.848h4.275v7.37Zm-195.571-143V6.411h3.851v.924h-2.992v5.983Z"/><path d="M30.879 26.32V12.3h.86v14.02Z"/><path d="M30.879 39.32V25.3h.86v14.02Z"/><path d="M30.879 52.32V38.3h.86v14.02Z"/><path d="M30.879 65.32V51.3h.86v14.02Z"/><path d="M30.879 78.32V64.3h.86v14.02Z"/><path d="M30.879 91.32V77.3h.86v14.02Zm-2.847 6.823 6.558-3.277v6.553Zm2.847 13.193V103.3h.86v7.111h2.991v.924Zm56 18.984V116.3h.86v14.02Z"/><path d="M86.879 143.32V129.3h.86v14.02Zm91-13V116.3h.86v14.02Z"/><path d="M177.879 143.32V129.3h.86v14.02ZM34.893 111.336v-.924h6.837v.924Zm7 0v-.924h6.837v.924Zm7 0v-.924h6.837v.924Zm7 0v-.924h6.837v.924Zm7 0v-.924h6.837v.924Zm7 0v-.924h6.837v.924Zm7 0v-.924h6.837v.924Zm7 0v-.924h6.837v.924Zm7 0v-.924h6.837v.924Zm7 0v-.924h6.837v.924Zm7 0v-.924h6.837v.924Zm7 0v-.924h6.837v.924Zm7 0v-.924h6.837v.924Zm7 0v-.924h6.837v.924Zm7 0v-.924h6.837v.924Zm7 0v-.924h2.986v-7.111h.86v8.035Zm16.986 0V103.3h.86v7.111h2.991v.924Zm4.014 0v-.924h6.837v.924Zm7 0v-.924h6.837v.924Zm7 0v-.924h6.837v.924Zm7 0v-.924h6.837v.924Zm7 0v-.924h6.837v.924Zm7 0v-.924h2.986v-7.111h.86v8.035Zm-161-13v-.924h6.837v.924Zm7 0v-.924h6.837v.924Zm7 0v-.924h6.837v.924Zm7 0v-.924h6.837v.924Zm7 0v-.924h6.837v.924Zm7 0v-.924h6.837v.924Zm11.055-4.366-2.53 4.237h2.53Zm-.177-.989h1.256v5.226h1.07v.88h-1.07V101h-1.08v-1.912h-3.4v-1.026Zm7.177.989-2.53 4.237h2.53Zm-.177-.989h1.256v5.226h1.07v.88h-1.07V101h-1.08v-1.912h-3.4v-1.026Zm6.538 4.211q-.726 0-1.12.405-.395.406-.395 1.147t.4 1.152 1.115.411q.73 0 1.125-.405.395-.406.395-1.158 0-.736-.4-1.144t-1.12-.408m-.946-.451q-.693-.178-1.082-.66-.39-.484-.39-1.166 0-.957.65-1.518t1.768-.561q1.122 0 1.772.561t.65 1.518q0 .682-.39 1.165-.389.483-1.082.66.806.178 1.233.715t.427 1.391q0 1.085-.693 1.697t-1.917.613-1.915-.61-.69-1.69q0-.858.427-1.398t1.232-.717m-.392-1.724q0 .644.344.983t.994.338q.655 0 .999-.338.343-.339.343-.983 0-.656-.34-1-.342-.343-1.002-.343-.65 0-.994.346-.344.347-.344.997m4.922 3.319v-.924h6.837v.924Zm7 0v-.924h6.837v.924Zm7 0v-.924h6.837v.924Zm7 0v-.924h6.837v.924Zm7 0v-.924h6.837v.924Zm7 0v-.924h6.837v.924Zm7.139 3.083v-6.553l6.558 3.277Zm14-3.276 6.558-3.277v6.553Zm6.861.193v-.924h6.837v.924Zm12.43-5.178v1q-.339-.2-.72-.304-.381-.105-.795-.105-1.031 0-1.563.776t-.532 2.286q.258-.538.715-.825t1.047-.287q1.16 0 1.797.711.636.712.636 2.017 0 1.3-.655 2.014-.655.715-1.842.715-1.397 0-2.047-1.002t-.65-3.155q0-2.03.782-3.097.781-1.066 2.264-1.066.397 0 .795.083.397.083.768.24m-1.934 3.39q-.693 0-1.09.499-.398.5-.398 1.38 0 .881.398 1.38.397.5 1.09.5.72 0 1.085-.475.365-.476.365-1.405 0-.934-.365-1.407t-1.085-.473m7.559-2.578-2.53 4.237h2.53Zm-.177-.989h1.256v5.226h1.07v.88h-1.07V101h-1.08v-1.912h-3.4v-1.026Zm3.122 5.355v-.924h6.837v.924Zm7 0v-.924h6.837v.924Zm7.139 3.083v-6.553l6.558 3.277ZM44.143 54.873v3.013H45.4q.752 0 1.173-.398.422-.397.422-1.112 0-.714-.419-1.109-.419-.394-1.176-.394Zm-1.085-.892H45.4q1.343 0 2.036.61.692.61.692 1.785 0 1.187-.69 1.794t-2.038.607h-1.257V62h-1.085Zm99.821 24.339V64.3h.86v14.02Z"/><path d="M142.879 91.32V77.3h.86v14.02Zm14-13V64.3h.86v14.02Z"/><path d="M156.879 91.32V77.3h.86v14.02Zm42-13V64.3h.86v14.02Z"/><path d="M198.879 91.32V77.3h.86v14.02ZM55.204 57.225q-.317-.247-.645-.36t-.72-.113q-.923 0-1.412.58t-.489 1.676V62h-.994v-6.016h.994v1.177q.247-.64.76-.98.513-.342 1.217-.342.365 0 .682.092.317.091.607.284Zm2.493-1.219h2.53v5.226h1.96V62h-4.909v-.768h1.96v-4.458h-1.54Zm1.542-2.337h.988v1.247h-.988Zm7.07 3.008q-.752 0-1.14.586-.386.585-.386 1.735 0 1.144.387 1.732t1.139.588q.757 0 1.144-.588t.386-1.732q0-1.15-.386-1.735-.387-.586-1.144-.586m0-.838q1.251 0 1.914.811.664.811.664 2.348 0 1.541-.66 2.35-.662.808-1.918.808-1.252 0-1.913-.809-.66-.808-.66-2.35 0-1.536.66-2.347.661-.81 1.913-.81m9.895 1.385q-.317-.247-.645-.36t-.72-.113q-.923 0-1.412.58t-.489 1.676V62h-.994v-6.016h.994v1.177q.247-.64.76-.98.513-.342 1.217-.342.365 0 .682.092.317.091.607.284Zm8.532-3.244h1.09v3.566l3.39-3.566h1.272l-3.12 3.276L90.58 62h-1.311l-2.616-4.018-.827.881V62h-1.09Zm19.027 7.734q-.413.22-.848.33-.436.11-.924.11-1.542 0-2.393-1.09T98.747 58q0-1.966.856-3.065.857-1.098 2.388-1.098.488 0 .924.11.435.11.848.33v1.112q-.397-.327-.854-.5-.456-.171-.918-.171-1.058 0-1.585.816-.526.817-.526 2.466 0 1.643.526 2.46.527.816 1.585.816.472 0 .926-.172t.846-.5Zm5.007-2.739h-.327q-.865 0-1.303.304-.437.303-.437.905 0 .542.327.843.328.3.908.3.816 0 1.284-.566.467-.567.472-1.566v-.22Zm1.918-.408V62h-.994v-.892q-.317.538-.797.793t-1.168.255q-.919 0-1.467-.519-.548-.518-.548-1.388 0-1.004.674-1.525t1.98-.521h1.326v-.156q-.005-.72-.365-1.045t-1.15-.325q-.504 0-1.02.145-.515.145-1.004.425v-.989q.548-.21 1.05-.314t.975-.105q.746 0 1.275.22.53.22.857.661.204.269.29.664.086.394.086 1.184m7.011 3.126q-.398.23-.82.346t-.861.116q-1.397 0-2.184-.838t-.787-2.32.787-2.32 2.184-.839q.435 0 .848.113.414.113.833.35v1.036q-.392-.35-.787-.505t-.894-.156q-.93 0-1.43.602-.499.601-.499 1.719 0 1.111.503 1.716.502.604 1.426.604.515 0 .923-.159.409-.158.758-.491Zm6.946-3.422V62h-.994v-3.728q0-.81-.284-1.192-.285-.381-.892-.381-.693 0-1.066.491-.373.492-.373 1.41V62h-.989v-8.357h.989v3.244q.263-.516.714-.782t1.069-.266q.918 0 1.372.605.454.604.454 1.828m7.371.226v.483h-4.281v.033q-.043 1.23.47 1.767t1.447.537q.473 0 .989-.15.515-.15 1.1-.457v.983q-.563.23-1.087.346t-1.012.116q-1.402 0-2.192-.84-.79-.841-.79-2.318 0-1.44.774-2.3t2.063-.859q1.149 0 1.812.78.664.778.707 1.879m-.989-.29q-.064-.623-.454-1.077-.389-.454-1.12-.454-.714 0-1.176.473t-.505 1.063Zm11.852 7.112V51.3h.86v14.02Zm14 0V51.3h.86v14.02Zm9.884-3.605q-.413.22-.848.33-.436.11-.924.11-1.542 0-2.393-1.09T161.747 58q0-1.966.856-3.065.857-1.098 2.388-1.098.488 0 .924.11.435.11.848.33v1.112q-.397-.327-.854-.5-.456-.171-.918-.171-1.058 0-1.585.816-.526.817-.526 2.466 0 1.643.526 2.46.527.816 1.585.816.472 0 .926-.172t.846-.5Zm5.007-2.739h-.327q-.865 0-1.303.304-.437.303-.437.905 0 .542.327.843.328.3.908.3.816 0 1.284-.566.467-.567.472-1.566v-.22Zm1.918-.408V62h-.994v-.892q-.317.538-.797.793t-1.168.255q-.919 0-1.467-.519-.548-.518-.548-1.388 0-1.004.674-1.525t1.98-.521h1.326v-.156q-.005-.72-.365-1.045t-1.15-.325q-.504 0-1.02.145-.515.145-1.004.425v-.989q.548-.21 1.05-.314t.975-.105q.746 0 1.275.22.53.22.857.661.204.269.29.664.086.394.086 1.184m7.011 3.126q-.398.23-.82.346t-.861.116q-1.397 0-2.184-.838t-.787-2.32.787-2.32 2.184-.839q.435 0 .848.113.414.113.833.35v1.036q-.392-.35-.787-.505t-.894-.156q-.93 0-1.43.602-.499.601-.499 1.719 0 1.111.503 1.716.502.604 1.426.604.515 0 .923-.159.409-.158.758-.491Zm6.946-3.422V62h-.994v-3.728q0-.81-.284-1.192-.285-.381-.892-.381-.693 0-1.066.491-.373.492-.373 1.41V62h-.989v-8.357h.989v3.244q.263-.516.714-.782t1.069-.266q.918 0 1.372.605.454.604.454 1.828m7.371.226v.483h-4.281v.033q-.043 1.23.47 1.767t1.447.537q.473 0 .989-.15.515-.15 1.1-.457v.983q-.563.23-1.087.346t-1.012.116q-1.402 0-2.192-.84-.79-.841-.79-2.318 0-1.44.774-2.3t2.063-.859q1.149 0 1.812.78.664.778.707 1.879m-.989-.29q-.064-.623-.454-1.077-.389-.454-1.12-.454-.714 0-1.176.473t-.505 1.063Zm4.852 7.112V51.3h.86v14.02Zm-56-39V12.3h.86v14.02Z"/><path d="M142.879 39.32V25.3h.86v14.02Z"/><path d="M142.879 52.32V38.3h.86v14.02Zm14-26V12.3h.86v14.02Z"/><path d="M156.879 39.32V25.3h.86v14.02Z"/><path d="M156.879 52.32V38.3h.86v14.02Zm4.223-11.312h1.482l3.137 6.58v-6.58h1.155V49h-1.482l-3.137-6.58V49h-1.155Zm12.914 4.49v.483h-4.281v.033q-.043 1.23.47 1.767t1.447.537q.473 0 .989-.15.515-.15 1.1-.457v.983q-.563.23-1.087.346t-1.012.116q-1.402 0-2.192-.84-.79-.841-.79-2.318 0-1.44.774-2.3t2.063-.859q1.149 0 1.812.78.664.778.707 1.879m-.989-.29q-.064-.623-.454-1.077-.389-.454-1.12-.454-.714 0-1.176.473t-.505 1.063ZM175 42.984h.978l1.047 4.861.86-3.104h.843l.87 3.104 1.047-4.86h.978L180.215 49h-.945l-.961-3.298-.956 3.298h-.946Zm14.736-2.003h1.09v3.566l3.39-3.566h1.272l-3.12 3.276L195.58 49h-1.311l-2.616-4.018-.827.881V49h-1.09Zm9.143 11.339V38.3h.86v14.02Zm0-26V12.3h.86v14.02Z"/><path d="M198.879 39.32V25.3h.86v14.02ZM34.893 7.336v-.924h6.837v.924Zm7 0v-.924h6.837v.924Zm7 0v-.924h6.837v.924Zm7 0v-.924h6.837v.924Zm7 0v-.924h6.837v.924Zm7 0v-.924h6.837v.924Zm7 0v-.924h6.837v.924Zm7 0v-.924h6.837v.924Zm7 0v-.924h6.837v.924Zm7 0v-.924h6.837v.924Zm7 0v-.924h6.837v.924Zm7 0v-.924h6.837v.924Zm7 0v-.924h6.837v.924Zm7 0v-.924h6.837v.924Zm7 0v-.924h6.837v.924Zm9.986 5.984V7.335h-2.986v-.924h3.845v6.907Zm14 0V6.411h3.851v.924h-2.992v5.983Zm4.014-5.984v-.924h6.837v.924Zm7 0v-.924h6.837v.924Zm7 0v-.924h6.837v.924Zm7 0v-.924h6.837v.924Zm7 0v-.924h6.837v.924Zm9.986 5.984V7.335h-2.986v-.924h3.845v6.907Z"/></svg>
