<svg xmlns="http://www.w3.org/2000/svg" width="246" height="547" viewBox="0 0 246 547"><style>@media (prefers-color-scheme:dark){path{fill:#f6f6f6}}</style><path d="M2.02 13.32V5.487h4.71v.924H2.879v6.907Zm1.718 0V7.335H6.73v.924H4.598v5.06Z"/><path d="M2.02 26.32V12.3h.859v14.02Zm1.718 0V12.3h.86v14.02Z"/><path d="M3.738 32.412v-7.111h.86v6.187H6.73v.924ZM2.02 34.26V25.3h.859v8.036H6.73v.924Zm0 187.06v-7.832h4.71v.924H2.879v6.907Zm1.718 0v-5.984H6.73v.924H4.598v5.06Z"/><path d="M2.02 234.32V220.3h.859v14.02Zm1.718 0V220.3h.86v14.02Z"/><path d="M3.738 240.412v-7.111h.86v6.187H6.73v.924ZM2.02 242.26v-8.96h.859v8.036H6.73v.924Zm.859 18.06v-6.908H6.73v.924H3.738v5.983Z"/><path d="M2.879 273.32V259.3h.86v14.02Z"/><path d="M2.879 286.32V272.3h.86v14.02Z"/><path d="M2.879 299.32V285.3h.86v14.02Z"/><path d="M2.879 312.32V298.3h.86v14.02Z"/><path d="M2.879 325.32V311.3h.86v14.02Z"/><path d="M2.879 332.336V324.3h.86v7.111H6.73v.924Zm7 13V337.3h.86v7.111h2.991v.924Zm56 31.984v-6.908h3.851v.924h-2.992v5.983Z"/><path d="M65.879 390.32V376.3h.86v14.02Z"/><path d="M65.879 403.32V389.3h.86v14.02Z"/><path d="M65.879 416.32V402.3h.86v14.02Z"/><path d="M65.879 423.336V415.3h.86v7.111h2.991v.924Zm14 18.984v-6.908h3.851v.924h-2.992v5.983Z"/><path d="M79.879 455.32V441.3h.86v14.02Z"/><path d="M79.879 468.32V454.3h.86v14.02Z"/><path d="M79.879 481.32V467.3h.86v14.02Z"/><path d="M79.879 494.32V480.3h.86v14.02Z"/><path d="M79.879 507.32V493.3h.86v14.02Z"/><path d="M79.879 514.336V506.3h.86v7.111h2.991v.924Zm7 13V519.3h.86v7.111h2.991v.924Zm9.884 15.379q-.413.22-.848.33-.436.11-.924.11-1.542 0-2.393-1.09T91.747 539q0-1.966.856-3.065.857-1.098 2.388-1.098.488 0 .924.11.435.11.848.33v1.112q-.397-.327-.854-.5-.456-.171-.918-.171-1.058 0-1.585.816-.526.817-.526 2.466 0 1.643.526 2.46.527.816 1.585.816.472 0 .926-.172t.846-.5Zm5.007-2.739h-.327q-.865 0-1.303.304-.437.303-.437.905 0 .542.327.843.328.3.908.3.816 0 1.284-.566.467-.567.472-1.566v-.22Zm1.918-.408V543h-.994v-.892q-.317.538-.797.793t-1.168.255q-.919 0-1.467-.519-.548-.518-.548-1.388 0-1.004.674-1.525t1.98-.521h1.326v-.156q-.005-.72-.365-1.045t-1.15-.325q-.504 0-1.02.145-.515.145-1.004.425v-.989q.548-.21 1.05-.314t.975-.105q.746 0 1.275.22.53.22.857.661.204.269.29.664.086.394.086 1.184m7.011 3.126q-.398.23-.82.346t-.861.116q-1.397 0-2.184-.838t-.787-2.32.787-2.32q.787-.839 2.184-.839.435 0 .848.113.414.113.833.35v1.036q-.392-.35-.787-.505t-.894-.156q-.93 0-1.43.602-.499.601-.499 1.719 0 1.111.503 1.716.502.604 1.426.604.515 0 .923-.159.409-.158.758-.491Zm6.946-3.422V543h-.994v-3.728q0-.81-.284-1.192-.285-.381-.892-.381-.693 0-1.066.491-.373.492-.373 1.41v3.4h-.989v-8.357h.989v3.244q.263-.516.714-.782t1.069-.266q.918 0 1.372.605.454.604.454 1.828m7.371.226v.483h-4.281v.033q-.043 1.23.47 1.767t1.447.537q.473 0 .989-.15.515-.15 1.1-.457v.983q-.563.23-1.087.346t-1.012.116q-1.402 0-2.192-.84-.79-.841-.79-2.318 0-1.44.774-2.3t2.063-.859q1.149 0 1.812.78.664.778.707 1.879m-.989-.29q-.064-.623-.454-1.077-.389-.454-1.12-.454-.714 0-1.176.473t-.505 1.063Zm7.199-2.014v.967q-.424-.247-.854-.371-.43-.123-.875-.123-.672 0-1.002.217-.33.218-.33.663 0 .403.247.602t1.23.387l.397.075q.736.14 1.115.558.378.42.378 1.09 0 .892-.634 1.395-.633.502-1.761.502-.446 0-.935-.094t-1.058-.282v-1.02q.553.284 1.058.426t.956.143q.655 0 1.015-.266t.36-.744q0-.688-1.316-.95l-.043-.012-.37-.075q-.854-.166-1.246-.561t-.392-1.077q0-.865.585-1.335t1.67-.47q.484 0 .93.089.445.089.875.266m-34.903-15.036v1q-.339-.2-.72-.304-.381-.105-.795-.105-1.031 0-1.563.776t-.532 2.286q.258-.538.715-.825t1.047-.287q1.16 0 1.797.711.636.712.636 2.017 0 1.3-.655 2.014-.655.715-1.842.715-1.397 0-2.047-1.002t-.65-3.155q0-2.03.782-3.097.781-1.066 2.264-1.066.397 0 .795.083.397.083.768.24m-1.934 3.39q-.693 0-1.09.499-.398.5-.398 1.38 0 .881.398 1.38.397.5 1.09.5.72 0 1.085-.475.365-.476.365-1.405 0-.934-.365-1.407t-1.085-.473m7.559-2.578-2.53 4.237h2.53Zm-.177-.989h1.256v5.226h1.07v.88h-1.07V530h-1.08v-1.912h-3.4v-1.026Zm10.481 0h6.118v.913h-2.508V530h-1.09v-7.106h-2.52Zm10.057 2.696q-.752 0-1.14.586-.386.585-.386 1.735 0 1.144.387 1.732t1.139.588q.757 0 1.144-.588t.386-1.732q0-1.15-.386-1.735-.387-.586-1.144-.586m0-.838q1.251 0 1.914.811.664.811.664 2.348 0 1.541-.66 2.35-.662.808-1.918.808-1.252 0-1.913-.809-.66-.808-.66-2.35 0-1.536.66-2.347.661-.81 1.913-.81m4.959-2.197h1.02v4.839l2.594-2.498h1.203l-2.368 2.267 2.74 3.749h-1.21l-2.223-3.104-.736.692V530h-1.02Zm11.748 4.855v.483h-4.281v.033q-.043 1.23.47 1.767t1.447.537q.473 0 .989-.15.515-.15 1.1-.457v.983q-.563.23-1.087.346t-1.012.116q-1.402 0-2.192-.84-.79-.841-.79-2.318 0-1.44.774-2.3t2.063-.859q1.149 0 1.812.78.664.778.707 1.879m-.989-.29q-.064-.623-.454-1.077-.389-.454-1.12-.454-.714 0-1.176.473t-.505 1.063Zm7.618.064V530h-.994v-3.728q0-.81-.284-1.192-.285-.381-.892-.381-.693 0-1.066.491-.373.492-.373 1.41v3.4h-.989v-6.016h.989v.903q.263-.516.714-.782t1.069-.266q.918 0 1.372.605.454.604.454 1.828"/><path d="M86.879 520.32v-5.984h-2.986v-.924h2.986v-7.111h.86v14.018Zm21 0V506.3h.86v14.02Zm-21-65v-6.908h3.851v.924h-2.992v5.983Z"/><path d="M86.879 468.32V454.3h.86v14.02Z"/><path d="M86.879 481.32V467.3h.86v14.02Z"/><path d="M86.879 494.32V480.3h.86v14.02Z"/><path d="M86.879 507.32V493.3h.86v14.02Zm21-39V454.3h.86v14.02Z"/><path d="M107.879 481.32V467.3h.86v14.02Z"/><path d="M107.879 494.32V480.3h.86v14.02Z"/><path d="M107.879 507.32V493.3h.86v14.02Zm14-44.984V454.3h.86v7.111h2.991v.924Zm4.014 0v-.924h6.837v.924Zm12.43-5.178v1q-.339-.2-.72-.304-.381-.105-.795-.105-1.031 0-1.563.776t-.532 2.286q.258-.538.715-.825t1.047-.287q1.16 0 1.797.711.636.712.636 2.017 0 1.3-.655 2.014-.655.715-1.842.715-1.397 0-2.047-1.002t-.65-3.155q0-2.03.782-3.097.781-1.066 2.264-1.066.397 0 .795.083.397.083.768.24m-1.934 3.39q-.693 0-1.09.499-.398.5-.398 1.38 0 .881.398 1.38.397.5 1.09.5.72 0 1.085-.475.365-.476.365-1.405 0-.934-.365-1.407t-1.085-.473m7.559-2.578-2.53 4.237h2.53Zm-.177-.989h1.256v5.226h1.07v.88h-1.07V465h-1.08v-1.912h-3.4v-1.026Zm12.372.892v3.013h1.257q.752 0 1.173-.398.422-.397.422-1.112 0-.714-.419-1.109-.419-.394-1.176-.394Zm-1.085-.892h2.342q1.343 0 2.036.61.692.61.692 1.785 0 1.187-.69 1.794t-2.038.607h-1.257V465h-1.085Zm12.146 3.244q-.317-.247-.645-.36t-.72-.113q-.923 0-1.412.58t-.489 1.676V465h-.994v-6.016h.994v1.177q.247-.64.76-.98.513-.342 1.217-.342.365 0 .682.092.317.091.607.284Zm6.812 1.273v.483h-4.281v.033q-.043 1.23.47 1.767t1.447.537q.473 0 .989-.15.515-.15 1.1-.457v.983q-.563.23-1.087.346t-1.012.116q-1.402 0-2.192-.84-.79-.841-.79-2.318 0-1.44.774-2.3t2.063-.859q1.149 0 1.812.78.664.778.707 1.879m-.989-.29q-.064-.623-.454-1.077-.389-.454-1.12-.454-.714 0-1.176.473t-.505 1.063Zm6.581-1.456v-3.11h.989V465h-.989v-.757q-.247.445-.658.68-.41.233-.948.233-1.09 0-1.716-.846t-.625-2.334q0-1.466.628-2.301t1.713-.836q.543 0 .956.234.414.234.65.68m-2.905 2.246q0 1.149.365 1.734.365.586 1.08.586.714 0 1.087-.59.373-.592.373-1.73 0-1.144-.373-1.733-.373-.588-1.088-.588-.714 0-1.08.586-.364.585-.364 1.735m6.994-2.993h2.53v5.226h1.96V465h-4.909v-.768h1.96v-4.458h-1.54Zm1.542-2.337h.988v1.247h-.988Zm9.46 8.025q-.398.23-.82.346t-.861.116q-1.397 0-2.184-.838t-.787-2.32.787-2.32 2.184-.839q.435 0 .848.113.414.113.833.35v1.036q-.392-.35-.787-.505t-.894-.156q-.93 0-1.43.602-.499.601-.499 1.719 0 1.111.503 1.716.502.604 1.426.604.515 0 .923-.159.409-.158.758-.491Zm4.599-7.418v1.708h2.245v.768h-2.245v3.266q0 .666.252.93.253.262.881.262h1.112v.79h-1.209q-1.111 0-1.568-.446-.456-.446-.456-1.536v-3.266h-1.606v-.768h1.606v-1.708Zm5.399 1.73h2.53v5.226h1.96V465h-4.909v-.768h1.96v-4.458h-1.54Zm1.542-2.337h.988v1.247h-.988Zm7.07 3.008q-.752 0-1.14.586-.386.585-.386 1.735 0 1.144.387 1.732t1.139.588q.757 0 1.144-.588t.386-1.732q0-1.15-.386-1.735-.387-.586-1.144-.586m0-.838q1.251 0 1.914.811.664.811.664 2.348 0 1.541-.66 2.35-.662.808-1.918.808-1.252 0-1.913-.809-.66-.808-.66-2.35 0-1.536.66-2.347.661-.81 1.913-.81m9.336 2.432V465h-.994v-3.728q0-.81-.284-1.192-.285-.381-.892-.381-.693 0-1.066.491-.373.492-.373 1.41v3.4h-.989v-6.016h.989v.903q.263-.516.714-.782t1.069-.266q.918 0 1.372.605.454.604.454 1.828m6.581-2.078v.967q-.424-.247-.854-.371-.43-.123-.875-.123-.672 0-1.002.217-.33.218-.33.663 0 .403.247.602t1.23.387l.397.075q.736.14 1.115.558.378.42.378 1.09 0 .892-.634 1.395-.633.502-1.761.502-.446 0-.935-.094t-1.058-.282v-1.02q.553.284 1.058.426t.956.143q.655 0 1.015-.266t.36-.744q0-.688-1.316-.95l-.043-.012-.37-.075q-.854-.166-1.246-.561t-.392-1.077q0-.865.585-1.335t1.67-.47q.484 0 .93.089.445.089.875.266m-138.333-9.858v-.924h6.837v.924Zm7 0v-.924h2.986v-7.111h.86v7.111h2.991v.924Zm9.986 5.984v-5.984h-2.986v-.924h3.845v6.907Z"/><path d="M121.879 455.32v-6.908h3.851v.924h-2.992v5.983Zm4.014-5.984v-.924h6.837v.924Zm7 0v-.924h6.837v.924Zm9.986 5.984v-5.984h-2.986v-.924h3.845v6.907Zm-58.986-18.984v-.924h6.837v.924Zm7 0v-.924h6.837v.924Zm9.986 5.984v-5.984h-2.986v-.924h3.845v6.907Zm14.43-2.901-3.277-6.553h6.558Zm-45.416-16.083v-.924h6.837v.924Zm7 0v-.924h6.837v.924Zm7 0v-.924h6.837v.924Zm7 0v-.924h6.837v.924Zm7 0v-.924h6.837v.924Zm7 0v-.924h6.837v.924Zm9.986 5.984v-5.984h-2.986v-.924h6.837v.924h-2.992v5.983Zm4.014-5.984v-.924h6.837v.924Zm7 0v-.924h6.837v.924Zm7 0v-.924h6.837v.924Zm7 0v-.924h6.837v.924Zm7 0v-.924h6.837v.924Zm7 0v-.924h6.837v.924Zm7 0v-.924h6.837v.924Zm7 0v-.924h2.986v-7.111h.86v8.035Zm-61.738-31.355h1.09v7.106h3.873V400h-4.963Zm7 0h1.09v7.106h3.873V400h-4.963Z"/><path d="M170.879 416.32V402.3h.86v14.02Zm-51.686-24.312h1.45l1.386 4.071 1.397-4.071h1.455V400h-1.004v-7.063l-1.429 4.21h-.822l-1.434-4.21V400h-.999Z"/><path d="M170.879 403.32V389.3h.86v14.02Z"/><path d="M170.879 390.32V376.3h.86v14.02ZM69.893 371.336v-.924h6.837v.924Zm7 0v-.924h6.837v.924Zm7 0v-.924h6.837v.924Zm7 0v-.924h6.837v.924Zm7 0v-.924h6.837v.924Zm7 0v-.924h6.837v.924Zm10.416 3.083-3.277-6.553h6.558Zm3.584-3.083v-.924h6.837v.924Zm7 0v-.924h6.837v.924Zm7 0v-.924h6.837v.924Zm7 0v-.924h6.837v.924Zm7 0v-.924h6.837v.924Zm7 0v-.924h6.837v.924Zm7 0v-.924h6.837v.924Z"/><path d="M170.879 377.32v-5.984h-2.986v-.924h3.845v6.907Zm-56-13V350.3h.86v14.02ZM13.893 345.336v-.924h6.837v.924Zm7 0v-.924h6.837v.924Zm7 0v-.924h6.837v.924Zm7 0v-.924h6.837v.924Zm7 0v-.924h6.837v.924Zm7 0v-.924h6.837v.924Zm7 0v-.924h6.837v.924Zm7 0v-.924h6.837v.924Zm7 0v-.924h6.837v.924Zm7 0v-.924h6.837v.924Zm7 0v-.924h6.837v.924Zm7 0v-.924h6.837v.924Zm7 0v-.924h6.837v.924Zm7 0v-.924h6.837v.924Zm7 0v-.924h6.837v.924Zm7 0v-.924h6.837v.924Zm7 0v-.924h6.837v.924Zm7 0v-.924h6.837v.924Zm7 0v-.924h6.837v.924Zm7 0v-.924h6.837v.924Zm7 0v-.924h2.986v-7.111h.86v8.035Zm16.986 0V337.3h.86v7.111h2.991v.924Zm4.014 0v-.924h6.837v.924Zm12.43-5.178v1q-.339-.2-.72-.304-.381-.105-.795-.105-1.031 0-1.563.776t-.532 2.286q.258-.538.715-.825t1.047-.287q1.16 0 1.797.711.636.712.636 2.017 0 1.3-.655 2.014-.655.715-1.842.715-1.397 0-2.047-1.002t-.65-3.155q0-2.03.782-3.097.781-1.066 2.264-1.066.397 0 .795.083.397.083.768.24m-1.934 3.39q-.693 0-1.09.499-.398.5-.398 1.38 0 .881.398 1.38.397.5 1.09.5.72 0 1.085-.475.365-.476.365-1.405 0-.934-.365-1.407t-1.085-.473m7.559-2.578-2.53 4.237h2.53Zm-.177-.989h1.256v5.226h1.07v.88h-1.07V348h-1.08v-1.912h-3.4v-1.026Zm10.481 0h6.118v.913h-2.508V348h-1.09v-7.106h-2.52Zm10.057 2.696q-.752 0-1.14.586-.386.585-.386 1.735 0 1.144.387 1.732t1.139.588q.757 0 1.144-.588t.386-1.732q0-1.15-.386-1.735-.387-.586-1.144-.586m0-.838q1.251 0 1.914.811.664.811.664 2.348 0 1.541-.66 2.35-.662.808-1.918.808-1.252 0-1.913-.809-.66-.808-.66-2.35 0-1.536.66-2.347.661-.81 1.913-.81m4.959-2.197h1.02v4.839l2.594-2.498h1.203l-2.368 2.267 2.74 3.749h-1.21l-2.223-3.104-.736.692V348h-1.02Zm11.748 4.855v.483h-4.281v.033q-.043 1.23.47 1.767t1.447.537q.473 0 .989-.15.515-.15 1.1-.457v.983q-.563.23-1.087.346t-1.012.116q-1.402 0-2.192-.84-.79-.841-.79-2.318 0-1.44.774-2.3t2.063-.859q1.149 0 1.812.78.664.778.707 1.879m-.989-.29q-.064-.623-.454-1.077-.389-.454-1.12-.454-.714 0-1.176.473t-.505 1.063Zm7.618.064V348h-.994v-3.728q0-.81-.284-1.192-.285-.381-.892-.381-.693 0-1.066.491-.373.492-.373 1.41v3.4h-.989v-6.016h.989v.903q.263-.516.714-.782t1.069-.266q.918 0 1.372.605.454.604.454 1.828m6.581-2.078v.967q-.424-.247-.854-.371-.43-.123-.875-.123-.672 0-1.002.217-.33.218-.33.663 0 .403.247.602t1.23.387l.397.075q.736.14 1.115.558.378.42.378 1.09 0 .892-.634 1.395-.633.502-1.761.502-.446 0-.935-.094t-1.058-.282v-1.02q.553.284 1.058.426t.956.143q.655 0 1.015-.266t.36-.744q0-.688-1.316-.95l-.043-.012-.37-.075q-.854-.166-1.246-.561t-.392-1.077q0-.865.585-1.335t1.67-.47q.484 0 .93.089.445.089.875.266M9.879 338.32v-5.984H6.893v-.924h2.986v-7.111h.86v14.018Z"/><path d="M156.879 338.32V324.3h.86v14.02Zm14 0v-6.908h3.851v.924h-2.992v5.983Zm4.014-5.984v-.924h6.837v.924Zm7 0v-.924h6.837v.924Zm9.986 5.984v-5.984h-2.986v-.924h3.845v6.907Zm-182-65v-6.908h3.851v.924h-2.992v5.983Z"/><path d="M9.879 286.32V272.3h.86v14.02Z"/><path d="M9.879 299.32V285.3h.86v14.02Z"/><path d="M9.879 312.32V298.3h.86v14.02Z"/><path d="M9.879 325.32V311.3h.86v14.02Zm22.069-23.35-2.53 4.237h2.53Zm-.177-.989h1.256v5.226h1.07v.88h-1.07V309h-1.08v-1.912h-3.4v-1.026Zm7.177.989-2.53 4.237h2.53Zm-.177-.989h1.256v5.226h1.07v.88h-1.07V309h-1.08v-1.912h-3.4v-1.026Zm118.108 24.339V311.3h.86v14.02Zm-111.57-20.128q-.726 0-1.12.405-.395.406-.395 1.147t.4 1.152 1.115.411q.73 0 1.125-.405.395-.406.395-1.158 0-.736-.4-1.144t-1.12-.408m-.946-.451q-.693-.178-1.082-.66-.39-.484-.39-1.166 0-.957.65-1.518t1.768-.561q1.122 0 1.772.561t.65 1.518q0 .682-.39 1.165-.389.483-1.082.66.806.178 1.233.715t.427 1.391q0 1.085-.693 1.697t-1.917.613-1.915-.61-.69-1.69q0-.858.427-1.398t1.232-.717m-.392-1.724q0 .644.344.983t.994.338q.655 0 .999-.338.343-.339.343-.983 0-.656-.34-1-.342-.343-1.002-.343-.65 0-.994.346-.344.347-.344.997m12.281-2.036h6.118v.913h-2.508V309h-1.09v-7.106h-2.52Zm10.057 2.696q-.752 0-1.14.586-.386.585-.386 1.735 0 1.144.387 1.732t1.139.588q.757 0 1.144-.588t.386-1.732q0-1.15-.386-1.735-.387-.586-1.144-.586m0-.838q1.251 0 1.914.811.664.811.664 2.348 0 1.541-.66 2.35-.662.808-1.918.808-1.252 0-1.913-.809-.66-.808-.66-2.35 0-1.536.66-2.347.661-.81 1.913-.81m4.959-2.197h1.02v4.839l2.594-2.498h1.203l-2.368 2.267 2.74 3.749h-1.21l-2.223-3.104-.736.692V309h-1.02Zm11.748 4.855v.483h-4.281v.033q-.043 1.23.47 1.767t1.447.537q.473 0 .989-.15.515-.15 1.1-.457v.983q-.563.23-1.087.346t-1.012.116q-1.402 0-2.192-.84-.79-.841-.79-2.318 0-1.44.774-2.3t2.063-.859q1.149 0 1.812.78.664.778.707 1.879m-.989-.29q-.064-.623-.454-1.077-.389-.454-1.12-.454-.714 0-1.176.473t-.505 1.063Zm7.618.064V309h-.994v-3.728q0-.81-.284-1.192-.285-.381-.892-.381-.693 0-1.066.491-.373.492-.373 1.41v3.4h-.989v-6.016h.989v.903q.263-.516.714-.782t1.069-.266q.918 0 1.372.605.454.604.454 1.828m14.118 3.443q-.413.22-.848.33-.436.11-.924.11-1.542 0-2.393-1.09T98.747 305q0-1.966.856-3.065.857-1.098 2.388-1.098.488 0 .924.11.435.11.848.33v1.112q-.397-.327-.854-.5-.456-.171-.918-.171-1.058 0-1.585.816-.526.817-.526 2.466 0 1.643.526 2.46.527.816 1.585.816.472 0 .926-.172t.846-.5Zm5.007-2.739h-.327q-.865 0-1.303.304-.437.303-.437.905 0 .542.327.843.328.3.908.3.816 0 1.284-.566.467-.567.472-1.566v-.22Zm1.918-.408V309h-.994v-.892q-.317.538-.797.793t-1.168.255q-.919 0-1.467-.519-.548-.518-.548-1.388 0-1.004.674-1.525t1.98-.521h1.326v-.156q-.005-.72-.365-1.045t-1.15-.325q-.504 0-1.02.145-.515.145-1.004.425v-.989q.548-.21 1.05-.314t.975-.105q.746 0 1.275.22.53.22.857.661.204.269.29.664.086.394.086 1.184m7.011 3.126q-.398.23-.82.346t-.861.116q-1.397 0-2.184-.838t-.787-2.32.787-2.32 2.184-.839q.435 0 .848.113.414.113.833.35v1.036q-.392-.35-.787-.505t-.894-.156q-.93 0-1.43.602-.499.601-.499 1.719 0 1.111.503 1.716.502.604 1.426.604.515 0 .923-.159.409-.158.758-.491Zm6.946-3.422V309h-.994v-3.728q0-.81-.284-1.192-.285-.381-.892-.381-.693 0-1.066.491-.373.492-.373 1.41v3.4h-.989v-8.357h.989v3.244q.263-.516.714-.782t1.069-.266q.918 0 1.372.605.454.604.454 1.828m7.371.226v.483h-4.281v.033q-.043 1.23.47 1.767t1.447.537q.473 0 .989-.15.515-.15 1.1-.457v.983q-.563.23-1.087.346t-1.012.116q-1.402 0-2.192-.84-.79-.841-.79-2.318 0-1.44.774-2.3t2.063-.859q1.149 0 1.812.78.664.778.707 1.879m-.989-.29q-.064-.623-.454-1.077-.389-.454-1.12-.454-.714 0-1.176.473t-.505 1.063Zm7.199-2.014v.967q-.424-.247-.854-.371-.43-.123-.875-.123-.672 0-1.002.217-.33.218-.33.663 0 .403.247.602t1.23.387l.397.075q.736.14 1.115.558.378.42.378 1.09 0 .892-.634 1.395-.633.502-1.761.502-.446 0-.935-.094t-1.058-.282v-1.02q.553.284 1.058.426t.956.143q.655 0 1.015-.266t.36-.744q0-.688-1.316-.95l-.043-.012-.37-.075q-.854-.166-1.246-.561t-.392-1.077q0-.865.585-1.335t1.67-.47q.484 0 .93.089.445.089.875.266"/><path d="M156.879 312.32V298.3h.86v14.02Zm0-26V272.3h.86v14.02Z"/><path d="M156.879 299.32V285.3h.86v14.02ZM13.893 267.336v-.924h6.837v.924Zm7 0v-.924h6.837v.924Zm7 0v-.924h6.837v.924Zm7 0v-.924h6.837v.924Zm7 0v-.924h6.837v.924Zm7 0v-.924h6.837v.924Zm7 0v-.924h6.837v.924Zm7 0v-.924h6.837v.924Zm7 0v-.924h6.837v.924Zm7 0v-.924h6.837v.924Zm7 0v-.924h6.837v.924Zm7 0v-.924h6.837v.924Zm7 0v-.924h6.837v.924Zm7 0v-.924h6.837v.924Zm7 0v-.924h6.837v.924Zm7 0v-.924h6.837v.924Zm7 0v-.924h6.837v.924Zm7 0v-.924h6.837v.924Zm7 0v-.924h6.837v.924Zm7 0v-.924h2.986v-7.111h.86v7.111h2.991v.924Zm9.986 5.984v-5.984h-2.986v-.924h3.845v6.907ZM6.893 254.336v-.924h6.837v.924Zm7 0v-.924h6.837v.924Zm7 0v-.924h6.837v.924Zm7 0v-.924h6.837v.924Zm7 0v-.924h6.837v.924Zm7 0v-.924h6.837v.924Zm7 0v-.924h6.837v.924Zm7 0v-.924h6.837v.924Zm7 0v-.924h6.837v.924Zm7 0v-.924h6.837v.924Zm7 0v-.924h6.837v.924Zm7 0v-.924h6.837v.924Zm7 0v-.924h6.837v.924Zm7 0v-.924h6.837v.924Zm7 0v-.924h6.837v.924Zm7 0v-.924h6.837v.924Zm7 0v-.924h6.837v.924Zm7 0v-.924h6.837v.924Zm7 0v-.924h6.837v.924Zm7 0v-.924h6.837v.924Z"/><path d="M149.879 260.32v-5.984h-2.986v-.924h3.845v6.907ZM6.893 240.412v-.924h6.837v.924Zm0 1.848v-.924h6.837v.924Zm7-1.848v-.924h6.837v.924Zm0 1.848v-.924h6.837v.924Zm7-1.848v-.924h6.837v.924Zm0 1.848v-.924h6.837v.924Zm7-1.848v-.924h6.837v.924Zm0 1.848v-.924h6.837v.924Zm7-1.848v-.924h6.837v.924Zm0 1.848v-.924h6.837v.924Zm7-1.848v-.924h6.837v.924Zm0 1.848v-.924h6.837v.924Zm7-1.848v-.924h6.837v.924Zm0 1.848v-.924h6.837v.924Zm7-1.848v-.924h6.837v.924Zm0 1.848v-.924h6.837v.924Zm7-1.848v-.924h6.837v.924Zm0 1.848v-.924h6.837v.924Zm7-1.848v-.924h6.837v.924Zm0 1.848v-.924h6.837v.924Zm7-1.848v-.924h6.837v.924Zm0 1.848v-.924h6.837v.924Zm7-1.848v-.924h6.837v.924Zm0 1.848v-.924h6.837v.924Zm7-1.848v-.924h6.837v.924Zm0 1.848v-.924h6.837v.924Zm7-1.848v-.924h6.837v.924Zm0 1.848v-.924h6.837v.924Zm7-1.848v-.924h6.837v.924Zm0 1.848v-.924h6.837v.924Zm7-1.848v-.924h6.837v.924Zm0 1.848v-.924h6.837v.924Zm7-1.848v-.924h6.837v.924Zm0 1.848v-.924h6.837v.924Zm7-1.848v-.924h6.837v.924Zm0 1.848v-.924h6.837v.924Zm7-1.848v-.924h6.837v.924Zm0 1.848v-.924h6.837v.924Zm7-1.848v-.924h6.837v.924Zm0 1.848v-.924h6.837v.924Zm7-1.848v-.924h6.837v.924Zm0 1.848v-.924h6.837v.924Zm7-1.848v-.924h6.837v.924Zm0 1.848v-.924h6.837v.924Zm7-1.848v-.924h6.837v.924Zm0 1.848v-.924h6.837v.924Zm7-1.848v-.924h6.837v.924Zm0 1.848v-.924h6.837v.924Zm7-1.848v-.924h2.127v-6.187h.859v7.111Zm0 1.848v-.924h3.845V233.3h.86v8.959ZM14 222.981h1.058l.768 6.51.913-4.308h1.134l.923 4.318.768-6.52h1.059L19.425 231h-1.026l-1.09-4.764L16.224 231h-1.026Zm8.697 2.025h2.53v5.226h1.96V231h-4.909v-.768h1.96v-4.458h-1.54Zm1.542-2.337h.988v1.247h-.988Zm7.059.607v1.708h2.245v.768h-2.245v3.266q0 .666.252.93.253.262.881.262h1.112v.79h-1.209q-1.111 0-1.568-.446-.456-.446-.456-1.536v-3.266h-1.606v-.768h1.606v-1.708Zm9.347 3.996V231h-.994v-3.728q0-.81-.284-1.192-.285-.381-.892-.381-.693 0-1.066.491-.373.492-.373 1.41v3.4h-.989v-8.357h.989v3.244q.263-.516.714-.782t1.069-.266q.918 0 1.372.605.454.604.454 1.828m14.118 3.443q-.413.22-.848.33-.436.11-.924.11-1.542 0-2.393-1.09T49.747 227q0-1.966.856-3.065.857-1.098 2.388-1.098.488 0 .924.11.435.11.848.33v1.112q-.397-.327-.854-.5-.456-.171-.918-.171-1.058 0-1.585.816-.526.817-.526 2.466 0 1.643.526 2.46.527.816 1.585.816.472 0 .926-.172t.846-.5Zm5.007-2.739h-.327q-.865 0-1.303.304-.437.303-.437.905 0 .542.327.843.328.3.908.3.816 0 1.284-.566.467-.567.472-1.566v-.22Zm1.918-.408V231h-.994v-.892q-.317.538-.797.793t-1.168.255q-.919 0-1.467-.519-.548-.518-.548-1.388 0-1.004.674-1.525.675-.521 1.98-.521h1.326v-.156q-.005-.72-.365-1.045t-1.15-.325q-.504 0-1.02.145-.515.145-1.004.425v-.989q.548-.21 1.05-.314t.975-.105q.746 0 1.275.22.53.22.857.661.204.269.29.664.086.394.086 1.184m7.011 3.126q-.398.23-.82.346t-.861.116q-1.397 0-2.184-.838t-.787-2.32.787-2.32q.787-.839 2.184-.839.435 0 .848.113.414.113.833.35v1.036q-.392-.35-.787-.505t-.894-.156q-.93 0-1.43.602-.499.601-.499 1.719 0 1.111.503 1.716.502.604 1.426.604.515 0 .923-.159.409-.158.758-.491Zm6.946-3.422V231h-.994v-3.728q0-.81-.284-1.192-.285-.381-.892-.381-.693 0-1.066.491-.373.492-.373 1.41v3.4h-.989v-8.357h.989v3.244q.263-.516.714-.782t1.069-.266q.918 0 1.372.605.454.604.454 1.828m7.371.226v.483h-4.281v.033q-.043 1.23.47 1.767t1.447.537q.473 0 .989-.15.515-.15 1.1-.457v.983q-.563.23-1.087.346t-1.012.116q-1.402 0-2.192-.84-.79-.841-.79-2.318 0-1.44.774-2.3t2.063-.859q1.149 0 1.812.78.664.778.707 1.879m-.989-.29q-.064-.623-.454-1.077-.389-.454-1.12-.454-.714 0-1.176.473t-.505 1.063Zm4.277-2.218h1.676v1.939h-1.676Zm0 4.055h1.676V231h-1.676Zm15.644-5.075-2.53 4.237h2.53Zm-.177-.989h1.256v5.226h1.07v.88h-1.07V231h-1.08v-1.912h-3.4v-1.026Zm9.234 2.003-2.154 2.88 2.363 3.136h-1.144l-1.761-2.412-1.757 2.412h-1.144l2.363-3.137-2.153-2.879h1.095l1.596 2.176 1.584-2.176Zm9.246-2.003h4.722v.913h-3.631v2.148h3.292v.914h-3.292V231h-1.09Zm9.519 4.995h-.327q-.865 0-1.303.304-.437.303-.437.905 0 .542.327.843.328.3.908.3.816 0 1.284-.566.467-.567.472-1.566v-.22Zm1.918-.408V231h-.994v-.892q-.317.538-.797.793t-1.168.255q-.919 0-1.467-.519-.548-.518-.548-1.388 0-1.004.674-1.525t1.98-.521h1.326v-.156q-.005-.72-.365-1.045t-1.15-.325q-.504 0-1.02.145-.515.145-1.004.425v-.989q.548-.21 1.05-.314t.975-.105q.746 0 1.275.22.53.22.857.661.204.269.29.664.086.394.086 1.184m6.538-2.374v.967q-.424-.247-.854-.371-.43-.123-.875-.123-.672 0-1.002.217-.33.218-.33.663 0 .403.247.602t1.23.387l.397.075q.736.14 1.115.558.378.42.378 1.09 0 .892-.634 1.395-.633.502-1.761.502-.446 0-.935-.094t-1.058-.282v-1.02q.553.284 1.058.426t.956.143q.655 0 1.015-.266t.36-.744q0-.688-1.316-.95l-.043-.012-.37-.075q-.854-.166-1.246-.561t-.392-1.077q0-.865.585-1.335t1.67-.47q.484 0 .93.089.445.089.875.266m5.072-1.918v1.708h2.245v.768h-2.245v3.266q0 .666.252.93.253.262.881.262h1.112v.79h-1.209q-1.111 0-1.568-.446-.456-.446-.456-1.536v-3.266h-1.606v-.768h1.606v-1.708Zm9.718 4.222v.483h-4.281v.033q-.043 1.23.47 1.767t1.447.537q.473 0 .989-.15.515-.15 1.1-.457v.983q-.563.23-1.087.346t-1.012.116q-1.402 0-2.192-.84-.79-.841-.79-2.318 0-1.44.774-2.3t2.063-.859q1.149 0 1.812.78.664.778.707 1.879m-.989-.29q-.064-.623-.454-1.077-.389-.454-1.12-.454-.714 0-1.176.473t-.505 1.063Zm8.177-.983q-.317-.247-.645-.36t-.72-.113q-.923 0-1.412.58t-.489 1.676V231h-.994v-6.016h.994v1.177q.247-.64.76-.98.513-.342 1.217-.342.365 0 .682.092.317.091.607.284Z"/><path d="M177.02 234.32V220.3h.859v14.02Zm1.718 0V220.3h.86v14.02ZM6.893 214.412v-.924h6.837v.924Zm0 1.848v-.924h6.837v.924Zm7-1.848v-.924h6.837v.924Zm0 1.848v-.924h6.837v.924Zm7-1.848v-.924h6.837v.924Zm0 1.848v-.924h6.837v.924Zm7-1.848v-.924h6.837v.924Zm0 1.848v-.924h6.837v.924Zm7-1.848v-.924h6.837v.924Zm0 1.848v-.924h6.837v.924Zm7-1.848v-.924h6.837v.924Zm0 1.848v-.924h6.837v.924Zm7-1.848v-.924h6.837v.924Zm0 1.848v-.924h6.837v.924Zm7-1.848v-.924h6.837v.924Zm0 1.848v-.924h6.837v.924Zm7-1.848v-.924h6.837v.924Zm0 1.848v-.924h6.837v.924Zm7-1.848v-.924h6.837v.924Zm0 1.848v-.924h6.837v.924Zm7-1.848v-.924h6.837v.924Zm0 1.848v-.924h6.837v.924Zm7-1.848v-.924h6.837v.924Zm0 1.848v-.924h6.837v.924Zm7-1.848v-.924h6.837v.924Zm0 1.848v-.924h6.837v.924Zm7-1.848v-.924h6.837v.924Zm0 1.848v-.924h6.837v.924Zm7-1.848v-.924h6.837v.924Zm0 1.848v-.924h6.837v.924Zm7-1.848v-.924h6.837v.924Zm0 1.848v-.924h6.837v.924Zm7-1.848v-.924h6.837v.924Zm0 1.848v-.924h6.837v.924Zm7-1.848v-.924h6.837v.924Zm0 1.848v-.924h6.837v.924Zm7-1.848v-.924h6.837v.924Zm0 1.848v-.924h6.837v.924Zm7-1.848v-.924h6.837v.924Zm0 1.848v-.924h6.837v.924Zm7-1.848v-.924h6.837v.924Zm0 1.848v-.924h6.837v.924Zm7-1.848v-.924h6.837v.924Zm0 1.848v-.924h6.837v.924Zm7-1.848v-.924h6.837v.924Zm0 1.848v-.924h6.837v.924Zm7-1.848v-.924h6.837v.924Zm0 1.848v-.924h6.837v.924Z"/><path d="M178.738 221.32v-6.908h-3.845v-.924h4.705v7.831Zm-1.718 0v-5.06h-2.127v-.924h2.986v5.983Zm-146.141-169v-6.908h3.851v.924h-2.992v5.983Z"/><path d="M30.879 59.336V51.3h.86v7.111h2.991v.924Zm0 109.984v-6.908h3.851v.924h-2.992v5.983Z"/><path d="M30.879 176.336V168.3h.86v7.111h2.991v.924Zm4.014 0v-.924h6.837v.924Zm7 0v-.924h6.837v.924Zm7 0v-.924h6.837v.924Zm7 0v-.924h6.837v.924Zm7 0v-.924h6.837v.924Zm7 0v-.924h6.837v.924Zm7 0v-.924h6.837v.924Zm7 0v-.924h6.837v.924Zm7 0v-.924h6.837v.924Zm7 0v-.924h6.837v.924Zm7 0v-.924h6.837v.924Zm7 0v-.924h6.837v.924Zm7 0v-.924h6.837v.924Zm7 0v-.924h6.837v.924Zm7 0v-.924h6.837v.924Zm7 0v-.924h6.837v.924Zm7 0v-.924h6.837v.924Zm7 0v-.924h6.837v.924Zm7 0v-.924h6.837v.924Zm7 0v-.924h6.837v.924Zm7 0v-.924h6.837v.924Zm7 0v-.924h6.837v.924Zm7 0v-.924h6.837v.924Zm7 0v-.924h2.986v-7.111h.86v8.035Zm-161-13v-.924h6.837v.924Zm7 0v-.924h6.837v.924Zm7 0v-.924h6.837v.924Zm7 0v-.924h6.837v.924Zm8.219-5.355h4.06v.913H65.1v1.971q.231-.086.465-.126.233-.04.47-.04 1.246 0 1.976.736.73.735.73 1.992 0 1.268-.765 1.998t-2.092.73q-.639 0-1.168-.085t-.948-.258v-1.101q.494.268.994.4t1.02.132q.897 0 1.383-.473t.486-1.343q0-.86-.502-1.337-.502-.478-1.399-.478-.435 0-.849.1-.413.099-.79.297Zm7.338 7.111h1.687v-6.058l-2.02.972v-1.042l2.009-.956h1.085v7.084h1.665V166H71.45Zm7.553-.005h3.685V166h-4.872v-.913q1.005-1.058 1.757-1.87.752-.81 1.036-1.143.537-.656.725-1.061.188-.406.188-.83 0-.671-.394-1.053-.395-.381-1.083-.381-.488 0-1.025.177-.538.178-1.14.537v-1.095q.554-.264 1.089-.398t1.055-.134q1.176 0 1.893.626.717.625.717 1.64 0 .516-.239 1.032-.239.515-.776 1.138-.3.35-.873.967-.572.618-1.743 1.848m14.14-6.214v3.013H94.4q.752 0 1.173-.398.422-.397.422-1.112 0-.714-.419-1.109-.419-.394-1.176-.394Zm-1.085-.892H94.4q1.343 0 2.036.61.692.61.692 1.785 0 1.187-.69 1.794t-2.038.607h-1.257V166h-1.085Zm12.146 3.244q-.317-.247-.645-.36t-.72-.113q-.923 0-1.412.58t-.489 1.676V166h-.994v-6.016h.994v1.177q.247-.64.76-.98.513-.342 1.217-.342.365 0 .682.092.317.091.607.284Zm6.812 1.273v.483h-4.281v.033q-.043 1.23.47 1.767t1.447.537q.473 0 .989-.15.515-.15 1.1-.457v.983q-.563.23-1.087.346t-1.012.116q-1.402 0-2.192-.84-.79-.841-.79-2.318 0-1.44.774-2.3t2.063-.859q1.149 0 1.812.78.664.778.707 1.879m-.989-.29q-.064-.623-.454-1.077-.389-.454-1.12-.454-.714 0-1.176.473t-.505 1.063Zm6.581-1.456v-3.11h.989V166h-.989v-.757q-.247.445-.658.68-.41.233-.948.233-1.09 0-1.716-.846t-.625-2.334q0-1.466.628-2.301t1.713-.836q.543 0 .956.234.414.234.65.68m-2.905 2.246q0 1.149.365 1.734.365.586 1.08.586.714 0 1.087-.59.373-.592.373-1.73 0-1.144-.373-1.733-.373-.588-1.088-.588-.714 0-1.08.586-.364.585-.364 1.735m6.994-2.993h2.53v5.226h1.96V166h-4.909v-.768h1.96v-4.458h-1.54Zm1.542-2.337h.988v1.247h-.988Zm9.46 8.025q-.398.23-.82.346t-.861.116q-1.397 0-2.184-.838t-.787-2.32.787-2.32q.787-.839 2.184-.839.435 0 .848.113.414.113.833.35v1.036q-.392-.35-.787-.505t-.894-.156q-.93 0-1.43.602-.499.601-.499 1.719 0 1.111.503 1.716.502.604 1.426.604.515 0 .923-.159.409-.158.758-.491Zm4.599-7.418v1.708h2.245v.768h-2.245v3.266q0 .666.252.93.253.262.881.262h1.112v.79h-1.209q-1.111 0-1.568-.446-.456-.446-.456-1.536v-3.266h-1.606v-.768h1.606v-1.708Zm5.399 1.73h2.53v5.226h1.96V166h-4.909v-.768h1.96v-4.458h-1.54Zm1.542-2.337h.988v1.247h-.988Zm7.07 3.008q-.752 0-1.14.586-.386.585-.386 1.735 0 1.144.387 1.732t1.139.588q.757 0 1.144-.588t.386-1.732q0-1.15-.386-1.735-.387-.586-1.144-.586m0-.838q1.251 0 1.914.811.664.811.664 2.348 0 1.541-.66 2.35-.662.808-1.918.808-1.252 0-1.913-.809-.66-.808-.66-2.35 0-1.536.66-2.347.661-.81 1.913-.81m9.336 2.432V166h-.994v-3.728q0-.81-.284-1.192-.285-.381-.892-.381-.693 0-1.066.491-.373.492-.373 1.41v3.4h-.989v-6.016h.989v.903q.263-.516.714-.782t1.069-.266q.918 0 1.372.605.454.604.454 1.828m6.581-2.078v.967q-.424-.247-.854-.371-.43-.123-.875-.123-.672 0-1.002.217-.33.218-.33.663 0 .403.247.602t1.23.387l.397.075q.736.14 1.115.558.378.42.378 1.09 0 .892-.634 1.395-.633.502-1.761.502-.446 0-.935-.094t-1.058-.282v-1.02q.553.284 1.058.426t.956.143q.655 0 1.015-.266t.36-.744q0-.688-1.316-.95l-.043-.012-.37-.075q-.854-.166-1.246-.561t-.392-1.077q0-.865.585-1.335t1.67-.47q.484 0 .93.089.445.089.875.266m1.667 3.142v-.924h6.837v.924Zm7 0v-.924h6.837v.924Zm7 0v-.924h6.837v.924Zm7 0v-.924h6.837v.924Z"/><path d="M198.879 169.32v-5.984h-2.986v-.924h3.845v6.907Zm-133-78v-6.908h3.851v.924h-2.992v5.983Z"/><path d="M65.879 104.32V90.3h.86v14.02Z"/><path d="M65.879 117.32V103.3h.86v14.02Z"/><path d="M65.879 130.32V116.3h.86v14.02Z"/><path d="M65.879 137.336V129.3h.86v7.111h2.991v.924Zm49.43 16.083-3.277-6.553h6.558Zm-45.416-16.083v-.924h6.837v.924Zm7 0v-.924h6.837v.924Zm7 0v-.924h6.837v.924Zm7 0v-.924h6.837v.924Zm7 0v-.924h6.837v.924Zm7 0v-.924h6.837v.924Zm9.986 5.984v-5.984h-2.986v-.924h6.837v.924h-2.992v5.983Zm4.014-5.984v-.924h6.837v.924Zm7 0v-.924h6.837v.924Zm7 0v-.924h6.837v.924Zm7 0v-.924h6.837v.924Zm7 0v-.924h6.837v.924Zm7 0v-.924h6.837v.924Zm7 0v-.924h6.837v.924Zm7 0v-.924h2.986v-7.111h.86v8.035Zm-61.738-31.355h1.09v7.106h3.873V114h-4.963Zm7 0h1.09v7.106h3.873V114h-4.963Z"/><path d="M170.879 130.32V116.3h.86v14.02Zm-51.686-24.312h1.45l1.386 4.071 1.397-4.071h1.455V114h-1.004v-7.063l-1.429 4.21h-.822l-1.434-4.21V114h-.999Z"/><path d="M170.879 117.32V103.3h.86v14.02Z"/><path d="M170.879 104.32V90.3h.86v14.02ZM69.893 85.336v-.924h6.837v.924Zm7 0v-.924h6.837v.924Zm7 0v-.924h6.837v.924Zm7 0v-.924h6.837v.924Zm7 0v-.924h6.837v.924Zm7 0v-.924h6.837v.924Zm10.416 3.083-3.277-6.553h6.558Zm3.584-3.083v-.924h6.837v.924Zm7 0v-.924h6.837v.924Zm7 0v-.924h6.837v.924Zm7 0v-.924h6.837v.924Zm7 0v-.924h6.837v.924Zm7 0v-.924h6.837v.924Zm7 0v-.924h6.837v.924Z"/><path d="M170.879 91.32v-5.984h-2.986v-.924h3.845v6.907Zm-56-13V64.3h.86v14.02ZM34.893 59.336v-.924h6.837v.924Zm7 0v-.924h6.837v.924Zm7 0v-.924h6.837v.924Zm7 0v-.924h6.837v.924Zm7 0v-.924h6.837v.924Zm7 0v-.924h6.837v.924Zm7 0v-.924h6.837v.924Zm7 0v-.924h6.837v.924Zm7 0v-.924h6.837v.924Zm7 0v-.924h6.837v.924Zm7 0v-.924h6.837v.924Zm7 0v-.924h6.837v.924Zm7 0v-.924h6.837v.924Zm7 0v-.924h6.837v.924Zm7 0v-.924h6.837v.924Zm7 0v-.924h6.837v.924Zm7 0v-.924h6.837v.924Zm7 0v-.924h6.837v.924Zm7 0v-.924h6.837v.924Zm7 0v-.924h6.837v.924Zm7 0v-.924h6.837v.924Zm7 0v-.924h6.837v.924Zm7 0v-.924h6.837v.924Zm7 0v-.924h2.986v-7.111h.86v8.035Zm-161-13v-.924h6.837v.924Zm7 0v-.924h6.837v.924Zm7 0v-.924h6.837v.924Zm7 0v-.924h6.837v.924Zm7 0v-.924h6.837v.924Zm7 0v-.924h6.837v.924Zm8.219-5.355h4.06v.913H79.1v1.971q.231-.086.465-.126.233-.04.47-.04 1.246 0 1.976.736.73.735.73 1.992 0 1.268-.765 1.998t-2.092.73q-.639 0-1.168-.085t-.948-.258v-1.101q.494.268.994.4t1.02.132q.897 0 1.383-.473t.486-1.343q0-.86-.502-1.337-.502-.478-1.399-.478-.435 0-.849.1-.413.099-.79.297Zm7.338 7.111h1.687v-6.058l-2.02.972v-1.042l2.009-.956h1.085v7.084h1.665V49H85.45Zm7.553-.005h3.685V49h-4.872v-.913q1.005-1.058 1.757-1.87.752-.81 1.036-1.143.537-.656.725-1.061.188-.406.188-.83 0-.671-.394-1.053-.395-.381-1.083-.381-.488 0-1.025.177-.538.178-1.14.537v-1.095q.554-.264 1.089-.398t1.055-.134q1.176 0 1.893.626.717.625.717 1.64 0 .516-.239 1.032-.239.515-.776 1.138-.3.35-.873.967-.572.618-1.743 1.848m12.249-7.106h6.118v.913h-2.508V49h-1.09v-7.106h-2.52Zm10.057 2.696q-.752 0-1.14.586-.386.585-.386 1.735 0 1.144.387 1.732t1.139.588q.757 0 1.144-.588t.386-1.732q0-1.15-.386-1.735-.387-.586-1.144-.586m0-.838q1.251 0 1.914.811.664.811.664 2.348 0 1.541-.66 2.35-.662.808-1.918.808-1.252 0-1.913-.809-.66-.808-.66-2.35 0-1.536.66-2.347.661-.81 1.913-.81m4.959-2.197h1.02v4.839l2.594-2.498h1.203l-2.368 2.267 2.74 3.749h-1.21l-2.223-3.104-.736.692V49h-1.02Zm11.748 4.855v.483h-4.281v.033q-.043 1.23.47 1.767t1.447.537q.473 0 .989-.15.515-.15 1.1-.457v.983q-.563.23-1.087.346t-1.012.116q-1.402 0-2.192-.84-.79-.841-.79-2.318 0-1.44.774-2.3t2.063-.859q1.149 0 1.812.78.664.778.707 1.879m-.989-.29q-.064-.623-.454-1.077-.389-.454-1.12-.454-.714 0-1.176.473t-.505 1.063Zm7.618.064V49h-.994v-3.728q0-.81-.284-1.192-.285-.381-.892-.381-.693 0-1.066.491-.373.492-.373 1.41V49h-.989v-6.016h.989v.903q.263-.516.714-.782t1.069-.266q.918 0 1.372.605.454.604.454 1.828m6.581-2.078v.967q-.424-.247-.854-.371-.43-.123-.875-.123-.672 0-1.002.217-.33.218-.33.663 0 .403.247.602t1.23.387l.397.075q.736.14 1.115.558.378.42.378 1.09 0 .892-.634 1.395-.633.502-1.761.502-.446 0-.935-.094t-1.058-.282v-1.02q.553.284 1.058.426t.956.143q.655 0 1.015-.266t.36-.744q0-.688-1.316-.95l-.043-.012-.37-.075q-.854-.166-1.246-.561t-.392-1.077q0-.865.585-1.335t1.67-.47q.484 0 .93.089.445.089.875.266m1.667 3.142v-.924h6.837v.924Zm7 0v-.924h6.837v.924Zm7 0v-.924h6.837v.924Zm7 0v-.924h6.837v.924Zm7 0v-.924h6.837v.924Zm7 0v-.924h6.837v.924Zm7 0v-.924h6.837v.924Z"/><path d="M198.879 52.32v-5.984h-2.986v-.924h3.845v6.907ZM6.893 32.412v-.924h6.837v.924Zm0 1.848v-.924h6.837v.924Zm7-1.848v-.924h6.837v.924Zm0 1.848v-.924h6.837v.924Zm7-1.848v-.924h6.837v.924Zm0 1.848v-.924h6.837v.924Zm7-1.848v-.924h6.837v.924Zm0 1.848v-.924h6.837v.924Zm7-1.848v-.924h6.837v.924Zm0 1.848v-.924h6.837v.924Zm7-1.848v-.924h6.837v.924Zm0 1.848v-.924h6.837v.924Zm7-1.848v-.924h6.837v.924Zm0 1.848v-.924h6.837v.924Zm7-1.848v-.924h6.837v.924Zm0 1.848v-.924h6.837v.924Zm7-1.848v-.924h6.837v.924Zm0 1.848v-.924h6.837v.924Zm7-1.848v-.924h2.127v-6.187h.859v7.111Zm0 1.848v-.924h3.845V25.3h.86v8.959ZM7.102 15.008h1.482l3.137 6.58v-6.58h1.155V23h-1.482l-3.137-6.58V23H7.102Zm10.207 2.669q-.752 0-1.14.586-.386.585-.386 1.735 0 1.144.387 1.732t1.139.588q.757 0 1.144-.588t.386-1.732q0-1.15-.386-1.735-.387-.586-1.144-.586m0-.838q1.251 0 1.914.811.664.811.664 2.348 0 1.541-.66 2.35-.662.808-1.918.808-1.252 0-1.913-.809-.66-.808-.66-2.35 0-1.536.66-2.347.661-.81 1.913-.81m16.454 5.875q-.413.22-.848.33-.436.11-.924.11-1.542 0-2.393-1.09T28.747 19q0-1.966.856-3.065.857-1.098 2.388-1.098.488 0 .924.11.435.11.848.33v1.112q-.397-.327-.854-.5-.456-.171-.918-.171-1.058 0-1.585.816-.526.817-.526 2.466 0 1.643.526 2.46.527.816 1.585.816.472 0 .926-.172t.846-.5Zm5.007-2.739h-.327q-.865 0-1.303.304-.437.303-.437.905 0 .542.327.843.328.3.908.3.816 0 1.284-.566.467-.567.472-1.566v-.22Zm1.918-.408V23h-.994v-.892q-.317.538-.797.793t-1.168.255q-.919 0-1.467-.519-.548-.518-.548-1.388 0-1.004.674-1.525.675-.521 1.98-.521h1.326v-.156q-.005-.72-.365-1.045t-1.15-.325q-.504 0-1.02.145-.515.145-1.004.425v-.989q.548-.21 1.05-.314t.975-.105q.746 0 1.275.22.53.22.857.661.204.269.29.664.086.394.086 1.184m7.011 3.126q-.398.23-.82.346t-.861.116q-1.397 0-2.184-.838t-.787-2.32.787-2.32 2.184-.839q.435 0 .848.113.414.113.833.35v1.036q-.392-.35-.787-.505t-.894-.156q-.93 0-1.43.602-.499.601-.499 1.719 0 1.111.503 1.716.502.604 1.426.604.515 0 .923-.159.409-.158.758-.491Zm6.946-3.422V23h-.994v-3.728q0-.81-.284-1.192-.285-.381-.892-.381-.693 0-1.066.491-.373.492-.373 1.41V23h-.989v-8.357h.989v3.244q.263-.516.714-.782t1.069-.266q.918 0 1.372.605.454.604.454 1.828m7.371.226v.483h-4.281v.033q-.043 1.23.47 1.767t1.447.537q.473 0 .989-.15.515-.15 1.1-.457v.983q-.563.23-1.087.346t-1.012.116q-1.402 0-2.192-.84-.79-.841-.79-2.318 0-1.44.774-2.3t2.063-.859q1.149 0 1.812.78.664.778.707 1.879m-.989-.29q-.064-.623-.454-1.077-.389-.454-1.12-.454-.714 0-1.176.473t-.505 1.063Z"/><path d="M72.02 26.32V12.3h.859v14.02Zm1.718 0V12.3h.86v14.02ZM6.893 6.412v-.924h6.837v.924Zm0 1.848v-.924h6.837v.924Zm7-1.848v-.924h6.837v.924Zm0 1.848v-.924h6.837v.924Zm7-1.848v-.924h6.837v.924Zm0 1.848v-.924h6.837v.924Zm7-1.848v-.924h6.837v.924Zm0 1.848v-.924h6.837v.924Zm7-1.848v-.924h6.837v.924Zm0 1.848v-.924h6.837v.924Zm7-1.848v-.924h6.837v.924Zm0 1.848v-.924h6.837v.924Zm7-1.848v-.924h6.837v.924Zm0 1.848v-.924h6.837v.924Zm7-1.848v-.924h6.837v.924Zm0 1.848v-.924h6.837v.924Zm7-1.848v-.924h6.837v.924Zm0 1.848v-.924h6.837v.924Z"/><path d="M73.738 13.32V6.411h-3.845v-.924h4.705v7.831Zm-1.718 0V8.26h-2.127v-.924h2.986v5.983Z"/></svg>
