<svg xmlns="http://www.w3.org/2000/svg" width="260" height="430" viewBox="0 0 260 430"><style>@media (prefers-color-scheme:dark){path{fill:#f6f6f6}}</style><path d="M2.45 78.32v-7.37h4.28v1.848H4.168v5.521Z"/><path d="M2.45 91.32V77.3h1.718v14.02Z"/><path d="M2.45 104.32V90.3h1.718v14.02Z"/><path d="M2.45 117.32V103.3h1.718v14.02Z"/><path d="M2.45 130.32V116.3h1.718v14.02Z"/><path d="M2.45 137.798V129.3h1.718v6.65H6.73v1.847Zm14.429 18.522V142.3h.86v14.02Z"/><path d="M16.879 163.336V155.3h.86v7.111h2.991v.924Zm0 31.984v-6.908h3.851v.924h-2.992v5.983Z"/><path d="M16.879 208.32V194.3h.86v14.02Z"/><path d="M16.879 221.32V207.3h.86v14.02Z"/><path d="M16.879 234.32V220.3h.86v14.02Z"/><path d="M16.879 241.336V233.3h.86v7.111h2.991v.924Zm0 31.984v-6.908h3.851v.924h-2.992v5.983Zm0 26V285.3h.86v14.02Zm0 20.016V311.3h.86v7.111h2.991v.924Zm-.859 70.984v-7.832h4.71v.924h-3.851v6.907Zm1.718 0v-5.984h2.992v.924h-2.132v5.06Z"/><path d="M16.02 403.32V389.3h.859v14.02Zm1.718 0V389.3h.86v14.02Z"/><path d="M16.02 416.32V402.3h.859v14.02Zm1.718 0V402.3h.86v14.02Z"/><path d="M17.738 422.412v-7.111h.86v6.187h2.132v.924Zm-1.718 1.848v-8.96h.859v8.036h3.851v.924Zm4.873-1.848v-.924h6.837v.924Zm0 1.848v-.924h6.837v.924Zm7-1.848v-.924h6.837v.924Zm0 1.848v-.924h6.837v.924Zm7-1.848v-.924h6.837v.924Zm0 1.848v-.924h6.837v.924Zm7-1.848v-.924h6.837v.924Zm0 1.848v-.924h6.837v.924Zm7-1.848v-.924h6.837v.924Zm0 1.848v-.924h6.837v.924Zm7-1.848v-.924h6.837v.924Zm0 1.848v-.924h6.837v.924Zm7-1.848v-.924h6.837v.924Zm0 1.848v-.924h6.837v.924Zm7-1.848v-.924h6.837v.924Zm0 1.848v-.924h6.837v.924Zm7-1.848v-.924h6.837v.924Zm0 1.848v-.924h6.837v.924Zm7-1.848v-.924h6.837v.924Zm0 1.848v-.924h6.837v.924Zm7-1.848v-.924h6.837v.924Zm0 1.848v-.924h6.837v.924Zm7-1.848v-.924h2.127v-6.187h.859v7.111Zm0 1.848v-.924h3.845V415.3h.86v8.959Zm16.986-.924V415.3h.86v7.111h2.991v.924Zm4.014 0v-.924h6.837v.924Zm7 0v-.924h6.837v.924Zm7 0v-.924h6.837v.924Zm7 0v-.924h6.837v.924Zm7 0v-.924h6.837v.924Zm7 0v-.924h6.837v.924Zm7 0v-.924h6.837v.924Zm7 0v-.924h2.986v-7.111h.86v8.035ZM39.86 395.999q0-1.768-.362-2.525t-1.19-.757q-.821 0-1.184.757-.362.757-.362 2.525 0 1.761.362 2.519.363.757 1.185.757.827 0 1.19-.755.362-.754.362-2.521m1.134 0q0 2.094-.663 3.126-.664 1.03-2.022 1.03-1.36 0-2.02-1.025-.66-1.026-.66-3.131 0-2.1.663-3.132.663-1.031 2.017-1.031 1.358 0 2.022 1.031t.663 3.132m-.232 16.716q-.413.22-.848.33-.436.11-.924.11-1.542 0-2.393-1.09T35.747 409q0-1.966.856-3.065.857-1.098 2.388-1.098.488 0 .924.11.435.11.848.33v1.112q-.397-.327-.854-.5-.456-.171-.918-.171-1.058 0-1.585.816-.526.817-.526 2.466 0 1.643.526 2.46.527.816 1.585.816.472 0 .926-.172t.846-.5Zm4.546-5.038q-.752 0-1.14.586-.386.585-.386 1.735 0 1.144.387 1.732t1.139.588q.757 0 1.144-.588t.386-1.732q0-1.15-.386-1.735-.387-.586-1.144-.586m0-.838q1.251 0 1.914.811.664.811.664 2.348 0 1.541-.66 2.35-.662.808-1.918.808-1.252 0-1.913-.809-.66-.808-.66-2.35 0-1.536.66-2.347.661-.81 1.913-.81m9.336 2.432V413h-.994v-3.728q0-.81-.284-1.192-.285-.381-.892-.381-.693 0-1.066.491-.373.492-.373 1.41v3.4h-.989v-6.016h.989v.903q.263-.516.714-.782t1.069-.266q.918 0 1.372.605.454.604.454 1.828m7.054 3.422q-.398.23-.82.346t-.861.116q-1.397 0-2.184-.838t-.787-2.32.787-2.32 2.184-.839q.435 0 .848.113.414.113.833.35v1.036q-.392-.35-.787-.505t-.894-.156q-.93 0-1.43.602-.499.601-.499 1.719 0 1.111.503 1.716.502.604 1.426.604.515 0 .923-.159.409-.158.758-.491Zm5.071-2.718h-.327q-.865 0-1.303.304-.437.303-.437.905 0 .542.327.843.328.3.908.3.816 0 1.284-.566.467-.567.472-1.566v-.22Zm1.918-.408V413h-.994v-.892q-.317.538-.797.793t-1.168.255q-.919 0-1.467-.519-.548-.518-.548-1.388 0-1.004.674-1.525t1.98-.521h1.326v-.156q-.005-.72-.365-1.045t-1.15-.325q-.504 0-1.02.145-.515.145-1.004.425v-.989q.548-.21 1.05-.314t.975-.105q.746 0 1.275.22.53.22.857.661.204.269.29.664.086.394.086 1.184m4.61-4.292v1.708h2.245v.768h-2.245v3.266q0 .666.252.93.253.262.881.262h1.112v.79h-1.209q-1.111 0-1.568-.446-.456-.446-.456-1.536v-3.266h-1.606v-.768h1.606v-1.708Zm6.635-.295h1.09v3.518l-.113 1.649h-.865l-.112-1.649Zm-.162 6.655h1.413V413h-1.413Z"/><path d="M100.02 416.32V402.3h.859v14.02Zm1.718 0V402.3h.86v14.02Zm13.141 0V402.3h.86v14.02Zm56 0V402.3h.86v14.02ZM47.645 396.272V400h-.994v-3.728q0-.81-.284-1.192-.285-.381-.892-.381-.693 0-1.066.491-.373.492-.373 1.41v3.4h-.989v-6.016h.989v.903q.263-.516.714-.782t1.069-.266q.918 0 1.372.605.454.604.454 1.828m5.217 1.553q0 .666.244 1.004.245.338.723.338h1.154V400h-1.251q-.886 0-1.372-.567-.486-.566-.486-1.608v-5.441h-1.585v-.774h2.573Zm7.746.241q-.247.629-.628 1.655-.532 1.418-.714 1.73-.247.418-.618.628-.37.21-.865.21h-.795v-.828h.586q.435 0 .682-.253.247-.252.628-1.305l-2.325-5.919h1.047l1.783 4.705 1.757-4.705h1.047Zm10.842 1.026h1.687v-6.058l-2.02.972v-1.042l2.009-.956h1.085v7.084h1.665V400H71.45Z"/><path d="M100.02 403.32V389.3h.859v14.02Zm1.718 0V389.3h.86v14.02Zm13.141 0V389.3h.86v14.02Zm8.981-7.321q0-1.768-.362-2.525t-1.19-.757q-.821 0-1.184.757-.362.757-.362 2.525 0 1.761.362 2.519.363.757 1.185.757.827 0 1.19-.755.362-.754.362-2.521m1.134 0q0 2.094-.663 3.126-.664 1.03-2.022 1.03-1.36 0-2.02-1.025-.66-1.026-.66-3.131 0-2.1.663-3.132.663-1.031 2.017-1.031 1.358 0 2.022 1.031t.663 3.132m2.052 1.724v-3.728h.989v3.728q0 .81.287 1.192t.889.381q.698 0 1.069-.491.37-.492.37-1.41v-3.4h.994V400h-.994v-.902q-.263.52-.717.79-.454.268-1.06.268-.924 0-1.375-.604-.452-.605-.452-1.83m9.251-5.446v1.708h2.245v.768h-2.245v3.266q0 .666.252.93.253.262.881.262h1.112v.79h-1.209q-1.111 0-1.568-.446-.456-.446-.456-1.536v-3.266h-1.606v-.768h1.606v-1.708Zm5.716 6.967v3.045h-.993v-8.304h.993v.768q.247-.445.658-.679t.948-.234q1.09 0 1.71.844.621.843.621 2.336 0 1.466-.623 2.302-.623.835-1.708.835-.548 0-.959-.234t-.647-.68m2.9-2.245q0-1.15-.362-1.735-.363-.586-1.077-.586-.72 0-1.09.588-.37.589-.37 1.733 0 1.138.37 1.73.37.59 1.09.59.714 0 1.077-.586.363-.585.363-1.734m3.132.726v-3.728h.989v3.728q0 .81.287 1.192t.889.381q.698 0 1.069-.491.37-.492.37-1.41v-3.4h.994V400h-.994v-.902q-.263.52-.717.79-.454.268-1.06.268-.924 0-1.375-.604-.452-.605-.452-1.83m9.251-5.446v1.708h2.245v.768h-2.245v3.266q0 .666.252.93.253.262.881.262h1.112v.79h-1.209q-1.111 0-1.568-.446-.456-.446-.456-1.536v-3.266h-1.606v-.768h1.606v-1.708Zm13.581 11.044V389.3h.86v14.02ZM20.893 383.412v-.924h6.837v.924Zm0 1.848v-.924h6.837v.924Zm7-1.848v-.924h6.837v.924Zm0 1.848v-.924h6.837v.924Zm7-1.848v-.924h6.837v.924Zm0 1.848v-.924h6.837v.924Zm7-1.848v-.924h6.837v.924Zm0 1.848v-.924h6.837v.924Zm7-1.848v-.924h6.837v.924Zm0 1.848v-.924h6.837v.924Zm7-1.848v-.924h6.837v.924Zm0 1.848v-.924h6.837v.924Zm7-1.848v-.924h6.837v.924Zm0 1.848v-.924h6.837v.924Zm7-1.848v-.924h6.837v.924Zm0 1.848v-.924h6.837v.924Zm7-1.848v-.924h6.837v.924Zm0 1.848v-.924h6.837v.924Zm7-1.848v-.924h6.837v.924Zm0 1.848v-.924h6.837v.924Zm7-1.848v-.924h6.837v.924Zm0 1.848v-.924h6.837v.924Z"/><path d="M101.738 390.32v-6.908h-3.845v-.924h4.705v7.831Zm-1.718 0v-5.06h-2.127v-.924h2.986v5.983Zm14.859 0V376.3h.86v14.02Zm56 0V376.3h.86v14.02Zm-126-57.984V324.3h.86v7.111h2.991v.924ZM58.45 364.32v-7.37h4.28v1.848h-2.562v5.521Z"/><path d="M58.45 377.32V363.3h1.718v14.02Zm56.429 0v-6.908h3.851v.924h-2.992v5.983Zm4.014-5.984v-.924h6.837v.924Zm7 0v-.924h6.837v.924Zm7 0v-.924h6.837v.924Zm7 0v-.924h6.837v.924Zm7 0v-.924h6.837v.924Zm7 0v-.924h6.837v.924Zm7 0v-.924h6.837v.924Zm9.986 5.984v-5.984h-2.986v-.924h3.845v6.907ZM62.893 358.798v-1.848h6.837v1.848Zm7 0v-1.848h6.837v1.848Zm7 0v-1.848h6.837v1.848Zm7 0v-1.848h6.837v1.848Zm7 0v-1.848h6.837v1.848Zm7 0v-1.848h6.837v1.848Zm7 0v-1.848h6.837v1.848Zm7 0v-1.848h6.837v1.848Zm7 0v-1.848h6.837v1.848Zm7 0v-1.848h2.556v-6.65h1.719v8.498Zm17.416 2.621-3.277-6.553h6.558Zm-17.277-13 3.277-6.553 3.281 6.553Zm16.847 2.901V337.3h.86v14.02Zm-93.986-18.984v-.924h6.837v.924Zm7 0v-.924h6.837v.924Zm7 0v-.924h6.837v.924Zm7 0v-.924h6.837v.924Zm7 0v-.924h6.837v.924Zm7 0v-.924h6.837v.924Zm7 0v-.924h6.837v.924Zm7 0v-.924h6.837v.924Zm7 0v-.924h6.837v.924Zm7 0v-.924h2.986v-7.111h.86v7.111h2.991v.924Zm7 0v-.924h6.837v.924Zm12.87 2.379q-.413.22-.848.33-.436.11-.924.11-1.542 0-2.393-1.09t-.851-3.066q0-1.966.856-3.065.857-1.098 2.388-1.098.488 0 .924.11.435.11.848.33v1.112q-.397-.327-.854-.5-.456-.171-.918-.171-1.058 0-1.585.816-.526.817-.526 2.466 0 1.643.526 2.46.527.816 1.585.816.472 0 .926-.172t.846-.5Zm4.546-5.038q-.752 0-1.14.586-.386.585-.386 1.735 0 1.144.387 1.732t1.139.588q.757 0 1.144-.588t.386-1.732q0-1.15-.386-1.735-.387-.586-1.144-.586m0-.838q1.251 0 1.914.811.664.811.664 2.348 0 1.541-.66 2.35-.662.808-1.918.808-1.252 0-1.913-.809-.66-.808-.66-2.35 0-1.536.66-2.347.661-.81 1.913-.81m9.336 2.432V335h-.994v-3.728q0-.81-.284-1.192-.285-.381-.892-.381-.693 0-1.066.491-.373.492-.373 1.41v3.4h-.989v-6.016h.989v.903q.263-.516.714-.782t1.069-.266q.918 0 1.372.605.454.604.454 1.828m7.054 3.422q-.398.23-.82.346t-.861.116q-1.397 0-2.184-.838t-.787-2.32.787-2.32 2.184-.839q.435 0 .848.113.414.113.833.35v1.036q-.392-.35-.787-.505t-.894-.156q-.93 0-1.43.602-.499.601-.499 1.719 0 1.111.503 1.716.502.604 1.426.604.515 0 .923-.159.409-.158.758-.491Zm5.071-2.718h-.327q-.865 0-1.303.304-.437.303-.437.905 0 .542.327.843.328.3.908.3.816 0 1.284-.566.467-.567.472-1.566v-.22Zm1.918-.408V335h-.994v-.892q-.317.538-.797.793t-1.168.255q-.919 0-1.467-.519-.548-.518-.548-1.388 0-1.004.674-1.525t1.98-.521h1.326v-.156q-.005-.72-.365-1.045t-1.15-.325q-.504 0-1.02.145-.515.145-1.004.425v-.989q.548-.21 1.05-.314t.975-.105q.746 0 1.275.22.53.22.857.661.204.269.29.664.086.394.086 1.184m4.61-4.292v1.708h2.245v.768h-2.245v3.266q0 .666.252.93.253.262.881.262h1.112v.79h-1.209q-1.111 0-1.568-.446-.456-.446-.456-1.536v-3.266h-1.606v-.768h1.606v-1.708Zm3.595 5.06v-.924h2.986v-7.111h.86v7.111h2.991v.924Zm7 0v-.924h6.837v.924Zm7 0v-.924h6.837v.924Zm7 0v-.924h6.837v.924Zm7 0v-.924h6.837v.924Zm7 0v-.924h6.837v.924Zm7 0v-.924h6.837v.924Zm7 0v-.924h6.837v.924Zm7 0v-.924h2.986v-7.111h.86v8.035Zm-196-13v-.924h6.837v.924Zm16.986 5.984v-5.984h-2.986v-.924h6.837v.924h-2.992v5.983Zm11.014-5.984v-.924h6.837v.924Zm14 0v-.924h6.837v.924Zm14 0v-.924h6.837v.924Zm14 0v-.924h6.837v.924Z"/><path d="M114.879 325.32v-5.984h-2.986v-.924h6.837v.924h-2.992v5.983Zm11.014-5.984v-.924h6.837v.924Zm14 0v-.924h6.837v.924Zm14 0v-.924h6.837v.924Zm16.986 5.984v-5.984h-2.986v-.924h6.837v.924h-2.992v5.983Zm11.014-5.984v-.924h6.837v.924Zm14 0v-.924h6.837v.924Zm14 0v-.924h6.837v.924Zm16.986 5.984v-5.984h-2.986v-.924h6.837v.924h-2.992v5.983Zm11.014-5.984v-.924h6.837v.924Zm14 0v-.924h2.986v-7.111h.86v8.035ZM33.436 288.255v1.101q-.495-.317-.991-.478-.497-.161-1.002-.161-.768 0-1.214.357t-.446.964q0 .532.293.811.293.28 1.093.467l.57.13q1.127.262 1.643.826.515.564.515 1.537 0 1.144-.709 1.745t-2.062.602q-.564 0-1.133-.121-.57-.12-1.144-.363v-1.154q.617.392 1.168.574.55.183 1.109.183.822 0 1.278-.368t.457-1.029q0-.601-.314-.918-.315-.317-1.093-.489l-.58-.134q-1.118-.253-1.623-.763t-.504-1.37q0-1.074.722-1.72.722-.648 1.92-.648.462 0 .972.105.51.104 1.075.314m4.862.021v1.708h2.245v.768h-2.245v3.266q0 .666.252.93.253.262.881.262h1.112v.79h-1.209q-1.111 0-1.568-.446-.456-.446-.456-1.536v-3.266h-1.606v-.768h1.606v-1.708Zm7.472 4.7h-.327q-.865 0-1.303.304-.437.303-.437.905 0 .542.327.843.328.3.908.3.816 0 1.284-.566.467-.567.472-1.566v-.22Zm1.918-.408V296h-.994v-.892q-.317.538-.797.793t-1.168.255q-.919 0-1.467-.519-.548-.518-.548-1.388 0-1.004.674-1.525.675-.521 1.98-.521h1.326v-.156q-.005-.72-.365-1.045t-1.15-.325q-.504 0-1.02.145-.515.145-1.004.425v-.989q.548-.21 1.05-.314t.975-.105q.746 0 1.275.22.53.22.857.661.204.269.29.664.086.394.086 1.184m4.61-4.292v1.708h2.245v.768h-2.245v3.266q0 .666.252.93.253.262.881.262h1.112v.79h-1.209q-1.111 0-1.568-.446-.456-.446-.456-1.536v-3.266h-1.606v-.768h1.606v-1.708Zm5.399 1.73h2.53v5.226h1.96V296h-4.909v-.768h1.96v-4.458h-1.54Zm1.542-2.337h.988v1.247h-.988Zm8.987 2.525v.967q-.424-.247-.854-.371-.43-.123-.875-.123-.672 0-1.002.217-.33.218-.33.663 0 .403.247.602t1.23.387l.397.075q.736.14 1.115.558.378.42.378 1.09 0 .892-.634 1.395-.633.502-1.761.502-.446 0-.935-.094t-1.058-.282v-1.02q.553.284 1.058.426t.956.143q.655 0 1.015-.266t.36-.744q0-.688-1.316-.95l-.043-.012-.37-.075q-.854-.166-1.246-.561t-.392-1.077q0-.865.585-1.335t1.67-.47q.484 0 .93.089.445.089.875.266m5.072-1.918v1.708h2.245v.768h-2.245v3.266q0 .666.252.93.253.262.881.262h1.112v.79h-1.209q-1.111 0-1.568-.446-.456-.446-.456-1.536v-3.266h-1.606v-.768h1.606v-1.708Zm5.399 1.73h2.53v5.226h1.96V296h-4.909v-.768h1.96v-4.458h-1.54Zm1.542-2.337h.988v1.247h-.988Zm9.46 8.025q-.398.23-.82.346t-.861.116q-1.397 0-2.184-.838t-.787-2.32.787-2.32 2.184-.839q.435 0 .848.113.414.113.833.35v1.036q-.392-.35-.787-.505t-.894-.156q-.93 0-1.43.602-.499.601-.499 1.719 0 1.111.503 1.716.502.604 1.426.604.515 0 .923-.159.409-.158.758-.491Zm6.527-5.5v.967q-.424-.247-.854-.371-.43-.123-.875-.123-.672 0-1.002.217-.33.218-.33.663 0 .403.247.602t1.23.387l.397.075q.736.14 1.115.558.378.42.378 1.09 0 .892-.634 1.395-.633.502-1.761.502-.446 0-.935-.094t-1.058-.282v-1.02q.553.284 1.058.426t.956.143q.655 0 1.015-.266t.36-.744q0-.688-1.316-.95l-.043-.012-.37-.075q-.854-.166-1.246-.561t-.392-1.077q0-.865.585-1.335t1.67-.47q.484 0 .93.089.445.089.875.266m4.148 3.867h1.676v1.423l-1.193 2.315-1.074.006.591-2.32Zm12.781-6.08h1.09v7.106h3.873V296h-4.963Zm9.615 4.995h-.327q-.865 0-1.303.304-.437.303-.437.905 0 .542.327.843.328.3.908.3.816 0 1.284-.566.467-.567.472-1.566v-.22Zm1.918-.408V296h-.994v-.892q-.317.538-.797.793t-1.168.255q-.919 0-1.467-.519-.548-.518-.548-1.388 0-1.004.674-1.525t1.98-.521h1.326v-.156q-.005-.72-.365-1.045t-1.15-.325q-.504 0-1.02.145-.515.145-1.004.425v-.989q.548-.21 1.05-.314t.975-.105q.746 0 1.275.22.53.22.857.661.204.269.29.664.086.394.086 1.184m2.532-2.594h4.366v.902l-3.454 4.318h3.454V296h-4.496v-.913l3.454-4.324h-3.325Zm10.388 4.092q-.247.629-.628 1.655-.532 1.418-.714 1.73-.247.418-.618.628-.37.21-.865.21h-.795v-.828h.586q.435 0 .682-.253.247-.252.628-1.305l-2.325-5.919h1.047l1.783 4.705 1.757-4.705h1.047Zm14.828-5.811v1.101q-.495-.317-.991-.478-.497-.161-1.002-.161-.768 0-1.214.357t-.446.964q0 .532.293.811.293.28 1.093.467l.57.13q1.127.262 1.643.826.515.564.515 1.537 0 1.144-.709 1.745t-2.062.602q-.564 0-1.133-.121-.57-.12-1.144-.363v-1.154q.617.392 1.168.574.55.183 1.109.183.822 0 1.278-.368t.457-1.029q0-.601-.314-.918-.315-.317-1.093-.489l-.58-.134q-1.118-.253-1.623-.763t-.504-1.37q0-1.074.722-1.72.722-.648 1.92-.648.462 0 .972.105.51.104 1.075.314m4.873 2.422q-.752 0-1.14.586-.386.585-.386 1.735 0 1.144.387 1.732t1.139.588q.757 0 1.144-.588t.386-1.732q0-1.15-.386-1.735-.387-.586-1.144-.586m0-.838q1.251 0 1.914.811.664.811.664 2.348 0 1.541-.66 2.35-.662.808-1.918.808-1.252 0-1.913-.809-.66-.808-.66-2.35 0-1.536.66-2.347.661-.81 1.913-.81m9.401-2.197v.821h-1.123q-.532 0-.739.218-.206.217-.206.77v.532h2.067v.768h-2.067V296h-.989v-5.248h-1.606v-.768h1.606v-.419q0-.988.454-1.455t1.415-.467Zm4.588.633v1.708h2.245v.768h-2.245v3.266q0 .666.252.93.253.262.881.262h1.112v.79h-1.209q-1.111 0-1.568-.446-.456-.446-.456-1.536v-3.266h-1.606v-.768h1.606v-1.708Zm7.332 2.321q.183-.387.465-.572.282-.186.68-.186.725 0 1.023.562.298.56.298 2.113V296h-.902v-3.443q0-1.273-.142-1.582-.143-.308-.519-.308-.43 0-.588.33t-.158 1.56V296h-.903v-3.443q0-1.289-.153-1.59-.153-.3-.55-.3-.392 0-.546.33-.153.33-.153 1.56V296h-.897v-6.016h.897v.516q.178-.322.444-.491.265-.17.604-.17.408 0 .68.188.27.188.42.57m7.14 2.379h-.327q-.865 0-1.303.304-.437.303-.437.905 0 .542.327.843.328.3.908.3.816 0 1.284-.566.467-.567.472-1.566v-.22Zm1.918-.408V296h-.994v-.892q-.317.538-.797.793t-1.168.255q-.919 0-1.467-.519-.548-.518-.548-1.388 0-1.004.674-1.525t1.98-.521h1.326v-.156q-.005-.72-.365-1.045t-1.15-.325q-.504 0-1.02.145-.515.145-1.004.425v-.989q.548-.21 1.05-.314t.975-.105q.746 0 1.275.22.53.22.857.661.204.269.29.664.086.394.086 1.184m7.317-2.584-2.154 2.88 2.363 3.136h-1.144l-1.761-2.412-1.757 2.412h-1.144l2.363-3.137-2.153-2.879h1.095l1.596 2.176 1.584-2.176Zm11.765 2.992h-.327q-.865 0-1.303.304-.437.303-.437.905 0 .542.327.843.328.3.908.3.816 0 1.284-.566.467-.567.472-1.566v-.22Zm1.918-.408V296h-.994v-.892q-.317.538-.797.793t-1.168.255q-.919 0-1.467-.519-.548-.518-.548-1.388 0-1.004.674-1.525t1.98-.521h1.326v-.156q-.005-.72-.365-1.045t-1.15-.325q-.504 0-1.02.145-.515.145-1.004.425v-.989q.548-.21 1.05-.314t.975-.105q.746 0 1.275.22.53.22.857.661.204.269.29.664.086.394.086 1.184m6.957-.296V296h-.994v-3.728q0-.81-.284-1.192-.285-.381-.892-.381-.693 0-1.066.491-.373.492-.373 1.41v3.4h-.989v-6.016h.989v.903q.263-.516.714-.782t1.069-.266q.918 0 1.372.605.454.604.454 1.828m5.963-1.52v-3.11h.989V296h-.989v-.757q-.247.445-.658.68-.41.233-.948.233-1.09 0-1.716-.846t-.625-2.334q0-1.466.628-2.301t1.713-.836q.543 0 .956.234.414.234.65.68m-2.905 2.246q0 1.149.365 1.734.365.586 1.08.586.714 0 1.087-.59.373-.592.373-1.73 0-1.144-.373-1.733-.373-.588-1.088-.588-.714 0-1.08.586-.364.585-.364 1.735m18.63-1.677-2.385 1.289 2.385 1.294-.376.656-2.246-1.349v2.503h-.768v-2.503l-2.245 1.349-.376-.656 2.39-1.294-2.39-1.29.376-.66 2.245 1.348v-2.503h.768v2.503l2.246-1.348Zm3.976 3.765 1.885-7.106h1.122L241.97 296h-1.316l-2.347-8.019h1.123Zm13.57 4.233V285.3h.86v14.02ZM27.893 267.336v-.924h6.837v.924Zm14 0v-.924h6.837v.924Zm14 0v-.924h6.837v.924Zm14 0v-.924h6.837v.924Zm14 0v-.924h6.837v.924Zm14 0v-.924h6.837v.924Zm14 0v-.924h6.837v.924Zm14 0v-.924h6.837v.924Zm14 0v-.924h6.837v.924Zm14 0v-.924h6.837v.924Zm14 0v-.924h6.837v.924Zm14 0v-.924h6.837v.924Zm14 0v-.924h6.837v.924Zm14 0v-.924h6.837v.924Zm14 0v-.924h6.837v.924Zm14 0v-.924h6.837v.924Zm16.986 5.984v-5.984h-2.986v-.924h3.845v6.907Zm-209.57-15.901-3.277-6.553h6.558Zm70 0-3.277-6.553h6.558Zm56 0-3.277-6.553h6.558Zm56 0-3.277-6.553h6.558ZM20.893 241.336v-.924h6.837v.924Zm7 0v-.924h6.837v.924Zm7 0v-.924h6.837v.924Zm9.986 5.984v-5.984h-2.986v-.924h6.837v.924h-2.992v5.983Zm4.014-5.984v-.924h6.837v.924Zm7 0v-.924h6.837v.924Zm7 0v-.924h6.837v.924Zm7 0v-.924h2.986v-7.111h.86v8.035Zm16.986 0V233.3h.86v7.111h2.991v.924Zm4.014 0v-.924h6.837v.924Zm7 0v-.924h6.837v.924Zm7 0v-.924h6.837v.924Zm9.986 5.984v-5.984h-2.986v-.924h6.837v.924h-2.992v5.983Zm4.014-5.984v-.924h6.837v.924Zm7 0v-.924h6.837v.924Zm7 0v-.924h6.837v.924Zm7 0v-.924h2.986v-7.111h.86v8.035Zm30.986 5.984V233.3h.86v14.02Zm28-5.984V233.3h.86v7.111h2.991v.924Zm4.014 0v-.924h6.837v.924Zm7 0v-.924h6.837v.924Zm7 0v-.924h6.837v.924Zm9.986 5.984v-5.984h-2.986v-.924h6.837v.924h-2.992v5.983Zm4.014-5.984v-.924h6.837v.924Zm7 0v-.924h6.837v.924Zm7 0v-.924h6.837v.924Zm7 0v-.924h2.986v-7.111h.86v8.035ZM31.518 218.145q-.038 0-.107.005-.07.006-.113.006-1.343 0-2.006-1.031-.664-1.032-.664-3.126 0-2.1.664-3.132.663-1.031 2.017-1.031 1.358 0 2.022 1.031t.663 3.132q0 1.579-.368 2.543t-1.114 1.35l1.074 1.021-.811.537Zm1.343-4.146q0-1.768-.363-2.525-.362-.757-1.19-.757-.821 0-1.184.757-.362.757-.362 2.525 0 1.761.362 2.519.363.757 1.185.757.827 0 1.19-.755.362-.754.362-2.521"/><path d="M72.879 234.32V220.3h.86v14.02Zm14 0V220.3h.86v14.02Zm56 0V220.3h.86v14.02Zm56 0V220.3h.86v14.02Zm56 0V220.3h.86v14.02ZM41.333 213.322l-2.385 1.289 2.385 1.294-.376.656-2.246-1.349v2.503h-.768v-2.503l-2.245 1.349-.376-.656 2.39-1.294-2.39-1.29.376-.66 2.245 1.348v-2.503h.768v2.503l2.246-1.348Zm1.403-3.341h1.09v3.566l3.39-3.566h1.272l-3.12 3.276L48.58 218h-1.311l-2.616-4.018-.827.881V218h-1.09Zm7.714 7.111h1.687v-6.058l-2.02.972v-1.042l2.009-.956h1.085v7.084h1.665V218H50.45Z"/><path d="M72.879 221.32V207.3h.86v14.02Zm14 0V207.3h.86v14.02Zm14.639-3.175q-.038 0-.107.005-.07.006-.113.006-1.343 0-2.006-1.031-.664-1.032-.664-3.126 0-2.1.664-3.132.663-1.031 2.017-1.031 1.358 0 2.022 1.031t.663 3.132q0 1.579-.368 2.543t-1.114 1.35l1.074 1.021-.811.537Zm1.343-4.146q0-1.768-.363-2.525-.362-.757-1.19-.757-.821 0-1.184.757-.362.757-.362 2.525 0 1.761.362 2.519.363.757 1.185.757.827 0 1.19-.755.362-.754.362-2.521m8.472-.677-2.385 1.289 2.385 1.294-.376.656-2.246-1.349v2.503h-.768v-2.503l-2.245 1.349-.376-.656 2.39-1.294-2.39-1.29.376-.66 2.245 1.348v-2.503h.768v2.503l2.246-1.348Zm1.403-3.341h1.09v3.566l3.39-3.566h1.272l-3.12 3.276L118.58 218h-1.311l-2.616-4.018-.827.881V218h-1.09Zm8.267 7.106h3.685V218h-4.872v-.913q1.005-1.058 1.757-1.87.752-.81 1.036-1.143.537-.656.725-1.061.188-.406.188-.83 0-.671-.394-1.053-.395-.381-1.083-.381-.488 0-1.025.177-.538.178-1.14.537v-1.095q.554-.264 1.089-.398t1.055-.134q1.176 0 1.893.626.717.625.717 1.64 0 .516-.239 1.032-.239.515-.776 1.138-.3.35-.873.967-.572.618-1.743 1.848m21.876 4.233V207.3h.86v14.02Zm20.211-5.49h1.89V218h-1.89Zm7 0h1.89V218h-1.89Zm7 0h1.89V218h-1.89Zm21.789 5.49V207.3h.86v14.02Zm7.639-3.175q-.038 0-.107.005-.07.006-.113.006-1.343 0-2.006-1.031-.664-1.032-.664-3.126 0-2.1.664-3.132.663-1.031 2.017-1.031 1.358 0 2.022 1.031t.663 3.132q0 1.579-.368 2.543t-1.114 1.35l1.074 1.021-.811.537Zm1.343-4.146q0-1.768-.363-2.525-.362-.757-1.19-.757-.821 0-1.184.757-.362.757-.362 2.525 0 1.761.362 2.519.363.757 1.185.757.827 0 1.19-.755.362-.754.362-2.521m8.472-.677-2.385 1.289 2.385 1.294-.376.656-2.246-1.349v2.503h-.768v-2.503l-2.245 1.349-.376-.656 2.39-1.294-2.39-1.29.376-.66 2.245 1.348v-2.503h.768v2.503l2.246-1.348Zm.769-3.314h1.482l3.137 6.58v-6.58h1.155V218h-1.482l-3.137-6.58V218h-1.155Zm12.914 4.49v.483h-4.281v.033q-.043 1.23.47 1.767t1.447.537q.473 0 .989-.15.515-.15 1.1-.457v.983q-.563.23-1.087.346t-1.012.116q-1.402 0-2.192-.84-.79-.841-.79-2.318 0-1.44.774-2.3t2.063-.859q1.149 0 1.812.78.664.778.707 1.879m-.989-.29q-.064-.623-.454-1.077-.389-.454-1.12-.454-.714 0-1.176.473t-.505 1.063Zm1.973-2.224h.978l1.047 4.861.86-3.104h.843l.87 3.104 1.047-4.86h.978L236.215 218h-.945l-.961-3.298-.956 3.298h-.946Zm7.736-2.003h1.09v3.566l3.39-3.566h1.272l-3.12 3.276L244.58 218h-1.311l-2.616-4.018-.827.881V218h-1.09Zm16.143 11.339V207.3h.86v14.02Z"/><path d="M72.879 208.32V194.3h.86v14.02Zm14 0V194.3h.86v14.02Zm56 0V194.3h.86v14.02Zm22.289-7.612q.79.21 1.208.744.42.535.42 1.335 0 1.107-.744 1.738-.744.63-2.06.63-.554 0-1.128-.101-.575-.102-1.128-.296v-1.08q.548.285 1.08.425.531.14 1.058.14.891 0 1.37-.403.477-.403.477-1.16 0-.699-.478-1.11-.478-.41-1.294-.41h-.827v-.892h.827q.746 0 1.165-.328.42-.327.42-.913 0-.617-.39-.948t-1.11-.33q-.477 0-.988.107-.51.108-1.068.323v-1q.65-.171 1.157-.257.508-.086.9-.086 1.17 0 1.871.588t.701 1.56q0 .661-.367 1.101-.368.44-1.072.623m3.38.403h5.693v.908h-5.693Zm7.199-4.13h5.048v.462L177.927 205h-1.133l2.793-7.106h-3.84Zm23.132 11.339V194.3h.86v14.02Zm56 0V194.3h.86v14.02ZM20.893 189.336v-.924h6.837v.924Zm7 0v-.924h6.837v.924Zm7 0v-.924h6.837v.924Zm7 0v-.924h6.837v.924Zm7 0v-.924h6.837v.924Zm7 0v-.924h6.837v.924Zm7 0v-.924h6.837v.924Z"/><path d="M72.879 195.32v-5.984h-2.986v-.924h3.845v6.907Zm14 0v-6.908h3.851v.924h-2.992v5.983Zm4.014-5.984v-.924h6.837v.924Zm7 0v-.924h6.837v.924Zm7 0v-.924h6.837v.924Zm7 0v-.924h6.837v.924Zm7 0v-.924h6.837v.924Zm7 0v-.924h6.837v.924Zm7 0v-.924h6.837v.924Zm9.986 5.984v-5.984h-2.986v-.924h3.845v6.907Zm56 0v-6.908h3.851v.924h-2.992v5.983Zm4.014-5.984v-.924h6.837v.924Zm7 0v-.924h6.837v.924Zm7 0v-.924h6.837v.924Zm7 0v-.924h6.837v.924Zm7 0v-.924h6.837v.924Zm7 0v-.924h6.837v.924Zm7 0v-.924h6.837v.924Zm9.986 5.984v-5.984h-2.986v-.924h3.845v6.907Zm-209.57-15.901-3.277-6.553h6.558Zm70 0-3.277-6.553h6.558Zm56 0-3.277-6.553h6.558Zm56 0-3.277-6.553h6.558ZM20.893 163.336v-.924h6.837v.924Zm7 0v-.924h6.837v.924Zm7 0v-.924h6.837v.924Zm9.986 5.984v-5.984h-2.986v-.924h6.837v.924h-2.992v5.983Zm4.014-5.984v-.924h6.837v.924Zm7 0v-.924h6.837v.924Zm7 0v-.924h6.837v.924Zm7 0v-.924h2.986v-7.111h.86v8.035Zm16.986 0V155.3h.86v7.111h2.991v.924Zm4.014 0v-.924h6.837v.924Zm7 0v-.924h6.837v.924Zm7 0v-.924h6.837v.924Zm9.986 5.984v-5.984h-2.986v-.924h6.837v.924h-2.992v5.983Zm4.014-5.984v-.924h6.837v.924Zm7 0v-.924h6.837v.924Zm7 0v-.924h6.837v.924Zm7 0v-.924h2.986v-7.111h.86v8.035Zm30.986 5.984V155.3h.86v14.02Zm28-5.984V155.3h.86v7.111h2.991v.924Zm4.014 0v-.924h6.837v.924Zm7 0v-.924h6.837v.924Zm7 0v-.924h6.837v.924Zm9.986 5.984v-5.984h-2.986v-.924h6.837v.924h-2.992v5.983Zm4.014-5.984v-.924h6.837v.924Zm7 0v-.924h6.837v.924Zm7 0v-.924h6.837v.924Zm7 0v-.924h2.986v-7.111h.86v8.035Z"/><path d="M72.879 156.32V142.3h.86v14.02Zm14 0V142.3h.86v14.02Zm56 0V142.3h.86v14.02Zm56 0V142.3h.86v14.02Zm56 0V142.3h.86v14.02ZM7.032 140.419v-6.553l6.558 3.277Zm9.847 2.901V129.3h.86v14.02Zm9.884-3.605q-.413.22-.848.33-.436.11-.924.11-1.542 0-2.393-1.09T21.747 136q0-1.966.856-3.065.857-1.098 2.388-1.098.488 0 .924.11.435.11.848.33v1.112q-.397-.327-.854-.5-.456-.171-.918-.171-1.058 0-1.585.816-.526.817-.526 2.466 0 1.643.526 2.46.527.816 1.585.816.472 0 .926-.172t.846-.5Zm6.882-3.443V140h-.994v-3.728q0-.81-.284-1.192-.285-.381-.892-.381-.693 0-1.066.491-.373.492-.373 1.41v3.4h-.989v-8.357h.989v3.244q.263-.516.714-.782t1.069-.266q.918 0 1.372.605.454.604.454 1.828m2.402 1.451v-3.728h.989v3.728q0 .81.287 1.192t.889.381q.698 0 1.069-.491.37-.492.37-1.41v-3.4h.994V140h-.994v-.902q-.263.52-.717.79-.454.268-1.06.268-.924 0-1.375-.604-.452-.605-.452-1.83m11.598-1.45V140h-.994v-3.728q0-.81-.284-1.192-.285-.381-.892-.381-.693 0-1.066.491-.373.492-.373 1.41v3.4h-.989v-6.016h.989v.903q.263-.516.714-.782t1.069-.266q.918 0 1.372.605.454.604.454 1.828m2.623-4.629h1.02v4.839l2.594-2.498h1.203l-2.368 2.267 2.74 3.749h-1.21l-2.223-3.104-.736.692V140h-1.02Zm14.182 7.449h1.687v-6.058l-2.02.972v-1.042l2.009-.956h1.085v7.084h1.665V140H64.45Z"/><path d="M72.879 143.32V129.3h.86v14.02Zm14 0V129.3h.86v14.02Zm9.884-3.605q-.413.22-.848.33-.436.11-.924.11-1.542 0-2.393-1.09T91.747 136q0-1.966.856-3.065.857-1.098 2.388-1.098.488 0 .924.11.435.11.848.33v1.112q-.397-.327-.854-.5-.456-.171-.918-.171-1.058 0-1.585.816-.526.817-.526 2.466 0 1.643.526 2.46.527.816 1.585.816.472 0 .926-.172t.846-.5Zm6.882-3.443V140h-.994v-3.728q0-.81-.284-1.192-.285-.381-.892-.381-.693 0-1.066.491-.373.492-.373 1.41v3.4h-.989v-8.357h.989v3.244q.263-.516.714-.782t1.069-.266q.918 0 1.372.605.454.604.454 1.828m2.402 1.451v-3.728h.989v3.728q0 .81.287 1.192t.889.381q.698 0 1.069-.491.37-.492.37-1.41v-3.4h.994V140h-.994v-.902q-.263.52-.717.79-.454.268-1.06.268-.924 0-1.375-.604-.452-.605-.452-1.83m11.598-1.45V140h-.994v-3.728q0-.81-.284-1.192-.285-.381-.892-.381-.693 0-1.066.491-.373.492-.373 1.41v3.4h-.989v-6.016h.989v.903q.263-.516.714-.782t1.069-.266q.918 0 1.372.605.454.604.454 1.828m2.623-4.629h1.02v4.839l2.594-2.498h1.203l-2.368 2.267 2.74 3.749h-1.21l-2.223-3.104-.736.692V140h-1.02Zm14.735 7.444h3.685V140h-4.872v-.913q1.005-1.058 1.757-1.87.752-.81 1.036-1.143.537-.656.725-1.061.188-.406.188-.83 0-.671-.394-1.053-.395-.381-1.083-.381-.488 0-1.025.177-.538.178-1.14.537v-1.095q.554-.264 1.089-.398t1.055-.134q1.176 0 1.893.626.717.625.717 1.64 0 .516-.239 1.032-.239.515-.776 1.138-.3.35-.873.967-.572.618-1.743 1.848m7.876 4.233V129.3h.86v14.02Zm20.211-5.49h1.89V140h-1.89Zm7 0h1.89V140h-1.89Zm7 0h1.89V140h-1.89Zm21.789 5.49V129.3h.86v14.02Zm11.223-11.312h1.482l3.137 6.58v-6.58h1.155V140h-1.482l-3.137-6.58V140h-1.155Zm12.914 4.49v.483h-4.281v.033q-.043 1.23.47 1.767t1.447.537q.473 0 .989-.15.515-.15 1.1-.457v.983q-.563.23-1.087.346t-1.012.116q-1.402 0-2.192-.84-.79-.841-.79-2.318 0-1.44.774-2.3t2.063-.859q1.149 0 1.812.78.664.778.707 1.879m-.989-.29q-.064-.623-.454-1.077-.389-.454-1.12-.454-.714 0-1.176.473t-.505 1.063Zm1.973-2.224h.978l1.047 4.861.86-3.104h.843l.87 3.104 1.047-4.86h.978L229.215 140h-.945l-.961-3.298-.956 3.298h-.946Zm14.736-2.003h1.09v3.566l3.39-3.566h1.272l-3.12 3.276L244.58 140h-1.311l-2.616-4.018-.827.881V140h-1.09Zm16.143 11.339V129.3h.86v14.02Zm-238-26v-6.908h3.851v.924h-2.992v5.983Z"/><path d="M16.879 130.32V116.3h.86v14.02Zm25.857-11.339h1.09v3.566l3.39-3.566h1.272l-3.12 3.276L48.58 127h-1.311l-2.616-4.018-.827.881V127h-1.09Zm30.143 11.339V116.3h.86v14.02Zm14 0V116.3h.86v14.02Zm25.857-11.339h1.09v3.566l3.39-3.566h1.272l-3.12 3.276L118.58 127h-1.311l-2.616-4.018-.827.881V127h-1.09Zm30.143 11.339V116.3h.86v14.02Zm22.289-7.612q.79.21 1.208.744.42.535.42 1.335 0 1.107-.744 1.738-.744.63-2.06.63-.554 0-1.128-.101-.575-.102-1.128-.296v-1.08q.548.285 1.08.425.531.14 1.058.14.891 0 1.37-.403.477-.403.477-1.16 0-.699-.478-1.11-.478-.41-1.294-.41h-.827v-.892h.827q.746 0 1.165-.328.42-.327.42-.913 0-.617-.39-.948t-1.11-.33q-.477 0-.988.107-.51.108-1.068.323v-1q.65-.171 1.157-.257.508-.086.9-.086 1.17 0 1.871.588t.701 1.56q0 .661-.367 1.101-.368.44-1.072.623m3.38.403h5.693v.908h-5.693Zm7.199-4.13h5.048v.462L177.927 127h-1.133l2.793-7.106h-3.84Zm23.132 11.339V116.3h.86v14.02Zm56 0V116.3h.86v14.02ZM20.893 111.336v-.924h6.837v.924Zm7 0v-.924h6.837v.924Zm7 0v-.924h6.837v.924Zm7 0v-.924h6.837v.924Zm7 0v-.924h6.837v.924Zm7 0v-.924h6.837v.924Zm7 0v-.924h6.837v.924Z"/><path d="M72.879 117.32v-5.984h-2.986v-.924h3.845v6.907Zm14 0v-6.908h3.851v.924h-2.992v5.983Zm4.014-5.984v-.924h6.837v.924Zm7 0v-.924h6.837v.924Zm7 0v-.924h6.837v.924Zm7 0v-.924h6.837v.924Zm7 0v-.924h6.837v.924Zm7 0v-.924h6.837v.924Zm7 0v-.924h6.837v.924Zm9.986 5.984v-5.984h-2.986v-.924h3.845v6.907Zm56 0v-6.908h3.851v.924h-2.992v5.983Zm4.014-5.984v-.924h6.837v.924Zm7 0v-.924h6.837v.924Zm7 0v-.924h6.837v.924Zm7 0v-.924h6.837v.924Zm7 0v-.924h6.837v.924Zm7 0v-.924h6.837v.924Zm7 0v-.924h6.837v.924Zm9.986 5.984v-5.984h-2.986v-.924h3.845v6.907Zm-210-26v-6.908h3.851v.924h-2.992v5.983Zm.43 10.099-3.277-6.553h6.558Zm70 0-3.277-6.553h6.558Zm56 0-3.277-6.553h6.558Zm56 0-3.277-6.553h6.558ZM48.893 85.336v-.924h6.837v.924Zm7 0v-.924h6.837v.924Zm7 0v-.924h6.837v.924Zm7 0v-.924h6.837v.924Zm7 0v-.924h6.837v.924Zm7 0v-.924h6.837v.924Zm7 0v-.924h6.837v.924Zm7 0v-.924h6.837v.924Zm7 0v-.924h6.837v.924Zm9.986 5.984v-5.984h-2.986v-.924h6.837v.924h-2.992v5.983Zm4.014-5.984v-.924h6.837v.924Zm7 0v-.924h6.837v.924Zm7 0v-.924h6.837v.924Zm7 0v-.924h2.986v-7.111h.86v7.111h2.991v.924Zm7 0v-.924h6.837v.924Zm7 0v-.924h6.837v.924Zm7 0v-.924h6.837v.924Zm9.986 5.984v-5.984h-2.986v-.924h6.837v.924h-2.992v5.983Zm4.014-5.984v-.924h6.837v.924Zm7 0v-.924h6.837v.924Zm7 0v-.924h6.837v.924Zm7 0v-.924h6.837v.924Zm7 0v-.924h6.837v.924Zm7 0v-.924h6.837v.924Zm7 0v-.924h6.837v.924Zm9.986 5.984v-5.984h-2.986v-.924h3.845v6.907ZM6.893 72.798V70.95h6.837v1.848Zm7 0V70.95h6.837v1.848Zm7 0V70.95h6.837v1.848Zm7 0V70.95h6.837v1.848Zm7 0V70.95h6.837v1.848Zm7 0V70.95h6.837v1.848Zm7 0V70.95h6.837v1.848Zm7 0V70.95h2.556V64.3h1.719v8.498Zm49.3-5.79h1.45l1.386 4.071 1.397-4.071h1.455V75h-1.004v-7.063l-1.429 4.21h-.822l-1.434-4.21V75h-.999Zm7.854 5.715v-3.728h.989v3.728q0 .81.287 1.192t.889.381q.698 0 1.069-.491.37-.492.37-1.41v-3.4h.994V75h-.994v-.902q-.263.52-.717.79-.454.268-1.06.268-.924 0-1.375-.604-.452-.605-.452-1.83m9.815.103q0 .666.244 1.004.245.338.723.338h1.154V75h-1.251q-.886 0-1.372-.567-.486-.566-.486-1.608v-5.441h-1.585v-.774h2.573Zm6.436-5.549v1.708h2.245v.768h-2.245v3.266q0 .666.252.93.253.262.881.262h1.112V75h-1.209q-1.111 0-1.568-.446-.456-.446-.456-1.536v-3.266h-1.606v-.768h1.606v-1.708Zm5.399 1.73h2.53v5.226h1.96V75h-4.909v-.768h1.96v-4.458h-1.54Zm1.542-2.337h.988v1.247h-.988Zm5.775 7.574v3.045h-.993v-8.304h.993v.768q.247-.445.658-.679t.948-.234q1.09 0 1.71.844.621.843.621 2.336 0 1.466-.623 2.302-.623.835-1.708.835-.548 0-.959-.234t-.647-.68m2.9-2.245q0-1.15-.362-1.735-.363-.586-1.077-.586-.72 0-1.09.588-.37.589-.37 1.733 0 1.138.37 1.73.37.59 1.09.59.714 0 1.077-.586.363-.585.363-1.734m5.947.828q0 .666.244 1.004.245.338.723.338h1.154V75h-1.251q-.886 0-1.372-.567-.486-.566-.486-1.608v-5.441h-1.585v-.774h2.573Zm7.746.241q-.247.629-.628 1.655-.532 1.418-.714 1.73-.247.418-.618.628-.37.21-.865.21h-.795v-.828h.586q.435 0 .682-.253.247-.252.628-1.305l-2.325-5.919h1.047l1.783 4.705 1.757-4.705h1.047Zm12.701-1.874q-.726 0-1.12.405-.395.406-.395 1.147t.4 1.152 1.115.411q.73 0 1.125-.405.395-.406.395-1.158 0-.736-.4-1.144t-1.12-.408m-.946-.451q-.693-.178-1.082-.66-.39-.484-.39-1.166 0-.957.65-1.518t1.768-.561q1.122 0 1.772.561t.65 1.518q0 .682-.39 1.165-.389.483-1.082.66.806.178 1.233.715t.427 1.391q0 1.085-.693 1.697t-1.917.613-1.915-.61-.69-1.69q0-.858.427-1.398t1.232-.717m-.392-1.724q0 .644.344.983t.994.338q.655 0 .999-.338.343-.339.343-.983 0-.656-.34-1-.342-.343-1.002-.343-.65 0-.994.346-.344.347-.344.997m11.034-.033-2.154 2.88L181.214 75h-1.144l-1.761-2.412L176.552 75h-1.144l2.363-3.137-2.153-2.879h1.095l1.596 2.176 1.584-2.176ZM16.02 13.32V5.487h4.71v.924h-3.851v6.907Zm1.718 0V7.335h2.992v.924h-2.132v5.06Z"/><path d="M16.02 26.32V12.3h.859v14.02Zm1.718 0V12.3h.86v14.02Z"/><path d="M16.02 39.32V25.3h.859v14.02Zm1.718 0V25.3h.86v14.02Z"/><path d="M17.738 45.412v-7.111h.86v6.187h2.132v.924ZM16.02 47.26V38.3h.859v8.036h3.851v.924Zm42.43 18.06V51.3h1.718v14.02Zm56.429-5.984V51.3h.86v7.111h2.991v.924Zm4.014 0v-.924h6.837v.924Zm7 0v-.924h6.837v.924Zm7 0v-.924h6.837v.924Zm7 0v-.924h6.837v.924Zm7 0v-.924h6.837v.924Zm7 0v-.924h6.837v.924Zm7 0v-.924h6.837v.924Zm7 0v-.924h2.986v-7.111h.86v8.035Zm-147-13.924v-.924h6.837v.924Zm0 1.848v-.924h6.837v.924Zm7-1.848v-.924h6.837v.924Zm0 1.848v-.924h6.837v.924Zm7-1.848v-.924h6.837v.924Zm0 1.848v-.924h6.837v.924Zm7-1.848v-.924h6.837v.924Zm0 1.848v-.924h6.837v.924Zm7-1.848v-.924h6.837v.924Zm0 1.848v-.924h6.837v.924Zm7-1.848v-.924h6.837v.924Zm0 1.848v-.924h6.837v.924Zm7-1.848v-.924h6.837v.924Zm0 1.848v-.924h6.837v.924Zm7-1.848v-.924h6.837v.924Zm0 1.848v-.924h6.837v.924Zm7-1.848v-.924h6.837v.924Zm0 1.848v-.924h6.837v.924Zm7-1.848v-.924h6.837v.924Zm0 1.848v-.924h6.837v.924Zm7-1.848v-.924h6.837v.924Zm0 1.848v-.924h6.837v.924Zm7-1.848v-.924h2.127v-6.187h.859v7.111Zm0 1.848v-.924h3.845V38.3h.86v8.959Z"/><path d="M114.879 52.32V38.3h.86v14.02Zm56 0V38.3h.86v14.02ZM28.102 15.008h1.482l3.137 6.58v-6.58h1.155V23h-1.482l-3.137-6.58V23h-1.155Zm12.661 20.707q-.413.22-.848.33-.436.11-.924.11-1.542 0-2.393-1.09T35.747 32q0-1.966.856-3.065.857-1.098 2.388-1.098.488 0 .924.11.435.11.848.33v1.112q-.397-.327-.854-.5-.456-.171-.918-.171-1.058 0-1.585.816-.526.817-.526 2.466 0 1.643.526 2.46.527.816 1.585.816.472 0 .926-.172t.846-.5Zm4.546-5.038q-.752 0-1.14.586-.386.585-.386 1.735 0 1.144.387 1.732t1.139.588q.757 0 1.144-.588t.386-1.732q0-1.15-.386-1.735-.387-.586-1.144-.586m0-.838q1.251 0 1.914.811.664.811.664 2.348 0 1.541-.66 2.35-.662.808-1.918.808-1.252 0-1.913-.809-.66-.808-.66-2.35 0-1.536.66-2.347.661-.81 1.913-.81m9.336 2.432V36h-.994v-3.728q0-.81-.284-1.192-.285-.381-.892-.381-.693 0-1.066.491-.373.492-.373 1.41V36h-.989v-6.016h.989v.903q.263-.516.714-.782t1.069-.266q.918 0 1.372.605.454.604.454 1.828m7.054 3.422q-.398.23-.82.346t-.861.116q-1.397 0-2.184-.838t-.787-2.32.787-2.32 2.184-.839q.435 0 .848.113.414.113.833.35v1.036q-.392-.35-.787-.505t-.894-.156q-.93 0-1.43.602-.499.601-.499 1.719 0 1.111.503 1.716.502.604 1.426.604.515 0 .923-.159.409-.158.758-.491Zm5.071-2.718h-.327q-.865 0-1.303.304-.437.303-.437.905 0 .542.327.843.328.3.908.3.816 0 1.284-.566.467-.567.472-1.566v-.22Zm1.918-.408V36h-.994v-.892q-.317.538-.797.793t-1.168.255q-.919 0-1.467-.519-.548-.518-.548-1.388 0-1.004.674-1.525t1.98-.521h1.326v-.156q-.005-.72-.365-1.045t-1.15-.325q-.504 0-1.02.145-.515.145-1.004.425v-.989q.548-.21 1.05-.314t.975-.105q.746 0 1.275.22.53.22.857.661.204.269.29.664.086.394.086 1.184m4.61-4.292v1.708h2.245v.768h-2.245v3.266q0 .666.252.93.253.262.881.262h1.112V36h-1.209q-1.111 0-1.568-.446-.456-.446-.456-1.536v-3.266h-1.606v-.768h1.606v-1.708Zm6.635-.295h1.09v3.518l-.113 1.649h-.865l-.112-1.649Zm-.162 6.655h1.413V36h-1.413Zm20.249 4.684V25.3h.859v14.02Zm1.718 0V25.3h.86v14.02Z"/><path d="M114.879 39.32V25.3h.86v14.02Zm28.639-3.175q-.038 0-.107.005-.07.006-.113.006-1.343 0-2.006-1.031-.664-1.032-.664-3.126 0-2.1.664-3.132.663-1.031 2.017-1.031 1.358 0 2.022 1.031t.663 3.132q0 1.579-.368 2.543t-1.114 1.35l1.074 1.021-.811.537Zm1.343-4.146q0-1.768-.363-2.525-.362-.757-1.19-.757-.821 0-1.184.757-.362.757-.362 2.525 0 1.761.362 2.519.363.757 1.185.757.827 0 1.19-.755.362-.754.362-2.521m26.018 7.321V25.3h.86v14.02ZM38.309 17.677q-.752 0-1.14.586-.386.585-.386 1.735 0 1.144.387 1.732t1.139.588q.757 0 1.144-.588t.386-1.732q0-1.15-.386-1.735-.387-.586-1.144-.586m0-.838q1.251 0 1.914.811.664.811.664 2.348 0 1.541-.66 2.35-.662.808-1.918.808-1.252 0-1.913-.809-.66-.808-.66-2.35 0-1.536.66-2.347.661-.81 1.913-.81m16.454 5.875q-.413.22-.848.33-.436.11-.924.11-1.542 0-2.393-1.09T49.747 19q0-1.966.856-3.065.857-1.098 2.388-1.098.488 0 .924.11.435.11.848.33v1.112q-.397-.327-.854-.5-.456-.171-.918-.171-1.058 0-1.585.816-.526.817-.526 2.466 0 1.643.526 2.46.527.816 1.585.816.472 0 .926-.172t.846-.5Zm5.007-2.739h-.327q-.865 0-1.303.304-.437.303-.437.905 0 .542.327.843.328.3.908.3.816 0 1.284-.566.467-.567.472-1.566v-.22Zm1.918-.408V23h-.994v-.892q-.317.538-.797.793t-1.168.255q-.919 0-1.467-.519-.548-.518-.548-1.388 0-1.004.674-1.525.675-.521 1.98-.521h1.326v-.156q-.005-.72-.365-1.045t-1.15-.325q-.504 0-1.02.145-.515.145-1.004.425v-.989q.548-.21 1.05-.314t.975-.105q.746 0 1.275.22.53.22.857.661.204.269.29.664.086.394.086 1.184m7.011 3.126q-.398.23-.82.346t-.861.116q-1.397 0-2.184-.838t-.787-2.32.787-2.32 2.184-.839q.435 0 .848.113.414.113.833.35v1.036q-.392-.35-.787-.505t-.894-.156q-.93 0-1.43.602-.499.601-.499 1.719 0 1.111.503 1.716.502.604 1.426.604.515 0 .923-.159.409-.158.758-.491Zm6.946-3.422V23h-.994v-3.728q0-.81-.284-1.192-.285-.381-.892-.381-.693 0-1.066.491-.373.492-.373 1.41V23h-.989v-8.357h.989v3.244q.263-.516.714-.782t1.069-.266q.918 0 1.372.605.454.604.454 1.828m7.371.226v.483h-4.281v.033q-.043 1.23.47 1.767t1.447.537q.473 0 .989-.15.515-.15 1.1-.457v.983q-.563.23-1.087.346t-1.012.116q-1.402 0-2.192-.84-.79-.841-.79-2.318 0-1.44.774-2.3t2.063-.859q1.149 0 1.812.78.664.778.707 1.879m-.989-.29q-.064-.623-.454-1.077-.389-.454-1.12-.454-.714 0-1.176.473t-.505 1.063Zm17.993 7.112V12.3h.859v14.02Zm1.718 0V12.3h.86v14.02Z"/><path d="M114.879 26.32V12.3h.86v14.02Zm56 0V12.3h.86v14.02ZM20.893 6.412v-.924h6.837v.924Zm0 1.848v-.924h6.837v.924Zm7-1.848v-.924h6.837v.924Zm0 1.848v-.924h6.837v.924Zm7-1.848v-.924h6.837v.924Zm0 1.848v-.924h6.837v.924Zm7-1.848v-.924h6.837v.924Zm0 1.848v-.924h6.837v.924Zm7-1.848v-.924h6.837v.924Zm0 1.848v-.924h6.837v.924Zm7-1.848v-.924h6.837v.924Zm0 1.848v-.924h6.837v.924Zm7-1.848v-.924h6.837v.924Zm0 1.848v-.924h6.837v.924Zm7-1.848v-.924h6.837v.924Zm0 1.848v-.924h6.837v.924Zm7-1.848v-.924h6.837v.924Zm0 1.848v-.924h6.837v.924Zm7-1.848v-.924h6.837v.924Zm0 1.848v-.924h6.837v.924Zm7-1.848v-.924h6.837v.924Zm0 1.848v-.924h6.837v.924Zm10.845 5.06V6.411h-3.845v-.924h4.705v7.831Zm-1.718 0V8.26h-2.127v-.924h2.986v5.983Z"/><path d="M114.879 13.32V6.411h3.851v.924h-2.992v5.983Zm4.014-5.984v-.924h6.837v.924Zm7 0v-.924h6.837v.924Zm7 0v-.924h6.837v.924Zm7 0v-.924h6.837v.924Zm7 0v-.924h6.837v.924Zm7 0v-.924h6.837v.924Zm7 0v-.924h6.837v.924Zm9.986 5.984V7.335h-2.986v-.924h3.845v6.907Z"/></svg>
