<svg xmlns="http://www.w3.org/2000/svg" width="302" height="365" viewBox="0 0 302 365"><style>@media (prefers-color-scheme:dark){path{fill:#f6f6f6}}</style><path d="M2.02 13.32V5.487h4.71v.924H2.879v6.907Zm1.718 0V7.335H6.73v.924H4.598v5.06Z"/><path d="M2.02 26.32V12.3h.859v14.02Zm1.718 0V12.3h.86v14.02Z"/><path d="M3.738 32.412v-7.111h.86v6.187H6.73v.924ZM2.02 34.26V25.3h.859v8.036H6.73v.924Zm0 161.06v-7.832h4.71v.924H2.879v6.907Zm1.718 0v-5.984H6.73v.924H4.598v5.06Z"/><path d="M2.02 208.32V194.3h.859v14.02Zm1.718 0V194.3h.86v14.02Z"/><path d="M3.738 214.412v-7.111h.86v6.187H6.73v.924ZM2.02 216.26v-8.96h.859v8.036H6.73v.924Zm13.06 32.721h4.452v.913h-1.68v6.193h1.68V257H15.08v-.913h1.68v-6.193h-1.68Zm50.799 63.339V298.3h.86v14.02Zm0 26v-6.908h3.851v.924h-2.992v5.983Zm0 20.016V350.3h.86v7.111h2.991v.924Zm11.014 0v-.924h6.837v.924Zm14 0v-.924h6.837v.924Zm14 0v-.924h6.837v.924Zm14 0v-.924h6.837v.924Zm14 0v-.924h6.837v.924Zm14 0v-.924h6.837v.924Zm14 0v-.924h6.837v.924Zm14 0v-.924h6.837v.924Zm14 0v-.924h6.837v.924Zm14 0v-.924h2.986v-7.111h.86v8.035Zm-127.13-10.621q-.413.22-.848.33-.436.11-.924.11-1.542 0-2.393-1.09T70.747 344q0-1.966.856-3.065.857-1.098 2.388-1.098.488 0 .924.11.435.11.848.33v1.112q-.397-.327-.854-.5-.456-.171-.918-.171-1.058 0-1.585.816-.526.817-.526 2.466 0 1.643.526 2.46.527.816 1.585.816.472 0 .926-.172t.846-.5Zm5.007-2.739h-.327q-.865 0-1.303.304-.437.303-.437.905 0 .542.327.843.328.3.908.3.816 0 1.284-.566.467-.567.472-1.566v-.22Zm1.918-.408V348h-.994v-.892q-.317.538-.797.793t-1.168.255q-.919 0-1.467-.519-.548-.518-.548-1.388 0-1.004.674-1.525t1.98-.521h1.326v-.156q-.005-.72-.365-1.045t-1.15-.325q-.504 0-1.02.145-.515.145-1.004.425v-.989q.548-.21 1.05-.314t.975-.105q.746 0 1.275.22.53.22.857.661.204.269.29.664.086.394.086 1.184m7.516-1.343q-.317-.247-.645-.36t-.72-.113q-.923 0-1.412.58t-.489 1.676V348h-.994v-6.016h.994v1.177q.247-.64.76-.98.513-.342 1.217-.342.365 0 .682.092.317.091.607.284Zm6.812 1.273v.483h-4.281v.033q-.043 1.23.47 1.767t1.447.537q.473 0 .989-.15.515-.15 1.1-.457v.983q-.563.23-1.087.346t-1.012.116q-1.402 0-2.192-.84-.79-.841-.79-2.318 0-1.44.774-2.3t2.063-.859q1.149 0 1.812.78.664.778.707 1.879m-.989-.29q-.064-.623-.454-1.077-.389-.454-1.12-.454-.714 0-1.176.473t-.505 1.063Zm12.743.768h-.327q-.865 0-1.303.304-.437.303-.437.905 0 .542.327.843.328.3.908.3.816 0 1.284-.566.467-.567.472-1.566v-.22Zm1.918-.408V348h-.994v-.892q-.317.538-.797.793t-1.168.255q-.919 0-1.467-.519-.548-.518-.548-1.388 0-1.004.674-1.525t1.98-.521h1.326v-.156q-.005-.72-.365-1.045t-1.15-.325q-.504 0-1.02.145-.515.145-1.004.425v-.989q.548-.21 1.05-.314t.975-.105q.746 0 1.275.22.53.22.857.661.204.269.29.664.086.394.086 1.184m6.242.43q0-1.15-.365-1.735t-1.08-.586q-.719 0-1.09.588-.37.589-.37 1.733 0 1.138.37 1.73.371.59 1.09.59.715 0 1.08-.586.366-.585.366-1.734m-2.905-2.246q.236-.44.652-.676t.965-.237q1.085 0 1.708.836.623.835.623 2.301 0 1.488-.626 2.334t-1.716.846q-.537 0-.948-.234t-.658-.68V348h-.988v-8.357h.988Zm8.283-.075q-.752 0-1.14.586-.386.585-.386 1.735 0 1.144.387 1.732t1.139.588q.757 0 1.144-.588t.386-1.732q0-1.15-.386-1.735-.387-.586-1.144-.586m0-.838q1.251 0 1.914.811.664.811.664 2.348 0 1.541-.66 2.35-.662.808-1.918.808-1.252 0-1.913-.809-.66-.808-.66-2.35 0-1.536.66-2.347.661-.81 1.913-.81m4.738 3.883v-3.728h.989v3.728q0 .81.287 1.192t.889.381q.698 0 1.069-.491.37-.492.37-1.41v-3.4h.994V348h-.994v-.902q-.263.52-.717.79-.454.268-1.06.268-.924 0-1.375-.604-.452-.605-.452-1.83m9.251-5.446v1.708h2.245v.768h-2.245v3.266q0 .666.252.93.253.262.881.262h1.112v.79h-1.209q-1.111 0-1.568-.446-.456-.446-.456-1.536v-3.266h-1.606v-.768h1.606v-1.708Zm14 0v1.708h2.245v.768h-2.245v3.266q0 .666.252.93.253.262.881.262h1.112v.79h-1.209q-1.111 0-1.568-.446-.456-.446-.456-1.536v-3.266h-1.606v-.768h1.606v-1.708Zm9.347 3.996V348h-.994v-3.728q0-.81-.284-1.192-.285-.381-.892-.381-.693 0-1.066.491-.373.492-.373 1.41v3.4h-.989v-8.357h.989v3.244q.263-.516.714-.782t1.069-.266q.918 0 1.372.605.454.604.454 1.828m3.052-2.266h2.53v5.226h1.96V348h-4.909v-.768h1.96v-4.458h-1.54Zm1.542-2.337h.988v1.247h-.988Zm8.987 2.525v.967q-.424-.247-.854-.371-.43-.123-.875-.123-.672 0-1.002.217-.33.218-.33.663 0 .403.247.602t1.23.387l.397.075q.736.14 1.115.558.378.42.378 1.09 0 .892-.634 1.395-.633.502-1.761.502-.446 0-.935-.094t-1.058-.282v-1.02q.553.284 1.058.426t.956.143q.655 0 1.015-.266t.36-.744q0-.688-1.316-.95l-.043-.012-.37-.075q-.854-.166-1.246-.561t-.392-1.077q0-.865.585-1.335t1.67-.47q.484 0 .93.089.445.089.875.266m12.083.483q-.752 0-1.14.586-.386.585-.386 1.735 0 1.144.387 1.732t1.139.588q.757 0 1.144-.588t.386-1.732q0-1.15-.386-1.735-.387-.586-1.144-.586m0-.838q1.251 0 1.914.811.664.811.664 2.348 0 1.541-.66 2.35-.662.808-1.918.808-1.252 0-1.913-.809-.66-.808-.66-2.35 0-1.536.66-2.347.661-.81 1.913-.81m9.336 2.432V348h-.994v-3.728q0-.81-.284-1.192-.285-.381-.892-.381-.693 0-1.066.491-.373.492-.373 1.41v3.4h-.989v-6.016h.989v.903q.263-.516.714-.782t1.069-.266q.918 0 1.372.605.454.604.454 1.828m7.371.226v.483h-4.281v.033q-.043 1.23.47 1.767t1.447.537q.473 0 .989-.15.515-.15 1.1-.457v.983q-.563.23-1.087.346t-1.012.116q-1.402 0-2.192-.84-.79-.841-.79-2.318 0-1.44.774-2.3t2.063-.859q1.149 0 1.812.78.664.778.707 1.879m-.989-.29q-.064-.623-.454-1.077-.389-.454-1.12-.454-.714 0-1.176.473t-.505 1.063Zm8.866 1.128v-.924h6.837v.924Zm7 0v-.924h6.837v.924Zm7 0v-.924h2.986v-7.111h.86v8.035Zm-147-13v-.924h6.837v.924Zm14 0v-.924h6.837v.924Zm14 0v-.924h6.837v.924Zm14 0v-.924h6.837v.924Zm14 0v-.924h6.837v.924Zm14 0v-.924h6.837v.924Zm14 0v-.924h6.837v.924Zm14 0v-.924h6.837v.924Zm14 0v-.924h6.837v.924Zm16.986 5.984v-5.984h-2.986v-.924h3.845v6.907Z"/><path d="M226.879 338.32V324.3h.86v14.02ZM69.893 319.336v-.924h6.837v.924Zm14 0v-.924h6.837v.924Zm14 0v-.924h6.837v.924Zm14 0v-.924h6.837v.924Zm14 0v-.924h6.837v.924Zm14 0v-.924h6.837v.924Zm14 0v-.924h6.837v.924Zm14 0v-.924h6.837v.924Zm14 0v-.924h6.837v.924Zm14 0v-.924h6.837v.924Z"/><path d="M226.879 325.32V311.3h.86v14.02ZM72.143 301.873v3.013H73.4q.752 0 1.173-.398.422-.397.422-1.112 0-.714-.419-1.109-.419-.394-1.176-.394Zm-1.085-.892H73.4q1.343 0 2.036.61.692.61.692 1.785 0 1.187-.69 1.794t-2.038.607h-1.257V309h-1.085Zm12.146 3.244q-.317-.247-.645-.36t-.72-.113q-.923 0-1.412.58t-.489 1.676V309h-.994v-6.016h.994v1.177q.247-.64.76-.98.513-.342 1.217-.342.365 0 .682.092.317.091.607.284Zm6.812 1.273v.483h-4.281v.033q-.043 1.23.47 1.767t1.447.537q.473 0 .989-.15.515-.15 1.1-.457v.983q-.563.23-1.087.346t-1.012.116q-1.402 0-2.192-.84-.79-.841-.79-2.318 0-1.44.774-2.3t2.063-.859q1.149 0 1.812.78.664.778.707 1.879m-.989-.29q-.064-.623-.454-1.077-.389-.454-1.12-.454-.714 0-1.176.473t-.505 1.063Zm6.581-1.456v-3.11h.989V309h-.989v-.757q-.247.445-.658.68-.41.233-.948.233-1.09 0-1.716-.846t-.625-2.334q0-1.466.628-2.301t1.713-.836q.543 0 .956.234.414.234.65.68m-2.905 2.246q0 1.149.365 1.734.365.586 1.08.586.714 0 1.087-.59.373-.592.373-1.73 0-1.144-.373-1.733-.373-.588-1.088-.588-.714 0-1.08.586-.364.585-.364 1.735m6.994-2.993h2.53v5.226h1.96V309h-4.909v-.768h1.96v-4.458h-1.54Zm1.542-2.337h.988v1.247h-.988Zm9.46 8.025q-.398.23-.82.346t-.861.116q-1.397 0-2.184-.838t-.787-2.32.787-2.32 2.184-.839q.435 0 .848.113.414.113.833.35v1.036q-.392-.35-.787-.505t-.894-.156q-.93 0-1.43.602-.499.601-.499 1.719 0 1.111.503 1.716.502.604 1.426.604.515 0 .923-.159.409-.158.758-.491Zm4.599-7.418v1.708h2.245v.768h-2.245v3.266q0 .666.252.93.253.262.881.262h1.112v.79h-1.209q-1.111 0-1.568-.446-.456-.446-.456-1.536v-3.266h-1.606v-.768h1.606v-1.708Zm13.925 7.831v-5.355h-1.703v-.768h2.69v6.123q0 1.048-.48 1.614t-1.367.567H127v-.838h1.257q.483 0 .725-.335.242-.336.242-1.008m0-8.464h.988v1.251h-.988Zm4.823 6.08v-3.728h.989v3.728q0 .81.287 1.192t.889.381q.698 0 1.069-.491.37-.492.37-1.41v-3.4h.994V309h-.994v-.902q-.263.52-.717.79-.454.268-1.06.268-.924 0-1.375-.604-.452-.605-.452-1.83m11.179-3.528v.967q-.424-.247-.854-.371-.43-.123-.875-.123-.672 0-1.002.217-.33.218-.33.663 0 .403.247.602t1.23.387l.397.075q.736.14 1.115.558.378.42.378 1.09 0 .892-.634 1.395-.633.502-1.761.502-.446 0-.935-.094t-1.058-.282v-1.02q.553.284 1.058.426t.956.143q.655 0 1.015-.266t.36-.744q0-.688-1.316-.95l-.043-.012-.37-.075q-.854-.166-1.246-.561t-.392-1.077q0-.865.585-1.335t1.67-.47q.484 0 .93.089.445.089.875.266m5.072-1.918v1.708h2.245v.768h-2.245v3.266q0 .666.252.93.253.262.881.262h1.112v.79h-1.209q-1.111 0-1.568-.446-.456-.446-.456-1.536v-3.266h-1.606v-.768h1.606v-1.708Zm14 0v1.708h2.245v.768h-2.245v3.266q0 .666.252.93.253.262.881.262h1.112v.79h-1.209q-1.111 0-1.568-.446-.456-.446-.456-1.536v-3.266h-1.606v-.768h1.606v-1.708Zm9.347 3.996V309h-.994v-3.728q0-.81-.284-1.192-.285-.381-.892-.381-.693 0-1.066.491-.373.492-.373 1.41v3.4h-.989v-8.357h.989v3.244q.263-.516.714-.782t1.069-.266q.918 0 1.372.605.454.604.454 1.828m7.371.226v.483h-4.281v.033q-.043 1.23.47 1.767t1.447.537q.473 0 .989-.15.515-.15 1.1-.457v.983q-.563.23-1.087.346t-1.012.116q-1.402 0-2.192-.84-.79-.841-.79-2.318 0-1.44.774-2.3t2.063-.859q1.149 0 1.812.78.664.778.707 1.879m-.989-.29q-.064-.623-.454-1.077-.389-.454-1.12-.454-.714 0-1.176.473t-.505 1.063Zm7.199-2.014v.967q-.424-.247-.854-.371-.43-.123-.875-.123-.672 0-1.002.217-.33.218-.33.663 0 .403.247.602t1.23.387l.397.075q.736.14 1.115.558.378.42.378 1.09 0 .892-.634 1.395-.633.502-1.761.502-.446 0-.935-.094t-1.058-.282v-1.02q.553.284 1.058.426t.956.143q.655 0 1.015-.266t.36-.744q0-.688-1.316-.95l-.043-.012-.37-.075q-.854-.166-1.246-.561t-.392-1.077q0-.865.585-1.335t1.67-.47q.484 0 .93.089.445.089.875.266m7.79 2.304v.483h-4.281v.033q-.043 1.23.47 1.767t1.447.537q.473 0 .989-.15.515-.15 1.1-.457v.983q-.563.23-1.087.346t-1.012.116q-1.402 0-2.192-.84-.79-.841-.79-2.318 0-1.44.774-2.3t2.063-.859q1.149 0 1.812.78.664.778.707 1.879m-.989-.29q-.064-.623-.454-1.077-.389-.454-1.12-.454-.714 0-1.176.473t-.505 1.063Zm11.852 7.112V298.3h.86v14.02Z"/><path d="M226.879 312.32V298.3h.86v14.02Zm-154-44.984V259.3h.86v7.111h2.991v.924Zm0 13V272.3h.86v7.111h2.991v.924Zm-2.986 13v-.924h6.837v.924Zm14 0v-.924h6.837v.924Zm14 0v-.924h2.986v-7.111h.86v7.111h2.991v.924Zm14 0v-.924h6.837v.924Zm14 0v-.924h6.837v.924Zm14 0v-.924h6.837v.924Zm14 0v-.924h6.837v.924Zm14 0v-.924h6.837v.924Zm14 0v-.924h6.837v.924Zm14 0v-.924h6.837v.924Z"/><path d="M226.879 299.32V285.3h.86v14.02ZM76.893 267.336v-.924h6.837v.924Zm0 13v-.924h6.837v.924Zm7-13v-.924h2.986v-7.111h.86v7.111h2.991v.924Zm0 13v-.924h6.837v.924Zm7 0v-.924h6.837v.924Zm9.986 5.984v-5.984h-2.986v-.924h6.837v.924h-2.992v5.983Zm4.014-5.984v-.924h6.837v.924Zm7 0v-.924h6.837v.924Zm7 0v-.924h6.837v.924Zm7 0v-.924h2.986v-7.111h.86v8.035Z"/><path d="M226.879 286.32V272.3h.86v14.02ZM90.893 267.336v-.924h6.837v.924Zm7 0v-.924h2.986v-7.111h.86v7.111h2.991v.924Zm7 0v-.924h6.837v.924Zm7 0v-.924h2.986v-7.111h.86v7.111h2.991v.924Zm7 0v-.924h6.837v.924Zm7 0v-.924h2.986v-7.111h.86v8.035Z"/><path d="M226.879 273.32V259.3h.86v14.02ZM26.645 253.272V257h-.994v-3.728q0-.81-.284-1.192-.285-.381-.892-.381-.693 0-1.066.491-.373.492-.373 1.41v3.4h-.989v-6.016h.989v.903q.263-.516.714-.782t1.069-.266q.918 0 1.372.605.454.604.454 1.828m3.369 2.971v3.045h-.993v-8.304h.993v.768q.247-.445.658-.679t.948-.234q1.09 0 1.71.844.621.843.621 2.336 0 1.466-.623 2.302-.623.835-1.708.835-.548 0-.959-.234t-.647-.68m2.9-2.245q0-1.15-.362-1.735-.363-.586-1.077-.586-.72 0-1.09.588-.37.589-.37 1.733 0 1.138.37 1.73.37.59 1.09.59.714 0 1.077-.586.363-.585.363-1.734m3.132.726v-3.728h.989v3.728q0 .81.287 1.192t.889.381q.698 0 1.069-.491.37-.492.37-1.41v-3.4h.994V257h-.994v-.902q-.263.52-.717.79-.454.268-1.06.268-.924 0-1.375-.604-.452-.605-.452-1.83m9.251-5.446v1.708h2.245v.768h-2.245v3.266q0 .666.252.93.253.262.881.262h1.112v.79h-1.209q-1.111 0-1.568-.446-.456-.446-.456-1.536v-3.266h-1.606v-.768h1.606v-1.708Zm8.928 1.918v.967q-.424-.247-.854-.371-.43-.123-.875-.123-.672 0-1.002.217-.33.218-.33.663 0 .403.247.602t1.23.387l.397.075q.736.14 1.115.558.378.42.378 1.09 0 .892-.634 1.395-.633.502-1.761.502-.446 0-.935-.094t-1.058-.282v-1.02q.553.284 1.058.426t.956.143q.655 0 1.015-.266t.36-.744q0-.688-1.316-.95l-.043-.012-.37-.075q-.854-.166-1.246-.561t-.392-1.077q0-.865.585-1.335t1.67-.47q.484 0 .93.089.445.089.875.266m6.549-2.213h1.02l-4.221 9.04h-1.026Zm5.743 8.164q-.038 0-.107.005-.07.006-.113.006-1.343 0-2.006-1.031-.664-1.032-.664-3.126 0-2.1.664-3.132.663-1.031 2.017-1.031 1.358 0 2.022 1.031t.663 3.132q0 1.579-.368 2.543t-1.114 1.35l1.074 1.021-.811.537Zm1.343-4.146q0-1.768-.363-2.525-.362-.757-1.19-.757-.821 0-1.184.757-.362.757-.362 2.525 0 1.761.362 2.519.363.757 1.185.757.827 0 1.19-.755.362-.754.362-2.521m5.018 7.321v-6.908h3.851v.924h-2.992v5.983Zm4.014-5.984v-.924h6.837v.924Zm9.986 5.984v-5.984h-2.986v-.924h6.837v.924h-2.992v5.983Zm4.014-5.984v-.924h6.837v.924Zm9.986 5.984v-5.984h-2.986v-.924h6.837v.924h-2.992v5.983Zm4.014-5.984v-.924h6.837v.924Zm9.986 5.984v-5.984h-2.986v-.924h6.837v.924h-2.992v5.983Zm4.014-5.984v-.924h6.837v.924Zm9.986 5.984v-5.984h-2.986v-.924h3.845v6.907Z"/><path d="M226.879 260.32V246.3h.86v14.02Zm-105-26v-6.908h3.851v.924h-2.992v5.983Zm.43 10.099-3.277-6.553h6.558Z"/><path d="M226.879 247.32V233.3h.86v14.02Zm-100.986-18.984v-.924h6.837v.924Zm7 0v-.924h6.837v.924Zm7 0v-.924h6.837v.924Zm7 0v-.924h6.837v.924Zm7 0v-.924h6.837v.924Zm7 0v-.924h6.837v.924Zm7 0v-.924h6.837v.924Zm7 0v-.924h6.837v.924Zm7 0v-.924h6.837v.924Zm7 0v-.924h6.837v.924Zm7 0v-.924h6.837v.924Zm7 0v-.924h6.837v.924Zm7 0v-.924h6.837v.924Zm7 0v-.924h6.837v.924Z"/><path d="M226.879 234.32v-5.984h-2.986v-.924h3.845v6.907ZM6.893 214.412v-.924h6.837v.924Zm0 1.848v-.924h6.837v.924Zm7-1.848v-.924h6.837v.924Zm0 1.848v-.924h6.837v.924Zm7-1.848v-.924h6.837v.924Zm0 1.848v-.924h6.837v.924Zm7-1.848v-.924h6.837v.924Zm0 1.848v-.924h6.837v.924Zm7-1.848v-.924h6.837v.924Zm0 1.848v-.924h6.837v.924Zm7-1.848v-.924h6.837v.924Zm0 1.848v-.924h6.837v.924Zm7-1.848v-.924h6.837v.924Zm0 1.848v-.924h6.837v.924Zm7-1.848v-.924h6.837v.924Zm0 1.848v-.924h6.837v.924Zm7-1.848v-.924h6.837v.924Zm0 1.848v-.924h6.837v.924Zm7-1.848v-.924h6.837v.924Zm0 1.848v-.924h6.837v.924Zm7-1.848v-.924h6.837v.924Zm0 1.848v-.924h6.837v.924Zm7-1.848v-.924h6.837v.924Zm0 1.848v-.924h6.837v.924Zm7-1.848v-.924h6.837v.924Zm0 1.848v-.924h6.837v.924Zm7-1.848v-.924h6.837v.924Zm0 1.848v-.924h6.837v.924Zm7-1.848v-.924h6.837v.924Zm0 1.848v-.924h6.837v.924Zm7-1.848v-.924h6.837v.924Zm0 1.848v-.924h6.837v.924Zm7-1.848v-.924h6.837v.924Zm0 1.848v-.924h6.837v.924Zm7-1.848v-.924h6.837v.924Zm0 1.848v-.924h6.837v.924Zm7-1.848v-.924h6.837v.924Zm0 1.848v-.924h6.837v.924Zm7-1.848v-.924h6.837v.924Zm0 1.848v-.924h6.837v.924Zm7-1.848v-.924h6.837v.924Zm0 1.848v-.924h6.837v.924Zm7-1.848v-.924h6.837v.924Zm0 1.848v-.924h6.837v.924Zm7-1.848v-.924h6.837v.924Zm0 1.848v-.924h6.837v.924Zm7-1.848v-.924h6.837v.924Zm0 1.848v-.924h6.837v.924Zm7-1.848v-.924h6.837v.924Zm0 1.848v-.924h6.837v.924Zm7-1.848v-.924h6.837v.924Zm0 1.848v-.924h6.837v.924Zm7-1.848v-.924h6.837v.924Zm0 1.848v-.924h6.837v.924Zm7-1.848v-.924h6.837v.924Zm0 1.848v-.924h6.837v.924Zm7-1.848v-.924h6.837v.924Zm0 1.848v-.924h6.837v.924Zm7-1.848v-.924h6.837v.924Zm0 1.848v-.924h6.837v.924Zm7-1.848v-.924h6.837v.924Zm0 1.848v-.924h6.837v.924Zm7-1.848v-.924h2.127v-6.187h.859v7.111Zm0 1.848v-.924h3.845V207.3h.86v8.959ZM16.09 202.83h1.89V205h-1.89Zm7 0h1.89V205h-1.89Zm7 0h1.89V205h-1.89Zm8.68-.854h-.327q-.865 0-1.303.304-.437.303-.437.905 0 .542.327.843.328.3.908.3.816 0 1.284-.566.467-.567.472-1.566v-.22Zm1.918-.408V205h-.994v-.892q-.317.538-.797.793t-1.168.255q-.919 0-1.467-.519-.548-.518-.548-1.388 0-1.004.674-1.525.675-.521 1.98-.521h1.326v-.156q-.005-.72-.365-1.045t-1.15-.325q-.504 0-1.02.145-.515.145-1.004.425v-.989q.548-.21 1.05-.314t.975-.105q.746 0 1.275.22.53.22.857.661.204.269.29.664.086.394.086 1.184m6.957-.296V205h-.994v-3.728q0-.81-.284-1.192-.285-.381-.892-.381-.693 0-1.066.491-.373.492-.373 1.41v3.4h-.989v-6.016h.989v.903q.263-.516.714-.782t1.069-.266q.918 0 1.372.605.454.604.454 1.828m5.963-1.52v-3.11h.989V205h-.989v-.757q-.247.445-.658.68-.41.233-.948.233-1.09 0-1.716-.846t-.625-2.334q0-1.466.628-2.301t1.713-.836q.543 0 .956.234.414.234.65.68m-2.905 2.246q0 1.149.365 1.734.365.586 1.08.586.714 0 1.087-.59.373-.592.373-1.73 0-1.144-.373-1.733-.373-.588-1.088-.588-.714 0-1.08.586-.364.585-.364 1.735m14.44-4.126v3.013H66.4q.752 0 1.173-.398.422-.397.422-1.112 0-.714-.419-1.109-.419-.394-1.176-.394Zm-1.085-.892H66.4q1.343 0 2.036.61.692.61.692 1.785 0 1.187-.69 1.794t-2.038.607h-1.257V205h-1.085Zm12.146 3.244q-.317-.247-.645-.36t-.72-.113q-.923 0-1.412.58t-.489 1.676V205h-.994v-6.016h.994v1.177q.247-.64.76-.98.513-.342 1.217-.342.365 0 .682.092.317.091.607.284Zm6.812 1.273v.483h-4.281v.033q-.043 1.23.47 1.767t1.447.537q.473 0 .989-.15.515-.15 1.1-.457v.983q-.563.23-1.087.346t-1.012.116q-1.402 0-2.192-.84-.79-.841-.79-2.318 0-1.44.774-2.3t2.063-.859q1.149 0 1.812.78.664.778.707 1.879m-.989-.29q-.064-.623-.454-1.077-.389-.454-1.12-.454-.714 0-1.176.473t-.505 1.063Zm5.271-3.932v1.708h2.245v.768h-2.245v3.266q0 .666.252.93.253.262.881.262h1.112v.79h-1.209q-1.111 0-1.568-.446-.456-.446-.456-1.536v-3.266h-1.606v-.768h1.606v-1.708Zm7 0v1.708h2.245v.768h-2.245v3.266q0 .666.252.93.253.262.881.262h1.112v.79h-1.209q-1.111 0-1.568-.446-.456-.446-.456-1.536v-3.266h-1.606v-.768h1.606v-1.708Zm8.31 5.79q-.247.629-.628 1.655-.532 1.418-.714 1.73-.247.418-.618.628-.37.21-.865.21h-.795v-.828h.586q.435 0 .682-.253.247-.252.628-1.305l-2.325-5.919h1.047l1.783 4.705 1.757-4.705h1.047Zm15.322 1.274q-.435.402-.98.609-.546.207-1.18.207-1.525 0-2.374-1.093-.848-1.093-.848-3.064 0-1.966.86-3.065.859-1.098 2.39-1.098.504 0 .966.142.462.143.892.433v1.111q-.435-.413-.892-.61-.456-.195-.967-.195-1.058 0-1.587.819t-.529 2.463q0 1.67.513 2.473t1.577.803q.36 0 .63-.083.272-.084.492-.26v-2.155h-1.165v-.891h2.202Zm4.379-4.663q-.752 0-1.14.586-.386.585-.386 1.735 0 1.144.387 1.732t1.139.588q.757 0 1.144-.588t.386-1.732q0-1.15-.386-1.735-.387-.586-1.144-.586m0-.838q1.251 0 1.914.811.664.811.664 2.348 0 1.541-.66 2.35-.662.808-1.918.808-1.252 0-1.913-.809-.66-.808-.66-2.35 0-1.536.66-2.347.661-.81 1.913-.81m7 .837q-.752 0-1.14.586-.386.585-.386 1.735 0 1.144.387 1.732t1.139.588q.757 0 1.144-.588t.386-1.732q0-1.15-.386-1.735-.387-.586-1.144-.586m0-.838q1.251 0 1.914.811.664.811.664 2.348 0 1.541-.66 2.35-.662.808-1.918.808-1.252 0-1.913-.809-.66-.808-.66-2.35 0-1.536.66-2.347.661-.81 1.913-.81m8.299.912v-3.11h.989V205h-.989v-.757q-.247.445-.658.68-.41.233-.948.233-1.09 0-1.716-.846t-.625-2.334q0-1.466.628-2.301t1.713-.836q.543 0 .956.234.414.234.65.68m-2.905 2.246q0 1.149.365 1.734.365.586 1.08.586.714 0 1.087-.59.373-.592.373-1.73 0-1.144-.373-1.733-.373-.588-1.088-.588-.714 0-1.08.586-.364.585-.364 1.735m18.227 2.341q-.435.402-.98.609-.546.207-1.18.207-1.525 0-2.374-1.093-.848-1.093-.848-3.064 0-1.966.86-3.065.859-1.098 2.39-1.098.504 0 .966.142.462.143.892.433v1.111q-.435-.413-.892-.61-.456-.195-.967-.195-1.058 0-1.587.819t-.529 2.463q0 1.67.513 2.473t1.577.803q.36 0 .63-.083.272-.084.492-.26v-2.155h-1.165v-.891h2.202Zm7.086-2.842v.483h-4.281v.033q-.043 1.23.47 1.767t1.447.537q.473 0 .989-.15.515-.15 1.1-.457v.983q-.563.23-1.087.346t-1.012.116q-1.402 0-2.192-.84-.79-.841-.79-2.318 0-1.44.774-2.3t2.063-.859q1.149 0 1.812.78.664.778.707 1.879m-.989-.29q-.064-.623-.454-1.077-.389-.454-1.12-.454-.714 0-1.176.473t-.505 1.063Zm7.618.064V205h-.994v-3.728q0-.81-.284-1.192-.285-.381-.892-.381-.693 0-1.066.491-.373.492-.373 1.41v3.4h-.989v-6.016h.989v.903q.263-.516.714-.782t1.069-.266q.918 0 1.372.605.454.604.454 1.828m7.371.226v.483h-4.281v.033q-.043 1.23.47 1.767t1.447.537q.473 0 .989-.15.515-.15 1.1-.457v.983q-.563.23-1.087.346t-1.012.116q-1.402 0-2.192-.84-.79-.841-.79-2.318 0-1.44.774-2.3t2.063-.859q1.149 0 1.812.78.664.778.707 1.879m-.989-.29q-.064-.623-.454-1.077-.389-.454-1.12-.454-.714 0-1.176.473t-.505 1.063Zm8.177-.983q-.317-.247-.645-.36t-.72-.113q-.923 0-1.412.58t-.489 1.676V205h-.994v-6.016h.994v1.177q.247-.64.76-.98.513-.342 1.217-.342.365 0 .682.092.317.091.607.284Zm4.566 1.751h-.327q-.865 0-1.303.304-.437.303-.437.905 0 .542.327.843.328.3.908.3.816 0 1.284-.566.467-.567.472-1.566v-.22Zm1.918-.408V205h-.994v-.892q-.317.538-.797.793t-1.168.255q-.919 0-1.467-.519-.548-.518-.548-1.388 0-1.004.674-1.525t1.98-.521h1.326v-.156q-.005-.72-.365-1.045t-1.15-.325q-.504 0-1.02.145-.515.145-1.004.425v-.989q.548-.21 1.05-.314t.975-.105q.746 0 1.275.22.53.22.857.661.204.269.29.664.086.394.086 1.184m4.61-4.292v1.708h2.245v.768h-2.245v3.266q0 .666.252.93.253.262.881.262h1.112v.79h-1.209q-1.111 0-1.568-.446-.456-.446-.456-1.536v-3.266h-1.606v-.768h1.606v-1.708Zm5.399 1.73h2.53v5.226h1.96V205h-4.909v-.768h1.96v-4.458h-1.54Zm1.542-2.337h.988v1.247h-.988Zm7.07 3.008q-.752 0-1.14.586-.386.585-.386 1.735 0 1.144.387 1.732t1.139.588q.757 0 1.144-.588t.386-1.732q0-1.15-.386-1.735-.387-.586-1.144-.586m0-.838q1.251 0 1.914.811.664.811.664 2.348 0 1.541-.66 2.35-.662.808-1.918.808-1.252 0-1.913-.809-.66-.808-.66-2.35 0-1.536.66-2.347.661-.81 1.913-.81m9.336 2.432V205h-.994v-3.728q0-.81-.284-1.192-.285-.381-.892-.381-.693 0-1.066.491-.373.492-.373 1.41v3.4h-.989v-6.016h.989v.903q.263-.516.714-.782t1.069-.266q.918 0 1.372.605.454.604.454 1.828"/><path d="M226.02 208.32V194.3h.859v14.02Zm1.718 0V194.3h.86v14.02ZM6.893 188.412v-.924h6.837v.924Zm0 1.848v-.924h6.837v.924Zm7-1.848v-.924h6.837v.924Zm0 1.848v-.924h6.837v.924Zm7-1.848v-.924h6.837v.924Zm0 1.848v-.924h6.837v.924Zm7-1.848v-.924h6.837v.924Zm0 1.848v-.924h6.837v.924Zm7-1.848v-.924h6.837v.924Zm0 1.848v-.924h6.837v.924Zm7-1.848v-.924h6.837v.924Zm0 1.848v-.924h6.837v.924Zm7-1.848v-.924h6.837v.924Zm0 1.848v-.924h6.837v.924Zm7-1.848v-.924h6.837v.924Zm0 1.848v-.924h6.837v.924Zm7-1.848v-.924h6.837v.924Zm0 1.848v-.924h6.837v.924Zm7-1.848v-.924h6.837v.924Zm0 1.848v-.924h6.837v.924Zm7-1.848v-.924h6.837v.924Zm0 1.848v-.924h6.837v.924Zm7-1.848v-.924h6.837v.924Zm0 1.848v-.924h6.837v.924Zm7-1.848v-.924h6.837v.924Zm0 1.848v-.924h6.837v.924Zm7-1.848v-.924h6.837v.924Zm0 1.848v-.924h6.837v.924Zm7-1.848v-.924h6.837v.924Zm0 1.848v-.924h6.837v.924Zm7-1.848v-.924h6.837v.924Zm0 1.848v-.924h6.837v.924Zm7-1.848v-.924h6.837v.924Zm0 1.848v-.924h6.837v.924Zm7-1.848v-.924h6.837v.924Zm0 1.848v-.924h6.837v.924Zm7-1.848v-.924h6.837v.924Zm0 1.848v-.924h6.837v.924Zm7-1.848v-.924h6.837v.924Zm0 1.848v-.924h6.837v.924Zm7-1.848v-.924h6.837v.924Zm0 1.848v-.924h6.837v.924Zm7-1.848v-.924h6.837v.924Zm0 1.848v-.924h6.837v.924Zm7-1.848v-.924h6.837v.924Zm0 1.848v-.924h6.837v.924Zm7-1.848v-.924h6.837v.924Zm0 1.848v-.924h6.837v.924Zm7-1.848v-.924h6.837v.924Zm0 1.848v-.924h6.837v.924Zm7-1.848v-.924h6.837v.924Zm0 1.848v-.924h6.837v.924Zm7-1.848v-.924h6.837v.924Zm0 1.848v-.924h6.837v.924Zm7-1.848v-.924h6.837v.924Zm0 1.848v-.924h6.837v.924Zm7-1.848v-.924h6.837v.924Zm0 1.848v-.924h6.837v.924Zm7-1.848v-.924h6.837v.924Zm0 1.848v-.924h6.837v.924Zm7-1.848v-.924h6.837v.924Zm0 1.848v-.924h6.837v.924Z"/><path d="M227.738 195.32v-6.908h-3.845v-.924h4.705v7.831Zm-1.718 0v-5.06h-2.127v-.924h2.986v5.983ZM8.08 118.981h4.452v.913h-1.68v6.193h1.68V127H8.08v-.913h1.68v-6.193H8.08Zm57.799 18.355V129.3h.86v7.111h2.991v.924Z"/><path fill-opacity=".498" d="M138.076 144.69v3.288h-1.203v-3.287Zm-2.863 0v3.288h-1.203v-3.287Zm2.863 13v3.288h-1.203v-3.287Zm-2.863 0v3.288h-1.203v-3.287Zm7.129-5.582q1.37 0 1.912-.674t.542-2.435q0-1.778-.54-2.452t-1.914-.674h-.516v6.235Zm.021-7.127q1.837 0 2.707.977.87.978.87 3.04 0 2.052-.87 3.027t-2.707.975h-1.627v-8.019Zm2.863 15.213v.967q-.424-.247-.854-.371-.43-.123-.875-.123-.672 0-1.002.217-.33.218-.33.663 0 .403.247.602t1.23.387l.397.075q.736.14 1.115.558.378.42.378 1.09 0 .892-.634 1.395-.633.502-1.761.502-.446 0-.935-.094t-1.058-.282v-1.02q.553.284 1.058.426t.956.143q.655 0 1.015-.266t.36-.744q0-.688-1.316-.95l-.043-.012-.37-.075q-.854-.166-1.246-.561t-.392-1.077q0-.865.585-1.335t1.67-.47q.484 0 .93.089.445.089.875.266m5.083.483q-.752 0-1.14.586-.386.585-.386 1.735 0 1.144.387 1.732t1.139.588q.757 0 1.144-.588t.386-1.732q0-1.15-.386-1.735-.387-.586-1.144-.586m0-.838q1.251 0 1.914.811.664.811.664 2.348 0 1.541-.66 2.35-.662.808-1.918.808-1.252 0-1.913-.809-.66-.808-.66-2.35 0-1.536.66-2.347.661-.81 1.913-.81m7.553 3.985q0 .666.244 1.004.245.338.723.338h1.154V166h-1.251q-.886 0-1.372-.567-.486-.566-.486-1.608v-5.441h-1.585v-.774h2.573Zm14 0q0 .666.244 1.004.245.338.723.338h1.154V166h-1.251q-.886 0-1.372-.567-.486-.566-.486-1.608v-5.441h-1.585v-.774h2.573Zm6.908-.849h-.327q-.865 0-1.303.304-.437.303-.437.905 0 .542.327.843.328.3.908.3.816 0 1.284-.566.467-.567.472-1.566v-.22Zm1.918-.408V166h-.994v-.892q-.317.538-.797.793t-1.168.255q-.919 0-1.467-.519-.548-.518-.548-1.388 0-1.004.674-1.525t1.98-.521h1.326v-.156q-.005-.72-.365-1.045t-1.15-.325q-.504 0-1.02.145-.515.145-1.004.425v-.989q.548-.21 1.05-.314t.975-.105q.746 0 1.275.22.53.22.857.661.204.269.29.664.086.394.086 1.184m11.61-4.292v1.708h2.245v.768h-2.245v3.266q0 .666.252.93.253.262.881.262h1.112v.79h-1.209q-1.111 0-1.568-.446-.456-.446-.456-1.536v-3.266h-1.606v-.768h1.606v-1.708Zm5.399 1.73h2.53v5.226h1.96V166h-4.909v-.768h1.96v-4.458h-1.54Zm1.542-2.337h.988v1.247h-.988Zm15.369 3.083v-3.11h.989V166h-.989v-.757q-.247.445-.658.68-.41.233-.948.233-1.09 0-1.716-.846t-.625-2.334q0-1.466.628-2.301t1.713-.836q.543 0 .956.234.414.234.65.68m-2.905 2.246q0 1.149.365 1.734.365.586 1.08.586.714 0 1.087-.59.373-.592.373-1.73 0-1.144-.373-1.733-.373-.588-1.088-.588-.714 0-1.08.586-.364.585-.364 1.735m8.606-2.322q-.752 0-1.14.586-.386.585-.386 1.735 0 1.144.387 1.732t1.139.588q.757 0 1.144-.588t.386-1.732q0-1.15-.386-1.735-.387-.586-1.144-.586m0-.838q1.251 0 1.914.811.664.811.664 2.348 0 1.541-.66 2.35-.662.808-1.918.808-1.252 0-1.913-.809-.66-.808-.66-2.35 0-1.536.66-2.347.661-.81 1.913-.81m8.767-2.15v3.288h-1.203v-3.287Zm-2.863 0v3.288h-1.203v-3.287Zm7.161 6.371h1.676v1.423l-1.193 2.315-1.074.006.591-2.32Zm13.716-.231h1.89V166h-1.89Zm7 0h1.89V166h-1.89Zm7 0h1.89V166h-1.89Zm-110.781-16.153q-.752 0-1.14.586-.386.585-.386 1.735 0 1.144.387 1.732t1.139.588q.757 0 1.144-.588t.386-1.732q0-1.15-.386-1.735-.387-.586-1.144-.586m0-.838q1.251 0 1.914.811.664.811.664 2.348 0 1.541-.66 2.35-.662.808-1.918.808-1.252 0-1.913-.809-.66-.808-.66-2.35 0-1.536.66-2.347.661-.81 1.913-.81m16.895 1.385q-.317-.247-.645-.36t-.72-.113q-.923 0-1.412.58t-.489 1.676V153h-.994v-6.016h.994v1.177q.247-.64.76-.98.513-.342 1.217-.342.365 0 .682.092.317.091.607.284Zm6.812 1.273v.483h-4.281v.033q-.043 1.23.47 1.767t1.447.537q.473 0 .989-.15.515-.15 1.1-.457v.983q-.563.23-1.087.346t-1.012.116q-1.402 0-2.192-.84-.79-.841-.79-2.318 0-1.44.774-2.3t2.063-.859q1.149 0 1.812.78.664.778.707 1.879m-.989-.29q-.064-.623-.454-1.077-.389-.454-1.12-.454-.714 0-1.176.473t-.505 1.063Zm12.603-1.611q.183-.387.465-.572.282-.186.68-.186.725 0 1.023.562.298.56.298 2.113V153h-.902v-3.443q0-1.273-.142-1.582-.143-.308-.519-.308-.43 0-.588.33t-.158 1.56V153h-.903v-3.443q0-1.289-.153-1.59-.153-.3-.55-.3-.392 0-.546.33-.153.33-.153 1.56V153h-.897v-6.016h.897v.516q.178-.322.444-.491.265-.17.604-.17.408 0 .68.188.27.188.42.57m5.067-.591h2.53v5.226h1.96V153h-4.909v-.768h1.96v-4.458h-1.54Zm1.542-2.337h.988v1.247h-.988Zm16.471-.026v.821h-1.123q-.532 0-.739.218-.206.217-.206.77v.532h2.067v.768h-2.067V153h-.989v-5.248h-1.606v-.768h1.606v-.419q0-.988.454-1.455t1.415-.467Zm5.06 5.333h-.327q-.865 0-1.303.304-.437.303-.437.905 0 .542.327.843.328.3.908.3.816 0 1.284-.566.467-.567.472-1.566v-.22Zm1.918-.408V153h-.994v-.892q-.317.538-.797.793t-1.168.255q-.919 0-1.467-.519-.548-.518-.548-1.388 0-1.004.674-1.525t1.98-.521h1.326v-.156q-.005-.72-.365-1.045t-1.15-.325q-.504 0-1.02.145-.515.145-1.004.425v-.989q.548-.21 1.05-.314t.975-.105q.746 0 1.275.22.53.22.857.661.204.269.29.664.086.394.086 1.184m6.388-4.878v3.288h-1.203v-3.287Zm-2.863 0v3.288h-1.203v-3.287Zm7.161 6.371h1.676v1.423l-1.193 2.315-1.074.006.591-2.32Zm14.924-5.785v1.708h2.245v.768h-2.245v3.266q0 .666.252.93.253.262.881.262h1.112v.79h-1.209q-1.111 0-1.568-.446-.456-.446-.456-1.536v-3.266h-1.606v-.768h1.606v-1.708Zm9.347 3.996V153h-.994v-3.728q0-.81-.284-1.192-.285-.381-.892-.381-.693 0-1.066.491-.373.492-.373 1.41v3.4h-.989v-8.357h.989v3.244q.263-.516.714-.782t1.069-.266q.918 0 1.372.605.454.604.454 1.828m7.371.226v.483h-4.281v.033q-.043 1.23.47 1.767t1.447.537q.473 0 .989-.15.515-.15 1.1-.457v.983q-.563.23-1.087.346t-1.012.116q-1.402 0-2.192-.84-.79-.841-.79-2.318 0-1.44.774-2.3t2.063-.859q1.149 0 1.812.78.664.778.707 1.879m-.989-.29q-.064-.623-.454-1.077-.389-.454-1.12-.454-.714 0-1.176.473t-.505 1.063Zm7.618.064V153h-.994v-3.728q0-.81-.284-1.192-.285-.381-.892-.381-.693 0-1.066.491-.373.492-.373 1.41v3.4h-.989v-6.016h.989v.903q.263-.516.714-.782t1.069-.266q.918 0 1.372.605.454.604.454 1.828"/><path d="M69.893 137.336v-.924h6.837v.924Zm7 0v-.924h2.986v-7.111h.86v7.111h2.991v.924Zm7 0v-.924h6.837v.924Zm7 0v-.924h2.986v-7.111h.86v7.111h2.991v.924Zm7 0v-.924h6.837v.924Zm7 0v-.924h2.986v-7.111h.86v7.111h2.991v.924Zm7 0v-.924h6.837v.924Zm7 0v-.924h2.986v-7.111h.86v8.035Zm9.986 0V129.3h.86v7.111h2.991v.924Zm11.014 0v-.924h6.837v.924Zm14 0v-.924h6.837v.924Zm14 0v-.924h6.837v.924Zm14 0v-.924h6.837v.924Zm14 0v-.924h6.837v.924Zm14 0v-.924h6.837v.924Zm14 0v-.924h6.837v.924Zm14 0v-.924h6.837v.924Zm14 0v-.924h6.837v.924Zm14 0v-.924h6.837v.924Zm14 0v-.924h6.837v.924Zm14 0v-.924h2.986v-7.111h.86v8.035ZM19.645 123.272V127h-.994v-3.728q0-.81-.284-1.192-.285-.381-.892-.381-.693 0-1.066.491-.373.492-.373 1.41v3.4h-.989v-6.016h.989v.903q.263-.516.714-.782t1.069-.266q.918 0 1.372.605.454.604.454 1.828m3.369 2.971v3.045h-.993v-8.304h.993v.768q.247-.445.658-.679t.948-.234q1.09 0 1.71.844.621.843.621 2.336 0 1.466-.623 2.302-.623.835-1.708.835-.548 0-.959-.234t-.647-.68m2.9-2.245q0-1.15-.362-1.735-.363-.586-1.077-.586-.72 0-1.09.588-.37.589-.37 1.733 0 1.138.37 1.73.37.59 1.09.59.714 0 1.077-.586.363-.585.363-1.734m3.132.726v-3.728h.989v3.728q0 .81.287 1.192t.889.381q.698 0 1.069-.491.37-.492.37-1.41v-3.4h.994V127h-.994v-.902q-.263.52-.717.79-.454.268-1.06.268-.924 0-1.375-.604-.452-.605-.452-1.83m9.251-5.446v1.708h2.245v.768h-2.245v3.266q0 .666.252.93.253.262.881.262h1.112v.79h-1.209q-1.111 0-1.568-.446-.456-.446-.456-1.536v-3.266h-1.606v-.768h1.606v-1.708Zm8.928 1.918v.967q-.424-.247-.854-.371-.43-.123-.875-.123-.672 0-1.002.217-.33.218-.33.663 0 .403.247.602t1.23.387l.397.075q.736.14 1.115.558.378.42.378 1.09 0 .892-.634 1.395-.633.502-1.761.502-.446 0-.935-.094t-1.058-.282v-1.02q.553.284 1.058.426t.956.143q.655 0 1.015-.266t.36-.744q0-.688-1.316-.95l-.043-.012-.37-.075q-.854-.166-1.246-.561t-.392-1.077q0-.865.585-1.335t1.67-.47q.484 0 .93.089.445.089.875.266m6.549-2.213h1.02l-4.221 9.04h-1.026Zm5.743 8.164q-.038 0-.107.005-.07.006-.113.006-1.343 0-2.006-1.031-.664-1.032-.664-3.126 0-2.1.664-3.132.663-1.031 2.017-1.031 1.358 0 2.022 1.031t.663 3.132q0 1.579-.368 2.543t-1.114 1.35l1.074 1.021-.811.537Zm1.343-4.146q0-1.768-.363-2.525-.362-.757-1.19-.757-.821 0-1.184.757-.362.757-.362 2.525 0 1.761.362 2.519.363.757 1.185.757.827 0 1.19-.755.362-.754.362-2.521m5.018 7.321v-6.908h3.851v.924h-2.992v5.983Zm4.014-5.984v-.924h6.837v.924Z"/><path d="M79.879 130.32v-5.984h-2.986v-.924h6.837v.924h-2.992v5.983Zm4.014-5.984v-.924h6.837v.924Zm9.986 5.984v-5.984h-2.986v-.924h6.837v.924h-2.992v5.983Zm4.014-5.984v-.924h6.837v.924Zm9.986 5.984v-5.984h-2.986v-.924h6.837v.924h-2.992v5.983Zm4.014-5.984v-.924h6.837v.924Zm9.986 5.984v-5.984h-2.986v-.924h3.845v6.907Zm15.981-7.321q0-1.768-.362-2.525t-1.19-.757q-.821 0-1.184.757-.362.757-.362 2.525 0 1.761.362 2.519.363.757 1.185.757.827 0 1.19-.755.362-.754.362-2.521m1.134 0q0 2.094-.663 3.126-.664 1.03-2.022 1.03-1.36 0-2.02-1.025-.66-1.026-.66-3.131 0-2.1.663-3.132.663-1.031 2.017-1.031 1.358 0 2.022 1.031t.663 3.132m6.65.273V127h-.994v-3.728q0-.81-.284-1.192-.285-.381-.892-.381-.693 0-1.066.491-.373.492-.373 1.41v3.4h-.989v-6.016h.989v.903q.263-.516.714-.782t1.069-.266q.918 0 1.372.605.454.604.454 1.828m7.371.226v.483h-4.281v.033q-.043 1.23.47 1.767t1.447.537q.473 0 .989-.15.515-.15 1.1-.457v.983q-.563.23-1.087.346t-1.012.116q-1.402 0-2.192-.84-.79-.841-.79-2.318 0-1.44.774-2.3t2.063-.859q1.149 0 1.812.78.664.778.707 1.879m-.989-.29q-.064-.623-.454-1.077-.389-.454-1.12-.454-.714 0-1.176.473t-.505 1.063Zm10.128-4.227h1.09v7.106h3.873V127h-4.963Zm7 0h1.09v7.106h3.873V127h-4.963Zm6.038.027h1.45l1.386 4.071 1.397-4.071h1.455V127h-1.004v-7.063l-1.429 4.21h-.822l-1.434-4.21V127h-.999Zm19.57 7.707q-.413.22-.848.33-.436.11-.924.11-1.542 0-2.393-1.09t-.851-3.066q0-1.966.856-3.065.857-1.098 2.388-1.098.488 0 .924.11.435.11.848.33v1.112q-.397-.327-.854-.5-.456-.171-.918-.171-1.058 0-1.585.816-.526.817-.526 2.466 0 1.643.526 2.46.527.816 1.585.816.472 0 .926-.172t.846-.5Zm5.007-2.739h-.327q-.865 0-1.303.304-.437.303-.437.905 0 .542.327.843.328.3.908.3.816 0 1.284-.566.467-.567.472-1.566v-.22Zm1.918-.408V127h-.994v-.892q-.317.538-.797.793t-1.168.255q-.919 0-1.467-.519-.548-.518-.548-1.388 0-1.004.674-1.525t1.98-.521h1.326v-.156q-.005-.72-.365-1.045t-1.15-.325q-.504 0-1.02.145-.515.145-1.004.425v-.989q.548-.21 1.05-.314t.975-.105q.746 0 1.275.22.53.22.857.661.204.269.29.664.086.394.086 1.184m5.174 1.257q0 .666.244 1.004.245.338.723.338h1.154V127h-1.251q-.886 0-1.372-.567-.486-.566-.486-1.608v-5.441h-1.585v-.774h2.573Zm7 0q0 .666.244 1.004.245.338.723.338h1.154V127h-1.251q-.886 0-1.372-.567-.486-.566-.486-1.608v-5.441h-1.585v-.774h2.573Zm12.281-4.952v3.013h1.257q.752 0 1.173-.398.422-.397.422-1.112 0-.714-.419-1.109-.419-.394-1.176-.394Zm-1.085-.892h2.342q1.343 0 2.036.61.692.61.692 1.785 0 1.187-.69 1.794t-2.038.607h-1.257V127h-1.085Zm11.958 4.517v.483h-4.281v.033q-.043 1.23.47 1.767t1.447.537q.473 0 .989-.15.515-.15 1.1-.457v.983q-.563.23-1.087.346t-1.012.116q-1.402 0-2.192-.84-.79-.841-.79-2.318 0-1.44.774-2.3t2.063-.859q1.149 0 1.812.78.664.778.707 1.879m-.989-.29q-.064-.623-.454-1.077-.389-.454-1.12-.454-.714 0-1.176.473t-.505 1.063Zm8.177-.983q-.317-.247-.645-.36t-.72-.113q-.923 0-1.412.58t-.489 1.676V127h-.994v-6.016h.994v1.177q.247-.64.76-.98.513-.342 1.217-.342.365 0 .682.092.317.091.607.284Zm11.105-2.288-1.144 4.104h2.288Zm-.656-.956h1.316l2.455 8.019H257.3l-.59-2.09h-2.81l-.58 2.09h-1.12Zm10.551 3.244q-.317-.247-.645-.36t-.72-.113q-.923 0-1.412.58t-.489 1.676V127h-.994v-6.016h.994v1.177q.247-.64.76-.98.513-.342 1.217-.342.365 0 .682.092.317.091.607.284Zm7 0q-.317-.247-.645-.36t-.72-.113q-.923 0-1.412.58t-.489 1.676V127h-.994v-6.016h.994v1.177q.247-.64.76-.98.513-.342 1.217-.342.365 0 .682.092.317.091.607.284Zm4.105-.548q-.752 0-1.14.586-.386.585-.386 1.735 0 1.144.387 1.732t1.139.588q.757 0 1.144-.588t.386-1.732q0-1.15-.386-1.735-.387-.586-1.144-.586m0-.838q1.251 0 1.914.811.664.811.664 2.348 0 1.541-.66 2.35-.662.808-1.918.808-1.252 0-1.913-.809-.66-.808-.66-2.35 0-1.536.66-2.347.661-.81 1.913-.81m3.691.144h.978l1.047 4.861.86-3.104h.843l.87 3.104 1.047-4.86h.978L285.215 127h-.945l-.961-3.298-.956 3.298h-.946ZM14.736 53.981h1.09v3.566l3.39-3.566h1.272l-3.12 3.276L20.58 62h-1.311l-2.616-4.018-.827.881V62h-1.09Zm51.143 18.355V64.3h.86v7.111h2.991v.924Zm4.153 16.083 3.277-6.553 3.281 6.553Zm2.847 15.901V90.3h.86v7.112h2.991v.924h-2.992v5.983Z"/><path d="M72.879 117.32V103.3h.86v14.02Zm56 0v-6.908h3.851v.924h-2.992v5.983Zm11.014-5.984v-.924h6.837v.924Zm14 0v-.924h6.837v.924Zm14 0v-.924h6.837v.924Zm14 0v-.924h6.837v.924Zm14 0v-.924h6.837v.924Zm14 0v-.924h6.837v.924Zm14 0v-.924h6.837v.924Zm14 0v-.924h6.837v.924Zm14 0v-.924h6.837v.924Zm14 0v-.924h6.837v.924Zm14 0v-.924h6.837v.924Zm16.986 5.984v-5.984h-2.986v-.924h3.845v6.907ZM76.893 98.336v-.924h6.837v.924Zm7 0v-.924h6.837v.924Zm7 0v-.924h6.837v.924Zm7 0v-.924h6.837v.924Zm7 0v-.924h6.837v.924Zm7 0v-.924h6.837v.924Zm7 0v-.924h6.837v.924Zm7 0v-.924h2.986v-7.111h.86v7.111h2.991v.924Zm7 0v-.924h6.837v.924Zm7 0v-.924h6.837v.924Zm7 0v-.924h6.837v.924Zm7 0v-.924h6.837v.924Zm7 0v-.924h6.837v.924Zm7 0v-.924h6.837v.924Zm7 0v-.924h6.837v.924Zm7 0v-.924h2.986v-7.111h.86v8.035Zm-55.861-9.917 3.277-6.553 3.281 6.553Zm56 0 3.277-6.553 3.281 6.553ZM69.893 72.336v-.924h6.837v.924Zm7 0v-.924h2.986v-7.111h.86v7.111h2.991v.924Zm7 0v-.924h6.837v.924Zm7 0v-.924h2.986v-7.111h.86v7.111h2.991v.924Zm7 0v-.924h6.837v.924Zm7 0v-.924h2.986v-7.111h.86v7.111h2.991v.924Zm7 0v-.924h6.837v.924Zm7 0v-.924h2.986v-7.111h.86v7.111h2.991v.924Zm7 0v-.924h6.837v.924Zm7 0v-.924h2.986v-7.111h.86v7.111h2.991v.924Zm7 0v-.924h6.837v.924Zm7 0v-.924h2.986v-7.111h.86v7.111h2.991v.924Zm7 0v-.924h6.837v.924Zm7 0v-.924h2.986v-7.111h.86v7.111h2.991v.924Zm7 0v-.924h6.837v.924Zm7 0v-.924h2.986v-7.111h.86v7.111h2.991v.924Zm7 0v-.924h6.837v.924Zm7 0v-.924h2.986v-7.111h.86v7.111h2.991v.924Zm7 0v-.924h6.837v.924Zm7 0v-.924h2.986v-7.111h.86v7.111h2.991v.924Zm7 0v-.924h6.837v.924Zm7 0v-.924h2.986v-7.111h.86v7.111h2.991v.924Zm7 0v-.924h6.837v.924Zm7 0v-.924h2.986v-7.111h.86v8.035ZM33.763 61.715q-.413.22-.848.33-.436.11-.924.11-1.542 0-2.393-1.09T28.747 58q0-1.966.856-3.065.857-1.098 2.388-1.098.488 0 .924.11.435.11.848.33v1.112q-.397-.327-.854-.5-.456-.171-.918-.171-1.058 0-1.585.816-.526.817-.526 2.466 0 1.643.526 2.46.527.816 1.585.816.472 0 .926-.172t.846-.5Zm5.007-2.739h-.327q-.865 0-1.303.304-.437.303-.437.905 0 .542.327.843.328.3.908.3.816 0 1.284-.566.467-.567.472-1.566v-.22Zm1.918-.408V62h-.994v-.892q-.317.538-.797.793t-1.168.255q-.919 0-1.467-.519-.548-.518-.548-1.388 0-1.004.674-1.525.675-.521 1.98-.521h1.326v-.156q-.005-.72-.365-1.045t-1.15-.325q-.504 0-1.02.145-.515.145-1.004.425v-.989q.548-.21 1.05-.314t.975-.105q.746 0 1.275.22.53.22.857.661.204.269.29.664.086.394.086 1.184m7.011 3.126q-.398.23-.82.346t-.861.116q-1.397 0-2.184-.838t-.787-2.32.787-2.32 2.184-.839q.435 0 .848.113.414.113.833.35v1.036q-.392-.35-.787-.505t-.894-.156q-.93 0-1.43.602-.499.601-.499 1.719 0 1.111.503 1.716.502.604 1.426.604.515 0 .923-.159.409-.158.758-.491Zm6.946-3.422V62h-.994v-3.728q0-.81-.284-1.192-.285-.381-.892-.381-.693 0-1.066.491-.373.492-.373 1.41V62h-.989v-8.357h.989v3.244q.263-.516.714-.782t1.069-.266q.918 0 1.372.605.454.604.454 1.828m7.371.226v.483h-4.281v.033q-.043 1.23.47 1.767t1.447.537q.473 0 .989-.15.515-.15 1.1-.457v.983q-.563.23-1.087.346t-1.012.116q-1.402 0-2.192-.84-.79-.841-.79-2.318 0-1.44.774-2.3t2.063-.859q1.149 0 1.812.78.664.778.707 1.879m-.989-.29q-.064-.623-.454-1.077-.389-.454-1.12-.454-.714 0-1.176.473t-.505 1.063Zm4.852 7.112v-6.908h3.851v.924h-2.992v5.983Zm4.014-5.984v-.924h6.837v.924Z"/><path d="M79.879 65.32v-5.984h-2.986v-.924h6.837v.924h-2.992v5.983Zm4.014-5.984v-.924h6.837v.924Zm9.986 5.984v-5.984h-2.986v-.924h6.837v.924h-2.992v5.983Zm4.014-5.984v-.924h6.837v.924Zm9.986 5.984v-5.984h-2.986v-.924h6.837v.924h-2.992v5.983Zm4.014-5.984v-.924h6.837v.924Zm9.986 5.984v-5.984h-2.986v-.924h6.837v.924h-2.992v5.983Zm4.014-5.984v-.924h6.837v.924Zm9.986 5.984v-5.984h-2.986v-.924h6.837v.924h-2.992v5.983Zm4.014-5.984v-.924h6.837v.924Zm9.986 5.984v-5.984h-2.986v-.924h6.837v.924h-2.992v5.983Zm4.014-5.984v-.924h6.837v.924Zm9.986 5.984v-5.984h-2.986v-.924h6.837v.924h-2.992v5.983Zm4.014-5.984v-.924h6.837v.924Zm9.986 5.984v-5.984h-2.986v-.924h6.837v.924h-2.992v5.983Zm4.014-5.984v-.924h6.837v.924Zm9.986 5.984v-5.984h-2.986v-.924h6.837v.924h-2.992v5.983Zm4.014-5.984v-.924h6.837v.924Zm9.986 5.984v-5.984h-2.986v-.924h6.837v.924h-2.992v5.983Zm4.014-5.984v-.924h6.837v.924Zm9.986 5.984v-5.984h-2.986v-.924h6.837v.924h-2.992v5.983Zm4.014-5.984v-.924h6.837v.924Zm9.986 5.984v-5.984h-2.986v-.924h3.845v6.907ZM6.893 32.412v-.924h6.837v.924Zm0 1.848v-.924h6.837v.924Zm7-1.848v-.924h6.837v.924Zm0 1.848v-.924h6.837v.924Zm7-1.848v-.924h6.837v.924Zm0 1.848v-.924h6.837v.924Zm7-1.848v-.924h6.837v.924Zm0 1.848v-.924h6.837v.924Zm7-1.848v-.924h6.837v.924Zm0 1.848v-.924h6.837v.924Zm7-1.848v-.924h6.837v.924Zm0 1.848v-.924h6.837v.924Zm7-1.848v-.924h6.837v.924Zm0 1.848v-.924h6.837v.924Zm7-1.848v-.924h6.837v.924Zm0 1.848v-.924h6.837v.924Zm7-1.848v-.924h6.837v.924Zm0 1.848v-.924h6.837v.924Zm7-1.848v-.924h6.837v.924Zm0 1.848v-.924h6.837v.924Zm7-1.848v-.924h6.837v.924Zm0 1.848v-.924h6.837v.924Zm7-1.848v-.924h6.837v.924Zm0 1.848v-.924h6.837v.924Zm7-1.848v-.924h6.837v.924Zm0 1.848v-.924h6.837v.924Zm7-1.848v-.924h6.837v.924Zm0 1.848v-.924h6.837v.924Zm7-1.848v-.924h6.837v.924Zm0 1.848v-.924h6.837v.924Zm7-1.848v-.924h6.837v.924Zm0 1.848v-.924h6.837v.924Zm7-1.848v-.924h6.837v.924Zm0 1.848v-.924h6.837v.924Zm7-1.848v-.924h6.837v.924Zm0 1.848v-.924h6.837v.924Zm7-1.848v-.924h6.837v.924Zm0 1.848v-.924h6.837v.924Zm7-1.848v-.924h6.837v.924Zm0 1.848v-.924h6.837v.924Zm7-1.848v-.924h6.837v.924Zm0 1.848v-.924h6.837v.924Zm7-1.848v-.924h6.837v.924Zm0 1.848v-.924h6.837v.924Zm7-1.848v-.924h6.837v.924Zm0 1.848v-.924h6.837v.924Zm7-1.848v-.924h6.837v.924Zm0 1.848v-.924h6.837v.924Zm7-1.848v-.924h6.837v.924Zm0 1.848v-.924h6.837v.924Zm7-1.848v-.924h6.837v.924Zm0 1.848v-.924h6.837v.924Zm7-1.848v-.924h6.837v.924Zm0 1.848v-.924h6.837v.924Zm7-1.848v-.924h6.837v.924Zm0 1.848v-.924h6.837v.924Zm7-1.848v-.924h6.837v.924Zm0 1.848v-.924h6.837v.924Zm7-1.848v-.924h6.837v.924Zm0 1.848v-.924h6.837v.924Zm7-1.848v-.924h6.837v.924Zm0 1.848v-.924h6.837v.924Zm7-1.848v-.924h2.127v-6.187h.859v7.111Zm0 1.848v-.924h3.845V25.3h.86v8.959Zm-209.7-19.252h1.45l1.386 4.071 1.397-4.071h1.455V23h-1.004v-7.063l-1.429 4.21h-.822l-1.434-4.21V23h-.999Zm12.823 4.49v.483h-4.281v.033q-.043 1.23.47 1.767t1.447.537q.473 0 .989-.15.515-.15 1.1-.457v.983q-.563.23-1.087.346t-1.012.116q-1.402 0-2.192-.84-.79-.841-.79-2.318 0-1.44.774-2.3t2.063-.859q1.149 0 1.812.78.664.778.707 1.879m-.989-.29q-.064-.623-.454-1.077-.389-.454-1.12-.454-.714 0-1.176.473t-.505 1.063Zm6.581-1.456v-3.11h.989V23h-.989v-.757q-.247.445-.658.68-.41.233-.948.233-1.09 0-1.716-.846t-.625-2.334q0-1.466.628-2.301t1.713-.836q.543 0 .956.234.414.234.65.68m-2.905 2.246q0 1.149.365 1.734.365.586 1.08.586.714 0 1.087-.59.373-.592.373-1.73 0-1.144-.373-1.733-.373-.588-1.088-.588-.714 0-1.08.586-.364.585-.364 1.735m6.994-2.993h2.53v5.226h1.96V23h-4.909v-.768h1.96v-4.458h-1.54Zm1.542-2.337h.988v1.247h-.988Zm4.808 6.054v-3.728h.989v3.728q0 .81.287 1.192t.889.381q.698 0 1.069-.491.37-.492.37-1.41v-3.4h.994V23h-.994v-.902q-.263.52-.717.79-.454.268-1.06.268-.924 0-1.375-.604-.452-.605-.452-1.83m9.583-3.125q.183-.387.465-.572.282-.186.68-.186.725 0 1.023.562.298.56.298 2.113V23h-.902v-3.443q0-1.273-.142-1.582-.143-.308-.519-.308-.43 0-.588.33t-.158 1.56V23h-.903v-3.443q0-1.289-.153-1.59-.153-.3-.55-.3-.392 0-.546.33-.153.33-.153 1.56V23h-.897v-6.016h.897v.516q.178-.322.444-.491.265-.17.604-.17.408 0 .68.188.27.188.42.57m13.888 5.548q-.038 0-.107.005-.07.006-.113.006-1.343 0-2.006-1.031-.664-1.032-.664-3.126 0-2.1.664-3.132.663-1.031 2.017-1.031 1.358 0 2.022 1.031T68.994 19q0 1.579-.368 2.543t-1.114 1.35l1.074 1.021-.811.537Zm1.343-4.146q0-1.768-.363-2.525-.362-.757-1.19-.757-.821 0-1.184.757-.362.757-.362 2.525 0 1.761.362 2.519.363.757 1.185.757.827 0 1.19-.755.362-.754.362-2.521m4.513 2.062h1.676v1.423L72.857 24.8l-1.074.006.591-2.32Zm14.935-5.124-1.144 4.104h2.288Zm-.656-.956h1.316L90.424 23H89.3l-.59-2.09H85.9L85.32 23H84.2Zm10.046 7.713q-.398.23-.82.346t-.861.116q-1.397 0-2.184-.838t-.787-2.32.787-2.32 2.184-.839q.435 0 .848.113.414.113.833.35v1.036q-.392-.35-.787-.505t-.894-.156q-.93 0-1.43.602-.499.601-.499 1.719 0 1.111.503 1.716.502.604 1.426.604.515 0 .923-.159.409-.158.758-.491Zm7 0q-.398.23-.82.346t-.861.116q-1.397 0-2.184-.838t-.787-2.32.787-2.32 2.184-.839q.435 0 .848.113.414.113.833.35v1.036q-.392-.35-.787-.505t-.894-.156q-.93 0-1.43.602-.499.601-.499 1.719 0 1.111.503 1.716.502.604 1.426.604.515 0 .923-.159.409-.158.758-.491Zm7.317-3.196v.483h-4.281v.033q-.043 1.23.47 1.767t1.447.537q.473 0 .989-.15.515-.15 1.1-.457v.983q-.563.23-1.087.346t-1.012.116q-1.402 0-2.192-.84-.79-.841-.79-2.318 0-1.44.774-2.3t2.063-.859q1.149 0 1.812.78.664.778.707 1.879m-.989-.29q-.064-.623-.454-1.077-.389-.454-1.12-.454-.714 0-1.176.473t-.505 1.063Zm3.987 3.035v3.045h-.993v-8.304h.993v.768q.247-.445.658-.679t.948-.234q1.09 0 1.71.844.621.843.621 2.336 0 1.466-.623 2.302-.623.835-1.708.835-.548 0-.959-.234t-.647-.68m2.9-2.245q0-1.15-.362-1.735-.363-.586-1.077-.586-.72 0-1.09.588-.37.589-.37 1.733 0 1.138.37 1.73.37.59 1.09.59.714 0 1.077-.586.363-.585.363-1.734m5.383-4.721v1.708h2.245v.768h-2.245v3.266q0 .666.252.93.253.262.881.262h1.112V23h-1.209q-1.111 0-1.568-.446-.456-.446-.456-1.536v-3.266h-1.606v-.768h1.606v-1.708Zm7.472 4.7h-.327q-.865 0-1.303.304-.437.303-.437.905 0 .542.327.843.328.3.908.3.816 0 1.284-.566.467-.567.472-1.566v-.22Zm1.918-.408V23h-.994v-.892q-.317.538-.797.793t-1.168.255q-.919 0-1.467-.519-.548-.518-.548-1.388 0-1.004.674-1.525t1.98-.521h1.326v-.156q-.005-.72-.365-1.045t-1.15-.325q-.504 0-1.02.145-.515.145-1.004.425v-.989q.548-.21 1.05-.314t.975-.105q.746 0 1.275.22.53.22.857.661.204.269.29.664.086.394.086 1.184m6.242.43q0-1.15-.365-1.735t-1.08-.586q-.719 0-1.09.588-.37.589-.37 1.733 0 1.138.37 1.73.371.59 1.09.59.715 0 1.08-.586.366-.585.366-1.734m-2.905-2.246q.236-.44.652-.676t.965-.237q1.085 0 1.708.836.623.835.623 2.301 0 1.488-.626 2.334t-1.716.846q-.537 0-.948-.234t-.658-.68V23h-.988v-8.357h.988Zm8.836 3.073q0 .666.244 1.004.245.338.723.338h1.154V23h-1.251q-.886 0-1.372-.567-.486-.566-.486-1.608v-5.441h-1.585v-.774h2.573Zm9.154-1.327v.483h-4.281v.033q-.043 1.23.47 1.767t1.447.537q.473 0 .989-.15.515-.15 1.1-.457v.983q-.563.23-1.087.346t-1.012.116q-1.402 0-2.192-.84-.79-.841-.79-2.318 0-1.44.774-2.3t2.063-.859q1.149 0 1.812.78.664.778.707 1.879m-.989-.29q-.064-.623-.454-1.077-.389-.454-1.12-.454-.714 0-1.176.473t-.505 1.063Zm11.116-3.335v3.013h1.257q.752 0 1.173-.398.422-.397.422-1.112 0-.714-.419-1.109-.419-.394-1.176-.394Zm-1.085-.892h2.342q1.343 0 2.036.61.692.61.692 1.785 0 1.187-.69 1.794t-2.038.607h-1.257V23h-1.085Zm12.146 3.244q-.317-.247-.645-.36t-.72-.113q-.923 0-1.412.58t-.489 1.676V23h-.994v-6.016h.994v1.177q.247-.64.76-.98.513-.342 1.217-.342.365 0 .682.092.317.091.607.284Zm6.812 1.273v.483h-4.281v.033q-.043 1.23.47 1.767t1.447.537q.473 0 .989-.15.515-.15 1.1-.457v.983q-.563.23-1.087.346t-1.012.116q-1.402 0-2.192-.84-.79-.841-.79-2.318 0-1.44.774-2.3t2.063-.859q1.149 0 1.812.78.664.778.707 1.879m-.989-.29q-.064-.623-.454-1.077-.389-.454-1.12-.454-.714 0-1.176.473t-.505 1.063Zm2.521-.097h5.693v.908h-5.693Zm7.703-4.13h4.722v.913h-3.631v2.148h3.292v.914h-3.292V23h-1.09Zm7.446 2.025h2.53v5.226h1.96V23h-4.909v-.768h1.96v-4.458h-1.54Zm1.542-2.337h.988v1.247h-.988Zm7.623 6.156q0 .666.244 1.004.245.338.723.338h1.154V23h-1.251q-.886 0-1.372-.567-.486-.566-.486-1.608v-5.441h-1.585v-.774h2.573Zm7 0q0 .666.244 1.004.245.338.723.338h1.154V23h-1.251q-.886 0-1.372-.567-.486-.566-.486-1.608v-5.441h-1.585v-.774h2.573Z"/><path d="M226.02 26.32V12.3h.859v14.02Zm1.718 0V12.3h.86v14.02ZM6.893 6.412v-.924h6.837v.924Zm0 1.848v-.924h6.837v.924Zm7-1.848v-.924h6.837v.924Zm0 1.848v-.924h6.837v.924Zm7-1.848v-.924h6.837v.924Zm0 1.848v-.924h6.837v.924Zm7-1.848v-.924h6.837v.924Zm0 1.848v-.924h6.837v.924Zm7-1.848v-.924h6.837v.924Zm0 1.848v-.924h6.837v.924Zm7-1.848v-.924h6.837v.924Zm0 1.848v-.924h6.837v.924Zm7-1.848v-.924h6.837v.924Zm0 1.848v-.924h6.837v.924Zm7-1.848v-.924h6.837v.924Zm0 1.848v-.924h6.837v.924Zm7-1.848v-.924h6.837v.924Zm0 1.848v-.924h6.837v.924Zm7-1.848v-.924h6.837v.924Zm0 1.848v-.924h6.837v.924Zm7-1.848v-.924h6.837v.924Zm0 1.848v-.924h6.837v.924Zm7-1.848v-.924h6.837v.924Zm0 1.848v-.924h6.837v.924Zm7-1.848v-.924h6.837v.924Zm0 1.848v-.924h6.837v.924Zm7-1.848v-.924h6.837v.924Zm0 1.848v-.924h6.837v.924Zm7-1.848v-.924h6.837v.924Zm0 1.848v-.924h6.837v.924Zm7-1.848v-.924h6.837v.924Zm0 1.848v-.924h6.837v.924Zm7-1.848v-.924h6.837v.924Zm0 1.848v-.924h6.837v.924Zm7-1.848v-.924h6.837v.924Zm0 1.848v-.924h6.837v.924Zm7-1.848v-.924h6.837v.924Zm0 1.848v-.924h6.837v.924Zm7-1.848v-.924h6.837v.924Zm0 1.848v-.924h6.837v.924Zm7-1.848v-.924h6.837v.924Zm0 1.848v-.924h6.837v.924Zm7-1.848v-.924h6.837v.924Zm0 1.848v-.924h6.837v.924Zm7-1.848v-.924h6.837v.924Zm0 1.848v-.924h6.837v.924Zm7-1.848v-.924h6.837v.924Zm0 1.848v-.924h6.837v.924Zm7-1.848v-.924h6.837v.924Zm0 1.848v-.924h6.837v.924Zm7-1.848v-.924h6.837v.924Zm0 1.848v-.924h6.837v.924Zm7-1.848v-.924h6.837v.924Zm0 1.848v-.924h6.837v.924Zm7-1.848v-.924h6.837v.924Zm0 1.848v-.924h6.837v.924Zm7-1.848v-.924h6.837v.924Zm0 1.848v-.924h6.837v.924Zm7-1.848v-.924h6.837v.924Zm0 1.848v-.924h6.837v.924Zm7-1.848v-.924h6.837v.924Zm0 1.848v-.924h6.837v.924Z"/><path d="M227.738 13.32V6.411h-3.845v-.924h4.705v7.831Zm-1.718 0V8.26h-2.127v-.924h2.986v5.983Z"/></svg>
