<svg xmlns="http://www.w3.org/2000/svg" width="330" height="170" viewBox="0 0 330 170"><style>@media (prefers-color-scheme:dark){path{fill:#f6f6f6}}</style><path d="M2.879 13.32V6.411H6.73v.924H3.738v5.983Z"/><path d="M2.879 26.32V12.3h.86v14.02Z"/><path d="M2.879 33.336V25.3h.86v7.111H6.73v.924Zm0 31.984v-6.908H6.73v.924H3.738v5.983Z"/><path d="M2.879 78.32V64.3h.86v14.02Z"/><path d="M2.879 91.32V77.3h.86v14.02Z"/><path d="M2.879 104.32V90.3h.86v14.02Z"/><path d="M2.879 111.336V103.3h.86v7.111H6.73v.924Zm0 31.984v-6.908H6.73v.924H3.738v5.983Z"/><path d="M2.879 156.32V142.3h.86v14.02Z"/><path d="M2.879 163.336V155.3h.86v7.111H6.73v.924Zm4.014 0v-.924h6.837v.924Zm7 0v-.924h6.837v.924Zm7 0v-.924h6.837v.924Zm7 0v-.924h6.837v.924Zm7 0v-.924h2.986v-7.111h.86v7.111h2.991v.924Zm7 0v-.924h6.837v.924Zm7 0v-.924h6.837v.924Zm7 0v-.924h6.837v.924Zm7 0v-.924h6.837v.924Zm7 0v-.924h2.986v-7.111h.86v7.111h2.991v.924Zm7 0v-.924h6.837v.924Zm7 0v-.924h6.837v.924Zm7 0v-.924h6.837v.924Zm7 0v-.924h6.837v.924Zm7 0v-.924h2.986v-7.111h.86v8.035Zm74.967-1.337q0-1.768-.362-2.525t-1.19-.757q-.821 0-1.184.757-.362.757-.362 2.525 0 1.761.362 2.519.363.757 1.185.757.827 0 1.19-.755.362-.754.362-2.521m1.134 0q0 2.094-.663 3.126-.664 1.03-2.022 1.03-1.36 0-2.02-1.025-.66-1.026-.66-3.131 0-2.1.663-3.132.663-1.031 2.017-1.031 1.358 0 2.022 1.031t.663 3.132m2.052 1.724v-3.728h.989v3.728q0 .81.287 1.192t.889.381q.698 0 1.069-.491.37-.492.37-1.41v-3.4h.994V166h-.994v-.902q-.263.52-.717.79-.454.268-1.06.268-.924 0-1.375-.604-.452-.605-.452-1.83m9.251-5.446v1.708h2.245v.768h-2.245v3.266q0 .666.252.93.253.262.881.262h1.112v.79h-1.209q-1.111 0-1.568-.446-.456-.446-.456-1.536v-3.266h-1.606v-.768h1.606v-1.708Zm5.716 6.967v3.045h-.993v-8.304h.993v.768q.247-.445.658-.679t.948-.234q1.09 0 1.71.844.621.843.621 2.336 0 1.466-.623 2.302-.623.835-1.708.835-.548 0-.959-.234t-.647-.68m2.9-2.245q0-1.15-.362-1.735-.363-.586-1.077-.586-.72 0-1.09.588-.37.589-.37 1.733 0 1.138.37 1.73.37.59 1.09.59.714 0 1.077-.586.363-.585.363-1.734m3.132.726v-3.728h.989v3.728q0 .81.287 1.192t.889.381q.698 0 1.069-.491.37-.492.37-1.41v-3.4h.994V166h-.994v-.902q-.263.52-.717.79-.454.268-1.06.268-.924 0-1.375-.604-.452-.605-.452-1.83m9.251-5.446v1.708h2.245v.768h-2.245v3.266q0 .666.252.93.253.262.881.262h1.112v.79h-1.209q-1.111 0-1.568-.446-.456-.446-.456-1.536v-3.266h-1.606v-.768h1.606v-1.708Zm8.928 1.918v.967q-.424-.247-.854-.371-.43-.123-.875-.123-.672 0-1.002.217-.33.218-.33.663 0 .403.247.602t1.23.387l.397.075q.736.14 1.115.558.378.42.378 1.09 0 .892-.634 1.395-.633.502-1.761.502-.446 0-.935-.094t-1.058-.282v-1.02q.553.284 1.058.426t.956.143q.655 0 1.015-.266t.36-.744q0-.688-1.316-.95l-.043-.012-.37-.075q-.854-.166-1.246-.561t-.392-1.077q0-.865.585-1.335t1.67-.47q.484 0 .93.089.445.089.875.266M20.574 154.02v.914H14v-.913Z"/><path d="M37.879 156.32V142.3h.86v14.02Zm17.695-2.3v.914H49v-.913Zm17.305 2.3V142.3h.86v14.02Zm12.372-11.339h4.722v.913h-3.631v2.148h3.292v.914h-3.292V153h-1.09Zm9.519 4.995h-.327q-.865 0-1.303.304-.437.303-.437.905 0 .542.327.843.328.3.908.3.816 0 1.284-.566.467-.567.472-1.566v-.22Zm1.918-.408V153h-.994v-.892q-.317.538-.797.793t-1.168.255q-.919 0-1.467-.519-.548-.518-.548-1.388 0-1.004.674-1.525t1.98-.521h1.326v-.156q-.005-.72-.365-1.045t-1.15-.325q-.504 0-1.02.145-.515.145-1.004.425v-.989q.548-.21 1.05-.314t.975-.105q.746 0 1.275.22.53.22.857.661.204.269.29.664.086.394.086 1.184m11.191 6.752V142.3h.86v14.02Zm4.153-6.177 6.558-3.277v6.553Zm13.861.193v-.924h6.837v.924Zm14 0v-.924h6.837v.924Zm14 0v-.924h6.837v.924Zm9.449 1.772q1.37 0 1.912-.674t.542-2.435q0-1.778-.54-2.452t-1.914-.674h-.516v6.235Zm.021-7.127q1.837 0 2.707.977.87.978.87 3.04 0 2.052-.87 3.027t-2.707.975h-1.627v-8.019Zm10.841 3.244q-.317-.247-.645-.36t-.72-.113q-.923 0-1.412.58t-.489 1.676V153h-.994v-6.016h.994v1.177q.247-.64.76-.98.513-.342 1.217-.342.365 0 .682.092.317.091.607.284Zm2.493-1.219h2.53v5.226h1.96V153h-4.909v-.768h1.96v-4.458h-1.54Zm1.542-2.337h.988v1.247h-.988Zm4.298 2.315h1.026l1.746 5.05 1.75-5.05h1.026L185.948 153h-1.273Zm12.479 2.514v.483h-4.281v.033q-.043 1.23.47 1.767t1.447.537q.473 0 .989-.15.515-.15 1.1-.457v.983q-.563.23-1.087.346t-1.012.116q-1.402 0-2.192-.84-.79-.841-.79-2.318 0-1.44.774-2.3t2.063-.859q1.149 0 1.812.78.664.778.707 1.879m-.989-.29q-.064-.623-.454-1.077-.389-.454-1.12-.454-.714 0-1.176.473t-.505 1.063Zm7.199-2.014v.967q-.424-.247-.854-.371-.43-.123-.875-.123-.672 0-1.002.217-.33.218-.33.663 0 .403.247.602t1.23.387l.397.075q.736.14 1.115.558.378.42.378 1.09 0 .892-.634 1.395-.633.502-1.761.502-.446 0-.935-.094t-1.058-.282v-1.02q.553.284 1.058.426t.956.143q.655 0 1.015-.266t.36-.744q0-.688-1.316-.95l-.043-.012-.37-.075q-.854-.166-1.246-.561t-.392-1.077q0-.865.585-1.335t1.67-.47q.484 0 .93.089.445.089.875.266m8.876-2.186h1.482l3.137 6.58v-6.58h1.155V153h-1.482l-3.137-6.58V153h-1.155Zm7.945 5.715v-3.728h.989v3.728q0 .81.287 1.192t.889.381q.698 0 1.069-.491.37-.492.37-1.41v-3.4h.994V153h-.994v-.902q-.263.52-.717.79-.454.268-1.06.268-.924 0-1.375-.604-.452-.605-.452-1.83m9.583-3.125q.183-.387.465-.572.282-.186.68-.186.725 0 1.023.562.298.56.298 2.113V153h-.902v-3.443q0-1.273-.142-1.582-.143-.308-.519-.308-.43 0-.588.33t-.158 1.56V153h-.903v-3.443q0-1.289-.153-1.59-.153-.3-.55-.3-.392 0-.546.33-.153.33-.153 1.56V153h-.897v-6.016h.897v.516q.178-.322.444-.491.265-.17.604-.17.408 0 .68.188.27.188.42.57m5.46 3.233h1.89V153h-1.89Zm18.803-.494v-.924h6.837v.924Zm14 0v-.924h6.837v.924Zm-259-13v-.924h6.837v.924Zm7 0v-.924h6.837v.924Zm7 0v-.924h6.837v.924Zm7 0v-.924h6.837v.924Z"/><path d="M37.879 143.32v-5.984h-2.986v-.924h6.837v.924h-2.992v5.983Zm4.014-5.984v-.924h6.837v.924Zm7 0v-.924h6.837v.924Zm7 0v-.924h6.837v.924Zm7 0v-.924h6.837v.924Zm9.986 5.984v-5.984h-2.986v-.924h6.837v.924h-2.992v5.983Zm4.014-5.984v-.924h6.837v.924Zm7 0v-.924h6.837v.924Zm7 0v-.924h6.837v.924Zm7 0v-.924h6.837v.924Zm9.986 5.984v-5.984h-2.986v-.924h3.845v6.907Zm168 0V129.3h.86v14.02Zm-223.57-15.901-3.277-6.553h6.558Zm90.57-3.083V116.3h.86v7.111h2.991v.924Zm14 0V116.3h.86v7.111h2.991v.924Zm4.014 0v-.924h6.837v.924Zm7 0v-.924h6.837v.924Zm7 0v-.924h6.837v.924Zm7 0v-.924h6.837v.924Zm7 0v-.924h6.837v.924Zm7 0v-.924h6.837v.924Zm7 0v-.924h6.837v.924Zm7 0v-.924h6.837v.924Zm7 0v-.924h6.837v.924Zm7 0v-.924h6.837v.924Zm7 0v-.924h6.837v.924Zm7 0v-.924h6.837v.924Zm7 0v-.924h6.837v.924Zm7 0v-.924h6.837v.924Zm7 0v-.924h2.986v-7.111h.86v8.035Zm9.986 0V116.3h.86v7.111h2.991v.924Zm4.014 0v-.924h6.837v.924Zm7 0v-.924h2.986v-7.111h.86v8.035Zm-273-13v-.924h6.837v.924Zm7 0v-.924h6.837v.924Zm7 0v-.924h6.837v.924Zm7 0v-.924h6.837v.924Zm7 0v-.924h6.837v.924Zm7 0v-.924h6.837v.924Zm9.986 5.984v-5.984h-2.986v-.924h6.837v.924h-2.992v5.983Zm4.014-5.984v-.924h6.837v.924Zm7 0v-.924h6.837v.924Zm7 0v-.924h6.837v.924Zm7 0v-.924h6.837v.924Zm7 0v-.924h6.837v.924Zm7 0v-.924h6.837v.924Zm7 0v-.924h6.837v.924Zm7 0v-.924h2.986v-7.111h.86v8.035Z"/><path d="M142.879 117.32V103.3h.86v14.02Zm14 0V103.3h.86v14.02Zm105 0V103.3h.86v14.02Zm7 0V103.3h.86v14.02Zm8.289-7.612q.79.21 1.208.744.42.535.42 1.335 0 1.107-.744 1.738-.744.63-2.06.63-.554 0-1.128-.101-.575-.102-1.128-.296v-1.08q.548.285 1.08.425.531.14 1.058.14.891 0 1.37-.403.477-.403.477-1.16 0-.699-.478-1.11-.478-.41-1.294-.41h-.827v-.892h.827q.746 0 1.165-.328.42-.327.42-.913 0-.617-.39-.948t-1.11-.33q-.477 0-.988.107-.51.108-1.068.323v-1q.65-.171 1.157-.257.508-.086.9-.086 1.17 0 1.871.588t.701 1.56q0 .661-.367 1.101-.368.44-1.072.623m5.711 7.612V103.3h.86v14.02Z"/><path fill-opacity=".506" d="M301.193 106.008h1.45l1.386 4.071 1.397-4.071h1.455V114h-1.004v-7.063l-1.429 4.21h-.822l-1.434-4.21V114h-.999Zm8.504 1.998h2.53v5.226h1.96V114h-4.909v-.768h1.96v-4.458h-1.54Zm1.542-2.337h.988v1.247h-.988Z"/><path d="M43.155 79.981h1.09v7.106h3.873V88h-4.963Zm7 0h1.09v7.106h3.873V88h-4.963Zm57.724 24.339V90.3h.86v14.02Zm35 0V90.3h.86v14.02Zm14 0V90.3h.86v7.112h2.991v.924h-2.992v5.983Zm11.014-5.984v-.924h6.837v.924Zm14 0v-.924h6.837v.924Zm14 0v-.924h6.837v.924Zm14 0v-.924h6.837v.924Zm14 0v-.924h6.837v.924Zm14 0v-.924h6.837v.924Zm14 0v-.924h6.837v.924Zm9.986 5.984V90.3h.86v14.02Zm7 0V90.3h.86v7.112h2.991v.924h-2.992v5.983Zm4.014-5.984v-.924h6.837v.924Zm9.986 5.984v-5.984h-2.986v-.924h2.986v-7.111h.86v14.018ZM56.193 80.008h1.45l1.386 4.071 1.397-4.071h1.455V88h-1.004v-7.063l-1.429 4.21h-.822l-1.434-4.21V88h-.999Z"/><path d="M107.879 91.32V77.3h.86v14.02Zm35 0V77.3h.86v14.02Zm14 0V77.3h.86v14.02Zm49.639-3.175q-.038 0-.107.005-.07.006-.113.006-1.343 0-2.006-1.031-.664-1.032-.664-3.126 0-2.1.664-3.132.663-1.031 2.017-1.031 1.358 0 2.022 1.031t.663 3.132q0 1.579-.368 2.543t-1.114 1.35l1.074 1.021-.811.537Zm1.343-4.146q0-1.768-.363-2.525-.362-.757-1.19-.757-.821 0-1.184.757-.362.757-.362 2.525 0 1.761.362 2.519.363.757 1.185.757.827 0 1.19-.755.362-.754.362-2.521m54.018 7.321V77.3h.86v14.02Zm7 0V77.3h.86v14.02Zm6.124-4.233h3.685V88h-4.872v-.913q1.005-1.058 1.757-1.87.752-.81 1.036-1.143.537-.656.725-1.061.188-.406.188-.83 0-.671-.394-1.053-.395-.381-1.083-.381-.488 0-1.025.177-.538.178-1.14.537v-1.095q.554-.264 1.089-.398t1.055-.134q1.176 0 1.893.626.717.625.717 1.64 0 .516-.239 1.032-.239.515-.776 1.138-.3.35-.873.967-.572.618-1.743 1.848m7.876 4.233V77.3h.86v14.02Z"/><path fill-opacity=".506" d="M305.082 84.213q.419.108.714.406.296.298.736 1.19l1.09 2.191h-1.165l-.956-2.025q-.414-.865-.744-1.114t-.862-.25h-1.037V88h-1.09v-8.019h2.234q1.322 0 2.025.596.704.596.704 1.724 0 .795-.432 1.297-.433.503-1.217.615m-2.224-3.34v2.846h1.187q.78 0 1.16-.349.382-.349.382-1.069 0-.693-.406-1.06-.405-.368-1.179-.368Zm11.158 3.625v.483h-4.281v.033q-.043 1.23.47 1.767t1.447.537q.473 0 .989-.15.515-.15 1.1-.457v.983q-.563.23-1.087.346t-1.012.116q-1.402 0-2.192-.84-.79-.841-.79-2.318 0-1.44.774-2.3t2.063-.859q1.149 0 1.812.78.664.778.707 1.879m-.989-.29q-.064-.623-.454-1.077-.389-.454-1.12-.454-.714 0-1.176.473t-.505 1.063Z"/><path d="M87.518 75.145q-.038 0-.107.005-.07.006-.113.006-1.343 0-2.006-1.031-.664-1.032-.664-3.126 0-2.1.664-3.132.663-1.031 2.017-1.031 1.358 0 2.022 1.031T89.994 71q0 1.579-.368 2.543t-1.114 1.35l1.074 1.021-.811.537Zm1.343-4.146q0-1.768-.363-2.525-.362-.757-1.19-.757-.821 0-1.184.757-.362.757-.362 2.525 0 1.761.362 2.519.363.757 1.185.757.827 0 1.19-.755.362-.754.362-2.521m2.784 3.808h5.333v-5.328h-5.333Zm-.613.612v-6.553h6.558v6.553Zm6.861-3.083v-.924h6.837v.924Zm10.845 0v5.983h-.86v-5.983h-2.985v-.924h2.986v-7.111h.86v7.111h2.991v.924Zm3.155 0v-.924h6.837v.924Zm7 0v-.924h6.837v.924Zm7 0v-.924h6.837v.924Zm7 0v-.924h6.837v.924Zm9.986 5.984v-5.984h-2.986v-.924h2.986v-7.111h.86v14.018Zm14 0V64.3h.86v7.112h2.991v.924h-2.992v5.983Zm11.014-5.984v-.924h6.837v.924Zm14 0v-.924h6.837v.924Zm14 0v-.924h6.837v.924Zm14 0v-.924h6.837v.924Zm14 0v-.924h6.837v.924Zm14 0v-.924h6.837v.924Zm14 0v-.924h6.837v.924Zm9.986 5.984V64.3h.86v14.02Zm7 0V64.3h.86v7.112h2.991v.924h-2.992v5.983Zm4.014-5.984v-.924h6.837v.924Zm9.986 5.984v-5.984h-2.986v-.924h2.986v-7.111h.86v14.018ZM6.893 59.336v-.924h6.837v.924Zm7 0v-.924h6.837v.924Zm7 0v-.924h6.837v.924Zm7 0v-.924h6.837v.924Zm7 0v-.924h6.837v.924Zm7 0v-.924h6.837v.924Zm10.416 3.083-3.277-6.553h6.558Zm3.584-3.083v-.924h6.837v.924Zm7 0v-.924h6.837v.924Zm7 0v-.924h6.837v.924Zm7 0v-.924h6.837v.924Zm7 0v-.924h6.837v.924Zm7 0v-.924h6.837v.924Zm7 0v-.924h6.837v.924Z"/><path d="M107.879 65.32v-5.984h-2.986v-.924h3.845v6.907Zm35 0V51.3h.86v14.02Zm14 0V51.3h.86v14.02Zm105 0V51.3h.86v14.02Zm7 0V51.3h.86v14.02Zm5.571-4.228h1.687v-6.058l-2.02.972v-1.042l2.009-.956h1.085v7.084h1.665V62h-4.426Zm8.429 4.228V51.3h.86v14.02Z"/><path fill-opacity=".506" d="M303.342 61.108q1.37 0 1.912-.674t.542-2.435q0-1.778-.54-2.452t-1.914-.674h-.516v6.235Zm.021-7.127q1.837 0 2.707.977.87.978.87 3.04 0 2.052-.87 3.027t-2.707.975h-1.627v-8.019Zm7.946 2.696q-.752 0-1.14.586-.386.585-.386 1.735 0 1.144.387 1.732t1.139.588q.757 0 1.144-.588t.386-1.732q0-1.15-.386-1.735-.387-.586-1.144-.586m0-.838q1.251 0 1.914.811.664.811.664 2.348 0 1.541-.66 2.35-.662.808-1.918.808-1.252 0-1.913-.809-.66-.808-.66-2.35 0-1.536.66-2.347.661-.81 1.913-.81"/><path d="M51.879 52.32V38.3h.86v14.02Zm91 0v-6.908h3.851v.924h-2.992v5.983Zm14 0v-6.908h3.851v.924h-2.992v5.983Zm4.014-5.984v-.924h6.837v.924Zm7 0v-.924h6.837v.924Zm7 0v-.924h6.837v.924Zm7 0v-.924h6.837v.924Zm7 0v-.924h6.837v.924Zm7 0v-.924h6.837v.924Zm7 0v-.924h6.837v.924Zm7 0v-.924h6.837v.924Zm7 0v-.924h6.837v.924Zm7 0v-.924h6.837v.924Zm7 0v-.924h6.837v.924Zm7 0v-.924h6.837v.924Zm7 0v-.924h6.837v.924Zm7 0v-.924h6.837v.924Zm9.986 5.984v-5.984h-2.986v-.924h3.845v6.907Zm7 0v-6.908h3.851v.924h-2.992v5.983Zm4.014-5.984v-.924h6.837v.924Zm9.986 5.984v-5.984h-2.986v-.924h3.845v6.907ZM6.893 33.336v-.924h6.837v.924Zm7 0v-.924h6.837v.924Zm7 0v-.924h6.837v.924Zm7 0v-.924h6.837v.924Zm7 0v-.924h2.986v-7.111h.86v7.111h2.991v.924Zm7 0v-.924h6.837v.924Zm7 0v-.924h6.837v.924Zm7 0v-.924h6.837v.924Zm7 0v-.924h6.837v.924Zm7 0v-.924h2.986v-7.111h.86v7.111h2.991v.924Zm7 0v-.924h6.837v.924Zm7 0v-.924h6.837v.924Zm7 0v-.924h6.837v.924Zm7 0v-.924h6.837v.924Zm7 0v-.924h2.986v-7.111h.86v8.035Zm171.416 3.083-3.277-6.553h6.558ZM16.342 22.108q1.37 0 1.912-.674T18.796 19q0-1.778-.54-2.452t-1.914-.674h-.516v6.235Zm.021-7.127q1.837 0 2.707.977.87.978.87 3.04 0 2.052-.87 3.027T16.363 23h-1.627v-8.019Zm7.946 2.696q-.752 0-1.14.586-.386.585-.386 1.735 0 1.144.387 1.732t1.139.588q.757 0 1.144-.588t.386-1.732q0-1.15-.386-1.735-.387-.586-1.144-.586m0-.838q1.251 0 1.914.811.664.811.664 2.348 0 1.541-.66 2.35-.662.808-1.918.808-1.252 0-1.913-.809-.66-.808-.66-2.35 0-1.536.66-2.347.661-.81 1.913-.81"/><path d="M37.879 26.32V12.3h.86v14.02Zm15.203-7.107q.419.108.714.406.296.298.736 1.19L55.622 23h-1.165l-.956-2.025q-.414-.865-.744-1.114t-.862-.25h-1.037V23h-1.09v-8.019h2.234q1.322 0 2.025.596.704.596.704 1.724 0 .795-.432 1.297-.433.503-1.217.615m-2.224-3.34v2.846h1.187q.78 0 1.16-.349.382-.349.382-1.069 0-.693-.406-1.06-.405-.368-1.179-.368Zm11.158 3.625v.483h-4.281v.033q-.043 1.23.47 1.767t1.447.537q.473 0 .989-.15.515-.15 1.1-.457v.983q-.563.23-1.087.346t-1.012.116q-1.402 0-2.192-.84-.79-.841-.79-2.318 0-1.44.774-2.3t2.063-.859q1.149 0 1.812.78.664.778.707 1.879m-.989-.29q-.064-.623-.454-1.077-.389-.454-1.12-.454-.714 0-1.176.473t-.505 1.063Zm11.852 7.112V12.3h.86v14.02Zm11.314-11.312h1.45l1.386 4.071 1.397-4.071h1.455V23h-1.004v-7.063l-1.429 4.21h-.822l-1.434-4.21V23h-.999Zm8.504 1.998h2.53v5.226h1.96V23h-4.909v-.768h1.96v-4.458h-1.54Zm1.542-2.337h.988v1.247h-.988Zm13.64 11.651V12.3h.86v14.02Zm4.014-5.984v-.924h6.837v.924Zm14 0v-.924h6.837v.924Zm14 0v-.924h6.837v.924Zm14 0v-.924h6.837v.924Zm14 0v-.924h6.837v.924Zm11.189-1.123q.419.108.714.406.296.298.736 1.19l1.09 2.191h-1.165l-.956-2.025q-.414-.865-.744-1.114t-.862-.25h-1.037V23h-1.09v-8.019h2.234q1.322 0 2.025.596.704.596.704 1.724 0 .795-.432 1.297-.433.503-1.217.615m-2.224-3.34v2.846h1.187q.78 0 1.16-.349.382-.349.382-1.069 0-.693-.406-1.06-.405-.368-1.179-.368Zm8.451 1.804q-.752 0-1.14.586-.386.585-.386 1.735 0 1.144.387 1.732t1.139.588q.757 0 1.144-.588t.386-1.732q0-1.15-.386-1.735-.387-.586-1.144-.586m0-.838q1.251 0 1.914.811.664.811.664 2.348 0 1.541-.66 2.35-.662.808-1.918.808-1.252 0-1.913-.809-.66-.808-.66-2.35 0-1.536.66-2.347.661-.81 1.913-.81m3.691.144h.978l1.047 4.861.86-3.104h.843l.87 3.104 1.047-4.86h.978L194.215 23h-.945l-.961-3.298-.956 3.298h-.946Zm12.226.21v.967q-.424-.247-.854-.371-.43-.123-.875-.123-.672 0-1.002.217-.33.218-.33.663 0 .403.247.602t1.23.387l.397.075q.736.14 1.115.558.378.42.378 1.09 0 .892-.634 1.395-.633.502-1.761.502-.446 0-.935-.094t-1.058-.282v-1.02q.553.284 1.058.426t.956.143q.655 0 1.015-.266t.36-.744q0-.688-1.316-.95l-.043-.012-.37-.075q-.854-.166-1.246-.561t-.392-1.077q0-.865.585-1.335t1.67-.47q.484 0 .93.089.445.089.875.266m8.667 3.142v-.924h6.837v.924Zm14 0v-.924h6.837v.924Zm14 0v-.924h6.837v.924Zm14 0v-.924h6.837v.924Zm14 0v-.924h6.837v.924Zm-259-13v-.924h6.837v.924Zm7 0v-.924h6.837v.924Zm7 0v-.924h6.837v.924Zm7 0v-.924h6.837v.924Z"/><path d="M37.879 13.32V7.335h-2.986v-.924h6.837v.924h-2.992v5.983Zm4.014-5.984v-.924h6.837v.924Zm7 0v-.924h6.837v.924Zm7 0v-.924h6.837v.924Zm7 0v-.924h6.837v.924Zm9.986 5.984V7.335h-2.986v-.924h6.837v.924h-2.992v5.983Zm4.014-5.984v-.924h6.837v.924Zm7 0v-.924h6.837v.924Zm7 0v-.924h6.837v.924Zm7 0v-.924h6.837v.924Zm9.986 5.984V7.335h-2.986v-.924h3.845v6.907Zm34.463-4.212q1.37 0 1.912-.674T144.796 6q0-1.778-.54-2.452t-1.914-.674h-.516v6.235Zm.021-7.127q1.837 0 2.707.977.87.978.87 3.04 0 2.052-.87 3.027t-2.707.975h-1.627V1.981Zm10.653 4.517v.483h-4.281v.033q-.043 1.23.47 1.767t1.447.537q.473 0 .989-.15.515-.15 1.1-.457v.983q-.563.23-1.087.346t-1.012.116q-1.402 0-2.192-.84-.79-.841-.79-2.318 0-1.44.774-2.3t2.063-.859q1.149 0 1.812.78.664.778.707 1.879m-.989-.29q-.064-.623-.454-1.077-.389-.454-1.12-.454-.714 0-1.176.473t-.505 1.063Zm5.271-3.932v1.708h2.245v.768h-2.245v3.266q0 .666.252.93.253.262.881.262h1.112V10h-1.209q-1.111 0-1.568-.446-.456-.446-.456-1.536V4.752h-1.606v-.768h1.606V2.276Zm9.718 4.222v.483h-4.281v.033q-.043 1.23.47 1.767t1.447.537q.473 0 .989-.15.515-.15 1.1-.457v.983q-.563.23-1.087.346t-1.012.116q-1.402 0-2.192-.84-.79-.841-.79-2.318 0-1.44.774-2.3t2.063-.859q1.149 0 1.812.78.664.778.707 1.879m-.989-.29q-.064-.623-.454-1.077-.389-.454-1.12-.454-.714 0-1.176.473t-.505 1.063Zm8.177-.983q-.317-.247-.645-.36t-.72-.113q-.923 0-1.412.58t-.489 1.676V10h-.994V3.984h.994v1.177q.247-.64.76-.98.513-.342 1.217-.342.365 0 .682.092.317.091.607.284Zm4.426-.628q.183-.387.465-.572.282-.186.68-.186.725 0 1.023.562.298.56.298 2.113V10h-.902V6.557q0-1.273-.142-1.582-.143-.308-.519-.308-.43 0-.588.33t-.158 1.56V10h-.903V6.557q0-1.289-.153-1.59-.153-.3-.55-.3-.392 0-.546.33-.153.33-.153 1.56V10h-.897V3.984h.897V4.5q.178-.322.444-.491.265-.17.604-.17.408 0 .68.188.27.188.42.57m5.067-.591h2.53v5.226h1.96V10h-4.909v-.768h1.96V4.774h-1.54Zm1.542-2.337h.988v1.247h-.988Zm9.406 4.603V10h-.994V6.272q0-.81-.284-1.192-.285-.381-.892-.381-.693 0-1.066.491-.373.492-.373 1.41V10h-.989V3.984h.989v.903q.263-.516.714-.782t1.069-.266q.918 0 1.372.605.454.604.454 1.828m7.371.226v.483h-4.281v.033q-.043 1.23.47 1.767t1.447.537q.473 0 .989-.15.515-.15 1.1-.457v.983q-.563.23-1.087.346t-1.012.116q-1.402 0-2.192-.84-.79-.841-.79-2.318 0-1.44.774-2.3t2.063-.859q1.149 0 1.812.78.664.778.707 1.879m-.989-.29q-.064-.623-.454-1.077-.389-.454-1.12-.454-.714 0-1.176.473t-.505 1.063Zm7.199-2.014v.967q-.424-.247-.854-.371-.43-.123-.875-.123-.672 0-1.002.217-.33.218-.33.663 0 .403.247.602t1.23.387l.397.075q.736.14 1.115.558.378.42.378 1.09 0 .892-.634 1.395-.633.502-1.761.502-.446 0-.935-.094t-1.058-.282V8.76q.553.284 1.058.426t.956.143q.655 0 1.015-.266t.36-.744q0-.688-1.316-.95l-.043-.012-.37-.075q-.854-.166-1.246-.561t-.392-1.077q0-.865.585-1.335t1.67-.47q.484 0 .93.089.445.089.875.266m8.876-2.186h1.482l3.137 6.58v-6.58h1.155V10h-1.482l-3.137-6.58V10h-1.155Zm7.945 5.715V3.995h.989v3.728q0 .81.287 1.192t.889.381q.698 0 1.069-.491.37-.492.37-1.41v-3.4h.994V10h-.994v-.902q-.263.52-.717.79-.454.268-1.06.268-.924 0-1.375-.604-.452-.605-.452-1.83m9.583-3.125q.183-.387.465-.572.282-.186.68-.186.725 0 1.023.562.298.56.298 2.113V10h-.902V6.557q0-1.273-.142-1.582-.143-.308-.519-.308-.43 0-.588.33t-.158 1.56V10h-.903V6.557q0-1.289-.153-1.59-.153-.3-.55-.3-.392 0-.546.33-.153.33-.153 1.56V10h-.897V3.984h.897V4.5q.178-.322.444-.491.265-.17.604-.17.408 0 .68.188.27.188.42.57m5.46 3.233h1.89V10h-1.89Z"/></svg>
