<svg xmlns="http://www.w3.org/2000/svg" width="323" height="339" viewBox="0 0 323 339"><style>@media (prefers-color-scheme:dark){path{fill:#f6f6f6}}</style><path d="M2.879 78.32v-6.908H6.73v.924H3.738v5.983Z"/><path d="M2.879 91.32V77.3h.86v14.02Z"/><path d="M2.879 104.32V90.3h.86v14.02Z"/><path d="M2.879 117.32V103.3h.86v14.02Z"/><path d="M2.879 124.336V116.3h.86v7.111H6.73v.924Zm35 31.984v-6.908h3.851v.924h-2.992v5.983Z"/><path d="M37.879 169.32V155.3h.86v14.02Z"/><path d="M37.879 176.336V168.3h.86v7.111h2.991v.924Zm21 18.984V181.3h.86v14.02Z"/><path d="M58.879 208.32V194.3h.86v14.02Z"/><path d="M58.879 221.32V207.3h.86v14.02Z"/><path d="M58.879 234.32V220.3h.86v14.02Z"/><path d="M58.879 247.32V233.3h.86v14.02Z"/><path d="M58.879 260.32V246.3h.86v14.02Z"/><path d="M58.879 273.32V259.3h.86v14.02Z"/><path d="M58.879 286.32V272.3h.86v14.02Z"/><path d="M58.879 299.32V285.3h.86v14.02Z"/><path d="M58.879 312.32V298.3h.86v14.02Z"/><path d="M58.879 325.32V311.3h.86v14.02Z"/><path d="M58.879 332.336V324.3h.86v7.111h2.991v.924Zm4.014 0v-.924h6.837v.924Zm7 0v-.924h6.837v.924Zm7 0v-.924h6.837v.924Zm7 0v-.924h6.837v.924Zm7 0v-.924h6.837v.924Zm7 0v-.924h6.837v.924Zm7 0v-.924h6.837v.924Zm7 0v-.924h6.837v.924Zm7.359-5.355h6.118v.913h-2.508V335h-1.09v-7.106h-2.52Zm12.393 4.291V335h-.994v-3.728q0-.81-.284-1.192-.285-.381-.892-.381-.693 0-1.066.491-.373.492-.373 1.41v3.4h-.989v-8.357h.989v3.244q.263-.516.714-.782t1.069-.266q.918 0 1.372.605.454.604.454 1.828m7.371.226v.483h-4.281v.033q-.043 1.23.47 1.767t1.447.537q.473 0 .989-.15.515-.15 1.1-.457v.983q-.563.23-1.087.346t-1.012.116q-1.402 0-2.192-.84-.79-.841-.79-2.318 0-1.44.774-2.3t2.063-.859q1.149 0 1.812.78.664.778.707 1.879m-.989-.29q-.064-.623-.454-1.077-.389-.454-1.12-.454-.714 0-1.176.473t-.505 1.063Zm7.199-2.014v.967q-.424-.247-.854-.371-.43-.123-.875-.123-.672 0-1.002.217-.33.218-.33.663 0 .403.247.602t1.23.387l.397.075q.736.14 1.115.558.378.42.378 1.09 0 .892-.634 1.395-.633.502-1.761.502-.446 0-.935-.094t-1.058-.282v-1.02q.553.284 1.058.426t.956.143q.655 0 1.015-.266t.36-.744q0-.688-1.316-.95l-.043-.012-.37-.075q-.854-.166-1.246-.561t-.392-1.077q0-.865.585-1.335t1.67-.47q.484 0 .93.089.445.089.875.266m7.79 2.304v.483h-4.281v.033q-.043 1.23.47 1.767t1.447.537q.473 0 .989-.15.515-.15 1.1-.457v.983q-.563.23-1.087.346t-1.012.116q-1.402 0-2.192-.84-.79-.841-.79-2.318 0-1.44.774-2.3t2.063-.859q1.149 0 1.812.78.664.778.707 1.879m-.989-.29q-.064-.623-.454-1.077-.389-.454-1.12-.454-.714 0-1.176.473t-.505 1.063Zm11.116-3.335v3.013h1.257q.752 0 1.173-.398.422-.397.422-1.112 0-.714-.419-1.109-.419-.394-1.176-.394Zm-1.085-.892h2.342q1.343 0 2.036.61.692.61.692 1.785 0 1.187-.69 1.794t-2.038.607h-1.257V335h-1.085Zm9.712 4.995h-.327q-.865 0-1.303.304-.437.303-.437.905 0 .542.327.843.328.3.908.3.816 0 1.284-.566.467-.567.472-1.566v-.22Zm1.918-.408V335h-.994v-.892q-.317.538-.797.793t-1.168.255q-.919 0-1.467-.519-.548-.518-.548-1.388 0-1.004.674-1.525t1.98-.521h1.326v-.156q-.005-.72-.365-1.045t-1.15-.325q-.504 0-1.02.145-.515.145-1.004.425v-.989q.548-.21 1.05-.314t.975-.105q.746 0 1.275.22.53.22.857.661.204.269.29.664.086.394.086 1.184m6.538-2.374v.967q-.424-.247-.854-.371-.43-.123-.875-.123-.672 0-1.002.217-.33.218-.33.663 0 .403.247.602t1.23.387l.397.075q.736.14 1.115.558.378.42.378 1.09 0 .892-.634 1.395-.633.502-1.761.502-.446 0-.935-.094t-1.058-.282v-1.02q.553.284 1.058.426t.956.143q.655 0 1.015-.266t.36-.744q0-.688-1.316-.95l-.043-.012-.37-.075q-.854-.166-1.246-.561t-.392-1.077q0-.865.585-1.335t1.67-.47q.484 0 .93.089.445.089.875.266m5.072-1.918v1.708h2.245v.768h-2.245v3.266q0 .666.252.93.253.262.881.262h1.112v.79h-1.209q-1.111 0-1.568-.446-.456-.446-.456-1.536v-3.266h-1.606v-.768h1.606v-1.708Zm10.954-.295h6.118v.913h-2.508V335h-1.09v-7.106h-2.52Zm10.057 2.696q-.752 0-1.14.586-.386.585-.386 1.735 0 1.144.387 1.732t1.139.588q.757 0 1.144-.588t.386-1.732q0-1.15-.386-1.735-.387-.586-1.144-.586m0-.838q1.251 0 1.914.811.664.811.664 2.348 0 1.541-.66 2.35-.662.808-1.918.808-1.252 0-1.913-.809-.66-.808-.66-2.35 0-1.536.66-2.347.661-.81 1.913-.81m4.959-2.197h1.02v4.839l2.594-2.498h1.203l-2.368 2.267 2.74 3.749h-1.21l-2.223-3.104-.736.692V335h-1.02Zm11.748 4.855v.483h-4.281v.033q-.043 1.23.47 1.767t1.447.537q.473 0 .989-.15.515-.15 1.1-.457v.983q-.563.23-1.087.346t-1.012.116q-1.402 0-2.192-.84-.79-.841-.79-2.318 0-1.44.774-2.3t2.063-.859q1.149 0 1.812.78.664.778.707 1.879m-.989-.29q-.064-.623-.454-1.077-.389-.454-1.12-.454-.714 0-1.176.473t-.505 1.063Zm7.618.064V335h-.994v-3.728q0-.81-.284-1.192-.285-.381-.892-.381-.693 0-1.066.491-.373.492-.373 1.41v3.4h-.989v-6.016h.989v.903q.263-.516.714-.782t1.069-.266q.918 0 1.372.605.454.604.454 1.828m6.581-2.078v.967q-.424-.247-.854-.371-.43-.123-.875-.123-.672 0-1.002.217-.33.218-.33.663 0 .403.247.602t1.23.387l.397.075q.736.14 1.115.558.378.42.378 1.09 0 .892-.634 1.395-.633.502-1.761.502-.446 0-.935-.094t-1.058-.282v-1.02q.553.284 1.058.426t.956.143q.655 0 1.015-.266t.36-.744q0-.688-1.316-.95l-.043-.012-.37-.075q-.854-.166-1.246-.561t-.392-1.077q0-.865.585-1.335t1.67-.47q.484 0 .93.089.445.089.875.266m1.667 3.142v-.924h6.837v.924Zm7 0v-.924h6.837v.924Zm7 0v-.924h6.837v.924Zm7 0v-.924h2.986v-7.111h.86v8.035ZM114.879 195.32V181.3h.86v14.02Z"/><path d="M114.879 202.336V194.3h.86v7.111h2.991v.924Zm14 18.984V207.3h.86v14.02Z"/><path d="M128.879 234.32V220.3h.86v14.02Z"/><path d="M128.879 247.32V233.3h.86v14.02Z"/><path d="M128.879 260.32V246.3h.86v14.02Z"/><path d="M128.879 273.32V259.3h.86v14.02Z"/><path d="M128.879 286.32V272.3h.86v14.02Z"/><path d="M128.879 293.336V285.3h.86v7.111h2.991v.924Zm2.557 20.919v1.101q-.495-.317-.991-.478-.497-.161-1.002-.161-.768 0-1.214.357t-.446.964q0 .532.293.811.293.28 1.093.467l.57.13q1.127.262 1.643.826.515.564.515 1.537 0 1.144-.709 1.745t-2.062.602q-.564 0-1.133-.121-.57-.12-1.144-.363v-1.154q.617.392 1.168.574.55.183 1.109.183.822 0 1.278-.368t.457-1.029q0-.601-.314-.918-.315-.317-1.093-.489l-.58-.134q-1.118-.253-1.623-.763t-.504-1.37q0-1.074.722-1.72.722-.648 1.92-.648.462 0 .972.105.51.104 1.075.314m4.862.021v1.708h2.245v.768h-2.245v3.266q0 .666.252.93.253.262.881.262h1.112v.79h-1.209q-1.111 0-1.568-.446-.456-.446-.456-1.536v-3.266h-1.606v-.768h1.606v-1.708Zm5.399 1.73h2.53v5.226h1.96V322h-4.909v-.768h1.96v-4.458h-1.54Zm1.542-2.337h.988v1.247h-.988Zm7.623 6.156q0 .666.244 1.004.245.338.723.338h1.154V322h-1.251q-.886 0-1.372-.567-.486-.566-.486-1.608v-5.441h-1.585v-.774h2.573Zm7 0q0 .666.244 1.004.245.338.723.338h1.154V322h-1.251q-.886 0-1.372-.567-.486-.566-.486-1.608v-5.441h-1.585v-.774h2.573Zm12.12-1.869v3.152h1.284q.945 0 1.348-.33t.403-1.088q0-.999-.425-1.367-.424-.367-1.326-.367Zm0-3.083v2.202h1.262q.784 0 1.136-.301.352-.3.352-.757 0-.607-.347-.876-.346-.268-1.14-.268Zm-1.09-.892h2.374q1.23 0 1.896.532.666.531.666 1.504 0 .52-.352.945t-1.056.532q.79.118 1.238.674.449.556.449 1.63 0 1.09-.714 1.646-.715.556-2.127.556h-2.374Zm9.878 4.995h-.327q-.865 0-1.303.304-.437.303-.437.905 0 .542.327.843.328.3.908.3.816 0 1.284-.566.467-.567.472-1.566v-.22Zm1.918-.408V322h-.994v-.892q-.317.538-.797.793t-1.168.255q-.919 0-1.467-.519-.548-.518-.548-1.388 0-1.004.674-1.525t1.98-.521h1.326v-.156q-.005-.72-.365-1.045t-1.15-.325q-.504 0-1.02.145-.515.145-1.004.425v-.989q.548-.21 1.05-.314t.975-.105q.746 0 1.275.22.53.22.857.661.204.269.29.664.086.394.086 1.184m6.538-2.374v.967q-.424-.247-.854-.371-.43-.123-.875-.123-.672 0-1.002.217-.33.218-.33.663 0 .403.247.602t1.23.387l.397.075q.736.14 1.115.558.378.42.378 1.09 0 .892-.634 1.395-.633.502-1.761.502-.446 0-.935-.094t-1.058-.282v-1.02q.553.284 1.058.426t.956.143q.655 0 1.015-.266t.36-.744q0-.688-1.316-.95l-.043-.012-.37-.075q-.854-.166-1.246-.561t-.392-1.077q0-.865.585-1.335t1.67-.47q.484 0 .93.089.445.089.875.266m7.79 2.304v.483h-4.281v.033q-.043 1.23.47 1.767t1.447.537q.473 0 .989-.15.515-.15 1.1-.457v.983q-.563.23-1.087.346t-1.012.116q-1.402 0-2.192-.84-.79-.841-.79-2.318 0-1.44.774-2.3t2.063-.859q1.149 0 1.812.78.664.778.707 1.879m-.989-.29q-.064-.623-.454-1.077-.389-.454-1.12-.454-.714 0-1.176.473t-.505 1.063Zm6.581-1.456v-3.11h.989V322h-.989v-.757q-.247.445-.658.68-.41.233-.948.233-1.09 0-1.716-.846t-.625-2.334q0-1.466.628-2.301t1.713-.836q.543 0 .956.234.414.234.65.68m-2.905 2.246q0 1.149.365 1.734.365.586 1.08.586.714 0 1.087-.59.373-.592.373-1.73 0-1.144-.373-1.733-.373-.588-1.088-.588-.714 0-1.08.586-.364.585-.364 1.735m15.606-2.322q-.752 0-1.14.586-.386.585-.386 1.735 0 1.144.387 1.732t1.139.588q.757 0 1.144-.588t.386-1.732q0-1.15-.386-1.735-.387-.586-1.144-.586m0-.838q1.251 0 1.914.811.664.811.664 2.348 0 1.541-.66 2.35-.662.808-1.918.808-1.252 0-1.913-.809-.66-.808-.66-2.35 0-1.536.66-2.347.661-.81 1.913-.81m9.336 2.432V322h-.994v-3.728q0-.81-.284-1.192-.285-.381-.892-.381-.693 0-1.066.491-.373.492-.373 1.41v3.4h-.989v-6.016h.989v.903q.263-.516.714-.782t1.069-.266q.918 0 1.372.605.454.604.454 1.828m39.234 7.048V311.3h.86v14.02Zm-2.847-15.901 3.277-6.553 3.281 6.553Zm-116.153-16.083V285.3h.86v7.111h2.991v.924Zm4.014 0v-.924h6.837v.924Zm7 0v-.924h6.837v.924Zm7 0v-.924h6.837v.924Zm7 0v-.924h6.837v.924Zm7 0v-.924h6.837v.924Zm7 0v-.924h6.837v.924Zm7 0v-.924h6.837v.924Zm7 0v-.924h6.837v.924Zm7 0v-.924h6.837v.924Zm7 0v-.924h6.837v.924Zm7 0v-.924h6.837v.924Zm7 0v-.924h6.837v.924Zm7 0v-.924h6.837v.924Zm7 0v-.924h6.837v.924Zm7 0v-.924h2.986v-7.111h.86v8.035Zm9.986 0V285.3h.86v7.111h2.991v.924Zm4.014 0v-.924h6.837v.924Zm7 0v-.924h2.986v-7.111h.86v8.035ZM142.879 221.32V207.3h.86v7.112h2.991v.924h-2.992v5.983Z"/><path d="M142.879 234.32V220.3h.86v14.02Z"/><path d="M142.879 247.32V233.3h.86v7.112h2.991v.924h-2.992v5.983Z"/><path d="M142.879 260.32V246.3h.86v14.02Z"/><path d="M142.879 273.32V259.3h.86v7.112h2.991v.924h-2.992v5.983Z"/><path d="M142.879 286.32V272.3h.86v14.02Zm105 0V272.3h.86v14.02Zm7 0V272.3h.86v14.02Zm8.069-10.35-2.53 4.237h2.53Zm-.177-.989h1.256v5.226h1.07v.88h-1.07V283h-1.08v-1.912h-3.4v-1.026Zm6.108 11.339V272.3h.86v14.02Z"/><path fill-opacity=".498" d="M288.251 274.981h4.722v.913h-3.631v2.148h3.292v.914h-3.292V283h-1.09Zm9.519 4.995h-.327q-.865 0-1.303.304-.437.303-.437.905 0 .542.327.843.328.3.908.3.816 0 1.284-.566.467-.567.472-1.566v-.22Zm1.918-.408V283h-.994v-.892q-.317.538-.797.793t-1.168.255q-.919 0-1.467-.519-.548-.518-.548-1.388 0-1.004.674-1.525.675-.521 1.98-.521h1.326v-.156q-.005-.72-.365-1.045t-1.15-.325q-.504 0-1.02.145-.515.145-1.004.425v-.989q.548-.21 1.05-.314t.975-.105q.746 0 1.275.22.53.22.857.661.204.269.29.664.086.394.086 1.184"/><path d="M153.893 267.336v-.924h6.837v.924Zm14 0v-.924h6.837v.924Zm14 0v-.924h6.837v.924Zm14 0v-.924h6.837v.924Zm14 0v-.924h6.837v.924Zm14 0v-.924h6.837v.924Zm14 0v-.924h6.837v.924Zm9.986 5.984V259.3h.86v14.02Zm7 0V259.3h.86v7.112h2.991v.924h-2.992v5.983Zm4.014-5.984v-.924h6.837v.924Zm9.986 5.984v-5.984h-2.986v-.924h2.986v-7.111h.86v14.018Zm39.014-5.984v-.924h2.986v-7.111h.86v8.035Z"/><path d="M247.879 260.32V246.3h.86v14.02Zm7 0V246.3h.86v14.02Zm8.289-7.612q.79.21 1.208.744.42.535.42 1.335 0 1.107-.744 1.738-.744.63-2.06.63-.554 0-1.128-.101-.575-.102-1.128-.296v-1.08q.548.285 1.08.425.531.14 1.058.14.891 0 1.37-.403.477-.403.477-1.16 0-.699-.478-1.11-.478-.41-1.294-.41h-.827v-.892h.827q.746 0 1.165-.328.42-.327.42-.913 0-.617-.39-.948t-1.11-.33q-.477 0-.988.107-.51.108-1.068.323v-1q.65-.171 1.157-.257.508-.086.9-.086 1.17 0 1.871.588t.701 1.56q0 .661-.367 1.101-.368.44-1.072.623m5.711 7.612V246.3h.86v14.02Z"/><path fill-opacity=".498" d="M287.193 249.008h1.45l1.386 4.071 1.397-4.071h1.455V257h-1.004v-7.063l-1.429 4.21h-.822l-1.434-4.21V257h-.999Zm8.504 1.998h2.53v5.226h1.96V257h-4.909v-.768h1.96v-4.458h-1.54Zm1.542-2.337h.988v1.247h-.988Z"/><path d="M310.879 260.32V246.3h.86v14.02Zm-156.986-18.984v-.924h6.837v.924Zm14 0v-.924h6.837v.924Zm14 0v-.924h6.837v.924Zm7.843-5.355h1.09v3.566l3.39-3.566h1.272l-3.12 3.276L195.58 244h-1.311l-2.616-4.018-.827.881V244h-1.09Zm6.157 5.355v-.924h6.837v.924Zm14 0v-.924h6.837v.924Zm14 0v-.924h6.837v.924Zm14 0v-.924h6.837v.924Zm9.986 5.984V233.3h.86v14.02Zm7 0V233.3h.86v7.112h2.991v.924h-2.992v5.983Zm4.014-5.984v-.924h6.837v.924Zm9.986 5.984v-5.984h-2.986v-.924h2.986v-7.111h.86v14.018Z"/><path d="M310.879 247.32V233.3h.86v14.02Zm-63-13V220.3h.86v14.02Zm7 0V220.3h.86v14.02Zm6.124-4.233h3.685V231h-4.872v-.913q1.005-1.058 1.757-1.87.752-.81 1.036-1.143.537-.656.725-1.061.188-.406.188-.83 0-.671-.394-1.053-.395-.381-1.083-.381-.488 0-1.025.177-.538.178-1.14.537v-1.095q.554-.264 1.089-.398t1.055-.134q1.176 0 1.893.626.717.625.717 1.64 0 .516-.239 1.032-.239.515-.776 1.138-.3.35-.873.967-.572.618-1.743 1.848m7.876 4.233V220.3h.86v14.02Z"/><path fill-opacity=".498" d="M291.082 227.213q.419.108.714.406.296.298.736 1.19l1.09 2.191h-1.165l-.956-2.025q-.414-.865-.744-1.114t-.862-.25h-1.037V231h-1.09v-8.019h2.234q1.322 0 2.025.596.704.596.704 1.724 0 .795-.432 1.297-.433.503-1.217.615m-2.224-3.34v2.846h1.187q.78 0 1.16-.349.382-.349.382-1.069 0-.693-.406-1.06-.405-.368-1.179-.368Zm11.158 3.625v.483h-4.281v.033q-.043 1.23.47 1.767t1.447.537q.473 0 .989-.15.515-.15 1.1-.457v.983q-.563.23-1.087.346t-1.012.116q-1.402 0-2.192-.84-.79-.841-.79-2.318 0-1.44.774-2.3t2.063-.859q1.149 0 1.812.78.664.778.707 1.879m-.989-.29q-.064-.623-.454-1.077-.389-.454-1.12-.454-.714 0-1.176.473t-.505 1.063Z"/><path d="M310.879 234.32V220.3h.86v7.112h2.991v.924h-2.992v5.983Zm4.014-5.984v-.924h2.986v-7.111h.86v8.035Zm-161-13v-.924h6.837v.924Zm14 0v-.924h6.837v.924Zm14 0v-.924h6.837v.924Zm14 0v-.924h6.837v.924Zm14 0v-.924h6.837v.924Zm14 0v-.924h6.837v.924Zm14 0v-.924h6.837v.924Zm9.986 5.984V207.3h.86v14.02Zm7 0V207.3h.86v7.112h2.991v.924h-2.992v5.983Zm4.014-5.984v-.924h6.837v.924Zm9.986 5.984v-5.984h-2.986v-.924h2.986v-7.111h.86v14.018Z"/><path d="M310.879 221.32V207.3h.86v14.02Zm7 0V207.3h.86v14.02Zm-198.986-18.984v-.924h6.837v.924Zm9.986 5.984v-5.984h-2.986v-.924h2.986v-7.111h.86v14.018Zm14 0V194.3h.86v14.02Zm105 0V194.3h.86v14.02Zm7 0V194.3h.86v14.02Zm5.571-4.228h1.687v-6.058l-2.02.972v-1.042l2.009-.956h1.085v7.084h1.665V205h-4.426Zm8.429 4.228V194.3h.86v14.02Z"/><path fill-opacity=".498" d="M289.342 204.108q1.37 0 1.912-.674t.542-2.435q0-1.778-.54-2.452t-1.914-.674h-.516v6.235Zm.021-7.127q1.837 0 2.707.977.87.978.87 3.04 0 2.052-.87 3.027t-2.707.975h-1.627v-8.019Zm7.946 2.696q-.752 0-1.14.586-.386.585-.386 1.735 0 1.144.387 1.732t1.139.588q.757 0 1.144-.588t.386-1.732q0-1.15-.386-1.735-.387-.586-1.144-.586m0-.838q1.251 0 1.914.811.664.811.664 2.348 0 1.541-.66 2.35-.662.808-1.918.808-1.252 0-1.913-.809-.66-.808-.66-2.35 0-1.536.66-2.347.661-.81 1.913-.81"/><path d="M310.879 208.32V194.3h.86v14.02Zm7 0V194.3h.86v14.02Zm-189-13v-6.908h3.851v.924h-2.992v5.983Zm14 0v-6.908h3.851v.924h-2.992v5.983Zm4.014-5.984v-.924h6.837v.924Zm7 0v-.924h6.837v.924Zm7 0v-.924h6.837v.924Zm7 0v-.924h6.837v.924Zm7 0v-.924h6.837v.924Zm7 0v-.924h6.837v.924Zm7 0v-.924h6.837v.924Zm7 0v-.924h6.837v.924Zm7 0v-.924h6.837v.924Zm7 0v-.924h6.837v.924Zm7 0v-.924h6.837v.924Zm7 0v-.924h6.837v.924Zm7 0v-.924h6.837v.924Zm7 0v-.924h6.837v.924Zm9.986 5.984v-5.984h-2.986v-.924h3.845v6.907Zm7 0v-6.908h3.851v.924h-2.992v5.983Zm4.014-5.984v-.924h6.837v.924Zm9.986 5.984v-5.984h-2.986v-.924h3.845v6.907Z"/><path d="M310.879 195.32v-5.984h-2.986v-.924h3.845v6.907Zm7 0V181.3h.86v14.02ZM41.893 176.336v-.924h6.837v.924Zm7 0v-.924h6.837v.924Zm7 0v-.924h6.837v.924Zm7 0v-.924h6.837v.924Zm7 0v-.924h2.986v-7.111h.86v8.035Zm44.986 5.984V168.3h.86v14.02Zm32.014-5.984v-.924h6.837v.924Zm14 0v-.924h6.837v.924Zm14 0v-.924h6.837v.924Zm14 0v-.924h6.837v.924Zm14 0v-.924h6.837v.924Zm14 0v-.924h6.837v.924Zm14 0v-.924h6.837v.924Zm14 0v-.924h6.837v.924Z"/><path d="M317.879 182.32V168.3h.86v14.02ZM47.436 158.255v1.101q-.495-.317-.991-.478-.497-.161-1.002-.161-.768 0-1.214.357t-.446.964q0 .532.293.811.293.28 1.093.467l.57.13q1.127.262 1.643.826.515.564.515 1.537 0 1.144-.709 1.745t-2.062.602q-.564 0-1.133-.121-.57-.12-1.144-.363v-1.154q.617.392 1.168.574.55.183 1.109.183.822 0 1.278-.368t.457-1.029q0-.601-.314-.918-.315-.317-1.093-.489l-.58-.134q-1.118-.253-1.623-.763t-.504-1.37q0-1.074.722-1.72.722-.648 1.92-.648.462 0 .972.105.51.104 1.075.314m4.873 2.422q-.752 0-1.14.586-.386.585-.386 1.735 0 1.144.387 1.732t1.139.588q.757 0 1.144-.588t.386-1.732q0-1.15-.386-1.735-.387-.586-1.144-.586m0-.838q1.251 0 1.914.811.664.811.664 2.348 0 1.541-.66 2.35-.662.808-1.918.808-1.252 0-1.913-.809-.66-.808-.66-2.35 0-1.536.66-2.347.661-.81 1.913-.81m7.553 3.985q0 .666.244 1.004.245.338.723.338h1.154V166h-1.251q-.886 0-1.372-.567-.486-.566-.486-1.608v-5.441h-1.585v-.774h2.573Zm13.017 5.495V155.3h.86v14.02Zm42 0V155.3h.86v14.02Zm28 0V155.3h.86v14.02Zm6.264-10.447v3.013h1.257q.752 0 1.173-.398.422-.397.422-1.112 0-.714-.419-1.109-.419-.394-1.176-.394Zm-1.085-.892h2.342q1.343 0 2.036.61.692.61.692 1.785 0 1.187-.69 1.794t-2.038.607h-1.257V166h-1.085Zm12.146 3.244q-.317-.247-.645-.36t-.72-.113q-.923 0-1.412.58t-.489 1.676V166h-.994v-6.016h.994v1.177q.247-.64.76-.98.513-.342 1.217-.342.365 0 .682.092.317.091.607.284Zm6.812 1.273v.483h-4.281v.033q-.043 1.23.47 1.767t1.447.537q.473 0 .989-.15.515-.15 1.1-.457v.983q-.563.23-1.087.346t-1.012.116q-1.402 0-2.192-.84-.79-.841-.79-2.318 0-1.44.774-2.3t2.063-.859q1.149 0 1.812.78.664.778.707 1.879m-.989-.29q-.064-.623-.454-1.077-.389-.454-1.12-.454-.714 0-1.176.473t-.505 1.063Zm6.581-1.456v-3.11h.989V166h-.989v-.757q-.247.445-.658.68-.41.233-.948.233-1.09 0-1.716-.846t-.625-2.334q0-1.466.628-2.301t1.713-.836q.543 0 .956.234.414.234.65.68m-2.905 2.246q0 1.149.365 1.734.365.586 1.08.586.714 0 1.087-.59.373-.592.373-1.73 0-1.144-.373-1.733-.373-.588-1.088-.588-.714 0-1.08.586-.364.585-.364 1.735m6.994-2.993h2.53v5.226h1.96V166h-4.909v-.768h1.96v-4.458h-1.54Zm1.542-2.337h.988v1.247h-.988Zm9.46 8.025q-.398.23-.82.346t-.861.116q-1.397 0-2.184-.838t-.787-2.32.787-2.32q.787-.839 2.184-.839.435 0 .848.113.414.113.833.35v1.036q-.392-.35-.787-.505t-.894-.156q-.93 0-1.43.602-.499.601-.499 1.719 0 1.111.503 1.716.502.604 1.426.604.515 0 .923-.159.409-.158.758-.491Zm4.599-7.418v1.708h2.245v.768h-2.245v3.266q0 .666.252.93.253.262.881.262h1.112v.79h-1.209q-1.111 0-1.568-.446-.456-.446-.456-1.536v-3.266h-1.606v-.768h1.606v-1.708Zm5.399 1.73h2.53v5.226h1.96V166h-4.909v-.768h1.96v-4.458h-1.54Zm1.542-2.337h.988v1.247h-.988Zm9.406 4.603V166h-.994v-3.728q0-.81-.284-1.192-.285-.381-.892-.381-.693 0-1.066.491-.373.492-.373 1.41v3.4h-.989v-6.016h.989v.903q.263-.516.714-.782t1.069-.266q.918 0 1.372.605.454.604.454 1.828m5.963.672q0-1.112-.362-1.69-.363-.577-1.056-.577-.725 0-1.106.578-.381.577-.381 1.689t.384 1.694 1.114.583q.682 0 1.045-.585.362-.586.362-1.692m.989 2.67q0 1.353-.64 2.051-.639.698-1.88.698-.408 0-.853-.075-.446-.075-.892-.22v-.978q.526.247.956.366.43.118.79.118.8 0 1.165-.435t.365-1.38v-.715q-.236.505-.644.752t-.994.247q-1.053 0-1.68-.843-.63-.844-.63-2.256 0-1.418.63-2.261.627-.844 1.68-.844.58 0 .983.231t.655.715v-.78h.989Zm13.479-7.924v3.288h-1.203v-3.287Zm-2.863 0v3.288h-1.203v-3.287Zm6.038.291h4.722v.913h-3.631v2.148h3.292v.914h-3.292V166h-1.09Zm9.519 4.995h-.327q-.865 0-1.303.304-.437.303-.437.905 0 .542.327.843.328.3.908.3.816 0 1.284-.566.467-.567.472-1.566v-.22Zm1.918-.408V166h-.994v-.892q-.317.538-.797.793t-1.168.255q-.919 0-1.467-.519-.548-.518-.548-1.388 0-1.004.674-1.525t1.98-.521h1.326v-.156q-.005-.72-.365-1.045t-1.15-.325q-.504 0-1.02.145-.515.145-1.004.425v-.989q.548-.21 1.05-.314t.975-.105q.746 0 1.275.22.53.22.857.661.204.269.29.664.086.394.086 1.184m6.388-4.878v3.288h-1.203v-3.287Zm-2.863 0v3.288h-1.203v-3.287Zm7.666 11.63V155.3h.86v14.02Zm4.014-5.984v-.924h6.837v.924Zm7 0v-.924h6.837v.924Zm7 0v-.924h6.837v.924Zm7 0v-.924h6.837v.924Zm7 0v-.924h6.837v.924Zm7 0v-.924h6.837v.924Zm7 0v-.924h6.837v.924Zm7 0v-.924h6.837v.924Z"/><path d="M317.879 169.32v-5.984h-2.986v-.924h3.845v6.907ZM41.893 150.336v-.924h6.837v.924Zm7 0v-.924h6.837v.924Zm7 0v-.924h6.837v.924Zm7 0v-.924h6.837v.924Zm9.986 5.984v-5.984h-2.986v-.924h3.845v6.907Zm42 0V142.3h.86v14.02Zm50.203-7.107q.419.108.714.406.296.298.736 1.19l1.09 2.191h-1.165l-.956-2.025q-.414-.865-.744-1.114t-.862-.25h-1.037V153h-1.09v-8.019h2.234q1.322 0 2.025.596.704.596.704 1.724 0 .795-.432 1.297-.433.503-1.217.615m-2.224-3.34v2.846h1.187q.78 0 1.16-.349.382-.349.382-1.069 0-.693-.406-1.06-.405-.368-1.179-.368Zm11.158 3.625v.483h-4.281v.033q-.043 1.23.47 1.767t1.447.537q.473 0 .989-.15.515-.15 1.1-.457v.983q-.563.23-1.087.346t-1.012.116q-1.402 0-2.192-.84-.79-.841-.79-2.318 0-1.44.774-2.3t2.063-.859q1.149 0 1.812.78.664.778.707 1.879m-.989-.29q-.064-.623-.454-1.077-.389-.454-1.12-.454-.714 0-1.176.473t-.505 1.063Zm3.02 1.515v-3.728h.989v3.728q0 .81.287 1.192t.889.381q.698 0 1.069-.491.37-.492.37-1.41v-3.4h.994V153h-.994v-.902q-.263.52-.717.79-.454.268-1.06.268-.924 0-1.375-.604-.452-.605-.452-1.83m11.179-3.528v.967q-.424-.247-.854-.371-.43-.123-.875-.123-.672 0-1.002.217-.33.218-.33.663 0 .403.247.602t1.23.387l.397.075q.736.14 1.115.558.378.42.378 1.09 0 .892-.634 1.395-.633.502-1.761.502-.446 0-.935-.094t-1.058-.282v-1.02q.553.284 1.058.426t.956.143q.655 0 1.015-.266t.36-.744q0-.688-1.316-.95l-.043-.012-.37-.075q-.854-.166-1.246-.561t-.392-1.077q0-.865.585-1.335t1.67-.47q.484 0 .93.089.445.089.875.266m7.79 2.304v.483h-4.281v.033q-.043 1.23.47 1.767t1.447.537q.473 0 .989-.15.515-.15 1.1-.457v.983q-.563.23-1.087.346t-1.012.116q-1.402 0-2.192-.84-.79-.841-.79-2.318 0-1.44.774-2.3t2.063-.859q1.149 0 1.812.78.664.778.707 1.879m-.989-.29q-.064-.623-.454-1.077-.389-.454-1.12-.454-.714 0-1.176.473t-.505 1.063Zm6.581-1.456v-3.11h.989V153h-.989v-.757q-.247.445-.658.68-.41.233-.948.233-1.09 0-1.716-.846t-.625-2.334q0-1.466.628-2.301t1.713-.836q.543 0 .956.234.414.234.65.68m-2.905 2.246q0 1.149.365 1.734.365.586 1.08.586.714 0 1.087-.59.373-.592.373-1.73 0-1.144-.373-1.733-.373-.588-1.088-.588-.714 0-1.08.586-.364.585-.364 1.735m18.007-5.356v.821h-1.123q-.532 0-.739.218-.206.217-.206.77v.532h2.067v.768h-2.067V153h-.989v-5.248h-1.606v-.768h1.606v-.419q0-.988.454-1.455t1.415-.467Zm7.494 3.582q-.317-.247-.645-.36t-.72-.113q-.923 0-1.412.58t-.489 1.676V153h-.994v-6.016h.994v1.177q.247-.64.76-.98.513-.342 1.217-.342.365 0 .682.092.317.091.607.284Zm4.105-.548q-.752 0-1.14.586-.386.585-.386 1.735 0 1.144.387 1.732t1.139.588q.757 0 1.144-.588t.386-1.732q0-1.15-.386-1.735-.387-.586-1.144-.586m0-.838q1.251 0 1.914.811.664.811.664 2.348 0 1.541-.66 2.35-.662.808-1.918.808-1.252 0-1.913-.809-.66-.808-.66-2.35 0-1.536.66-2.347.661-.81 1.913-.81m7.321.757q.183-.387.465-.572.282-.186.68-.186.725 0 1.023.562.298.56.298 2.113V153h-.902v-3.443q0-1.273-.142-1.582-.143-.308-.519-.308-.43 0-.588.33t-.158 1.56V153h-.903v-3.443q0-1.289-.153-1.59-.153-.3-.55-.3-.392 0-.546.33-.153.33-.153 1.56V153h-.897v-6.016h.897v.516q.178-.322.444-.491.265-.17.604-.17.408 0 .68.188.27.188.42.57m-182.321-7.178-3.277-6.553h6.558Z"/><path d="M114.879 143.32V129.3h.86v14.02Zm28 0v-6.908h3.851v.924h-2.992v5.983Zm11.014-5.984v-.924h6.837v.924Zm14 0v-.924h6.837v.924Zm14 0v-.924h6.837v.924Zm14 0v-.924h6.837v.924Zm14 0v-.924h6.837v.924Zm14 0v-.924h6.837v.924Zm14 0v-.924h6.837v.924Zm16.986 5.984v-5.984h-2.986v-.924h3.845v6.907ZM6.893 124.336v-.924h6.837v.924Zm7 0v-.924h6.837v.924Zm7 0v-.924h6.837v.924Zm7 0v-.924h6.837v.924Zm7 0v-.924h6.837v.924Zm7 0v-.924h6.837v.924Zm9.986 5.984v-5.984h-2.986v-.924h6.837v.924h-2.992v5.983Zm4.014-5.984v-.924h6.837v.924Zm7 0v-.924h6.837v.924Zm7 0v-.924h6.837v.924Zm7 0v-.924h6.837v.924Zm7 0v-.924h6.837v.924Zm7 0v-.924h6.837v.924Zm7 0v-.924h6.837v.924Zm7 0v-.924h2.986v-7.111h.86v8.035Z"/><path d="M114.879 130.32V116.3h.86v14.02ZM43.155 92.981h1.09v7.106h3.873V101h-4.963Zm7 0h1.09v7.106h3.873V101h-4.963Zm57.724 24.339V103.3h.86v14.02Z"/><path d="M114.879 117.32V103.3h.86v14.02ZM56.193 93.008h1.45l1.386 4.071 1.397-4.071h1.455V101h-1.004v-7.063l-1.429 4.21h-.822l-1.434-4.21V101h-.999Zm21.543-.027h1.09v3.566l3.39-3.566h1.272l-3.12 3.276L83.58 101h-1.311l-2.616-4.018-.827.881V101h-1.09Zm6.909 7.826h5.333v-5.328h-5.333Zm-.613.612v-6.553h6.558v6.553Zm6.861-3.083v-.924h6.837v.924Zm7 0v-.924h6.837v.924Zm10.845 0v5.983h-.86v-5.983h-2.985v-.924h2.986v-7.111h.86v7.111h2.991v.924Z"/><path d="M114.879 104.32v-5.984h-2.986v-.924h3.845v6.907Zm28-5.984V90.3h.86v7.111h2.991v.924Zm4.014 0v-.924h6.837v.924Zm7 0v-.924h6.837v.924Zm7 0v-.924h6.837v.924Zm7 0v-.924h6.837v.924Zm7 0v-.924h6.837v.924Zm7 0v-.924h6.837v.924Zm7 0v-.924h6.837v.924Zm7 0v-.924h6.837v.924Zm7 0v-.924h6.837v.924Zm7 0v-.924h6.837v.924Zm7 0v-.924h6.837v.924Zm7 0v-.924h6.837v.924Zm7 0v-.924h6.837v.924Zm7 0v-.924h6.837v.924Zm7 0v-.924h2.986v-7.111h.86v8.035Zm9.986 0V90.3h.86v7.111h2.991v.924Zm4.014 0v-.924h6.837v.924Zm7 0v-.924h2.986v-7.111h.86v8.035ZM80.518 88.145q-.038 0-.107.005-.07.006-.113.006-1.343 0-2.006-1.031-.664-1.032-.664-3.126 0-2.1.664-3.132.663-1.031 2.017-1.031 1.358 0 2.022 1.031T82.994 84q0 1.579-.368 2.543t-1.114 1.35l1.074 1.021-.811.537Zm1.343-4.146q0-1.768-.363-2.525-.362-.757-1.19-.757-.821 0-1.184.757-.362.757-.362 2.525 0 1.761.362 2.519.363.757 1.185.757.827 0 1.19-.755.362-.754.362-2.521m2.784 3.808h5.333v-5.328h-5.333Zm-.613.612v-6.553h6.558v6.553Zm6.861-3.083v-.924h6.837v.924Zm7 0v-.924h6.837v.924Zm10.845 0v5.983h-.86v-5.983h-2.985v-.924h2.986v-7.111h.86v7.111h2.991v.924Zm3.155 0v-.924h6.837v.924Zm7 0v-.924h6.837v.924Zm7 0v-.924h6.837v.924Zm7 0v-.924h6.837v.924Z"/><path d="M142.879 91.32V77.3h.86v14.02Zm49.639-3.175q-.038 0-.107.005-.07.006-.113.006-1.343 0-2.006-1.031-.664-1.032-.664-3.126 0-2.1.664-3.132.663-1.031 2.017-1.031 1.358 0 2.022 1.031t.663 3.132q0 1.579-.368 2.543t-1.114 1.35l1.074 1.021-.811.537Zm1.343-4.146q0-1.768-.363-2.525-.362-.757-1.19-.757-.821 0-1.184.757-.362.757-.362 2.525 0 1.761.362 2.519.363.757 1.185.757.827 0 1.19-.755.362-.754.362-2.521m54.018 7.321V77.3h.86v14.02Zm7 0V77.3h.86v14.02Zm8.069-10.35-2.53 4.237h2.53Zm-.177-.989h1.256v5.226h1.07v.88h-1.07V88h-1.08v-1.912h-3.4v-1.026Zm6.108 11.339V77.3h.86v14.02Z"/><path fill-opacity=".498" d="M288.251 79.981h4.722v.913h-3.631v2.148h3.292v.914h-3.292V88h-1.09Zm9.519 4.995h-.327q-.865 0-1.303.304-.437.303-.437.905 0 .542.327.843.328.3.908.3.816 0 1.284-.566.467-.567.472-1.566v-.22Zm1.918-.408V88h-.994v-.892q-.317.538-.797.793t-1.168.255q-.919 0-1.467-.519-.548-.518-.548-1.388 0-1.004.674-1.525.675-.521 1.98-.521h1.326v-.156q-.005-.72-.365-1.045t-1.15-.325q-.504 0-1.02.145-.515.145-1.004.425v-.989q.548-.21 1.05-.314t.975-.105q.746 0 1.275.22.53.22.857.661.204.269.29.664.086.394.086 1.184"/><path d="M6.893 72.336v-.924h6.837v.924Zm7 0v-.924h6.837v.924Zm7 0v-.924h6.837v.924Zm7 0v-.924h6.837v.924Zm7 0v-.924h6.837v.924Zm7 0v-.924h6.837v.924Zm10.416 3.083-3.277-6.553h6.558Zm3.584-3.083v-.924h6.837v.924Zm7 0v-.924h6.837v.924Zm7 0v-.924h6.837v.924Zm7 0v-.924h6.837v.924Zm7 0v-.924h6.837v.924Zm7 0v-.924h6.837v.924Zm7 0v-.924h6.837v.924Zm9.986 5.984v-5.984h-2.986v-.924h3.845v6.907Zm35 0v-6.908h3.851v.924h-2.992v5.983Zm4.014-5.984v-.924h6.837v.924Zm7 0v-.924h6.837v.924Zm7 0v-.924h6.837v.924Zm7 0v-.924h6.837v.924Zm7 0v-.924h6.837v.924Zm7 0v-.924h6.837v.924Zm7 0v-.924h6.837v.924Zm7 0v-.924h6.837v.924Zm7 0v-.924h6.837v.924Zm7 0v-.924h6.837v.924Zm7 0v-.924h6.837v.924Zm7 0v-.924h6.837v.924Zm7 0v-.924h6.837v.924Zm7 0v-.924h6.837v.924Zm9.986 5.984v-5.984h-2.986v-.924h3.845v6.907Zm7 0v-6.908h3.851v.924h-2.992v5.983Zm4.014-5.984v-.924h6.837v.924Zm9.986 5.984v-5.984h-2.986v-.924h3.845v6.907Zm-231-52v-6.908h3.851v.924h-2.992v5.983Z"/><path d="M37.879 39.32V25.3h.86v14.02Z"/><path d="M37.879 46.336V38.3h.86v7.111h2.991v.924Zm14 18.984V51.3h.86v14.02Zm91-5.984V51.3h.86v7.111h2.991v.924Zm11.014 0v-.924h6.837v.924Zm14 0v-.924h6.837v.924Zm14 0v-.924h6.837v.924Zm14 0v-.924h6.837v.924Zm14 0v-.924h6.837v.924Zm14 0v-.924h6.837v.924Zm14 0v-.924h6.837v.924Zm-196-13v-.924h6.837v.924Zm7 0v-.924h6.837v.924Zm7 0v-.924h6.837v.924Zm7 0v-.924h6.837v.924Zm7 0v-.924h2.986v-7.111h.86v8.035Zm78.187-5.355h4.452v.913h-1.68v6.193h1.68V49h-4.452v-.913h1.68v-6.193h-1.68Zm11.565 4.291V49h-.994v-3.728q0-.81-.284-1.192-.285-.381-.892-.381-.693 0-1.066.491-.373.492-.373 1.41V49h-.989v-6.016h.989v.903q.263-.516.714-.782t1.069-.266q.918 0 1.372.605.454.604.454 1.828m3.369 2.971v3.045h-.993v-8.304h.993v.768q.247-.445.658-.679t.948-.234q1.09 0 1.71.844.621.843.621 2.336 0 1.466-.623 2.302-.623.835-1.708.835-.548 0-.959-.234t-.647-.68m2.9-2.245q0-1.15-.362-1.735-.363-.586-1.077-.586-.72 0-1.09.588-.37.589-.37 1.733 0 1.138.37 1.73.37.59 1.09.59.714 0 1.077-.586.363-.585.363-1.734m3.132.726v-3.728h.989v3.728q0 .81.287 1.192t.889.381q.698 0 1.069-.491.37-.492.37-1.41v-3.4h.994V49h-.994v-.902q-.263.52-.717.79-.454.268-1.06.268-.924 0-1.375-.604-.452-.605-.452-1.83m9.251-5.446v1.708h2.245v.768h-2.245v3.266q0 .666.252.93.253.262.881.262h1.112V49h-1.209q-1.111 0-1.568-.446-.456-.446-.456-1.536v-3.266h-1.606v-.768h1.606v-1.708Zm13.64 2.852 2.234 3.003q.21-.263.312-.666t.102-.962q0-.171-.016-.547l-.006-.038h.881v.21q0 .864-.198 1.517-.2.652-.602 1.125l.913 1.23h-1.144l-.419-.585q-.446.376-.945.558-.5.183-1.069.183-1.16 0-1.918-.723-.757-.722-.757-1.818 0-.736.37-1.364.371-.628 1.118-1.166-.269-.386-.398-.757-.128-.37-.128-.752 0-.805.534-1.273t1.464-.467q.349 0 .7.064.352.065.728.188v.983q-.317-.21-.652-.309-.336-.099-.707-.099-.52 0-.821.244-.301.245-.301.658 0 .317.156.664.155.346.569.9m-.704.559q-.494.392-.738.83-.245.438-.245.932 0 .81.538 1.345.537.535 1.37.535.225 0 .472-.065.247-.064.483-.188.145-.08.24-.142.093-.062.18-.132Zm16.626.311q0-1.768-.362-2.525t-1.19-.757q-.821 0-1.184.757-.362.757-.362 2.525 0 1.761.362 2.519.363.757 1.185.757.827 0 1.19-.755.362-.754.362-2.521m1.134 0q0 2.094-.663 3.126-.664 1.03-2.022 1.03-1.36 0-2.02-1.025-.66-1.026-.66-3.131 0-2.1.663-3.132.663-1.031 2.017-1.031 1.358 0 2.022 1.031t.663 3.132m2.052 1.724v-3.728h.989v3.728q0 .81.287 1.192t.889.381q.698 0 1.069-.491.37-.492.37-1.41v-3.4h.994V49h-.994v-.902q-.263.52-.717.79-.454.268-1.06.268-.924 0-1.375-.604-.452-.605-.452-1.83m7.967 1.521v3.045h-.993v-8.304h.993v.768q.247-.445.658-.679t.948-.234q1.09 0 1.71.844.621.843.621 2.336 0 1.466-.623 2.302-.623.835-1.708.835-.548 0-.959-.234t-.647-.68m2.9-2.245q0-1.15-.362-1.735-.363-.586-1.077-.586-.72 0-1.09.588-.37.589-.37 1.733 0 1.138.37 1.73.37.59 1.09.59.714 0 1.077-.586.363-.585.363-1.734m3.132.726v-3.728h.989v3.728q0 .81.287 1.192t.889.381q.698 0 1.069-.491.37-.492.37-1.41v-3.4h.994V49h-.994v-.902q-.263.52-.717.79-.454.268-1.06.268-.924 0-1.375-.604-.452-.605-.452-1.83m9.251-5.446v1.708h2.245v.768h-2.245v3.266q0 .666.252.93.253.262.881.262h1.112V49h-1.209q-1.111 0-1.568-.446-.456-.446-.456-1.536v-3.266h-1.606v-.768h1.606v-1.708Zm13.581 11.044V38.3h.86v14.02ZM50.251 27.981h4.722v.913h-3.631v2.148h3.292v.914h-3.292V36h-1.09Zm9.519 4.995h-.327q-.865 0-1.303.304-.437.303-.437.905 0 .542.327.843.328.3.908.3.816 0 1.284-.566.467-.567.472-1.566v-.22Zm1.918-.408V36h-.994v-.892q-.317.538-.797.793t-1.168.255q-.919 0-1.467-.519-.548-.518-.548-1.388 0-1.004.674-1.525.675-.521 1.98-.521h1.326v-.156q-.005-.72-.365-1.045t-1.15-.325q-.504 0-1.02.145-.515.145-1.004.425v-.989q.548-.21 1.05-.314t.975-.105q.746 0 1.275.22.53.22.857.661.204.269.29.664.086.394.086 1.184"/><path d="M72.879 39.32V25.3h.86v14.02Zm70 0V25.3h.86v14.02Zm9.557-11.065v1.101q-.495-.317-.991-.478-.497-.161-1.002-.161-.768 0-1.214.357t-.446.964q0 .532.293.811.293.28 1.093.467l.57.13q1.127.262 1.643.826.515.564.515 1.537 0 1.144-.709 1.745t-2.062.602q-.564 0-1.133-.121-.57-.12-1.144-.363v-1.154q.617.392 1.168.574.55.183 1.109.183.822 0 1.278-.368t.457-1.029q0-.601-.314-.918-.315-.317-1.093-.489l-.58-.134q-1.118-.253-1.623-.763t-.504-1.37q0-1.074.722-1.72.722-.648 1.92-.648.462 0 .972.105.51.104 1.075.314m4.862.021v1.708h2.245v.768h-2.245v3.266q0 .666.252.93.253.262.881.262h1.112V36h-1.209q-1.111 0-1.568-.446-.456-.446-.456-1.536v-3.266h-1.606v-.768h1.606v-1.708Zm5.399 1.73h2.53v5.226h1.96V36h-4.909v-.768h1.96v-4.458h-1.54Zm1.542-2.337h.988v1.247h-.988Zm7.623 6.156q0 .666.244 1.004.245.338.723.338h1.154V36h-1.251q-.886 0-1.372-.567-.486-.566-.486-1.608v-5.441h-1.585v-.774h2.573Zm7 0q0 .666.244 1.004.245.338.723.338h1.154V36h-1.251q-.886 0-1.372-.567-.486-.566-.486-1.608v-5.441h-1.585v-.774h2.573Zm10.331-5.817h1.45l1.386 4.071 1.397-4.071h1.455V36h-1.004v-7.063l-1.429 4.21h-.822l-1.434-4.21V36h-.999Zm10.577 4.968h-.327q-.865 0-1.303.304-.437.303-.437.905 0 .542.327.843.328.3.908.3.816 0 1.284-.566.467-.567.472-1.566v-.22Zm1.918-.408V36h-.994v-.892q-.317.538-.797.793t-1.168.255q-.919 0-1.467-.519-.548-.518-.548-1.388 0-1.004.674-1.525t1.98-.521h1.326v-.156q-.005-.72-.365-1.045t-1.15-.325q-.504 0-1.02.145-.515.145-1.004.425v-.989q.548-.21 1.05-.314t.975-.105q.746 0 1.275.22.53.22.857.661.204.269.29.664.086.394.086 1.184m4.61-4.292v1.708h2.245v.768h-2.245v3.266q0 .666.252.93.253.262.881.262h1.112V36h-1.209q-1.111 0-1.568-.446-.456-.446-.456-1.536v-3.266h-1.606v-.768h1.606v-1.708Zm9.401 7.418q-.398.23-.82.346t-.861.116q-1.397 0-2.184-.838t-.787-2.32.787-2.32 2.184-.839q.435 0 .848.113.414.113.833.35v1.036q-.392-.35-.787-.505t-.894-.156q-.93 0-1.43.602-.499.601-.499 1.719 0 1.111.503 1.716.502.604 1.426.604.515 0 .923-.159.409-.158.758-.491Zm6.946-3.422V36h-.994v-3.728q0-.81-.284-1.192-.285-.381-.892-.381-.693 0-1.066.491-.373.492-.373 1.41V36h-.989v-8.357h.989v3.244q.263-.516.714-.782t1.069-.266q.918 0 1.372.605.454.604.454 1.828m7.371.226v.483h-4.281v.033q-.043 1.23.47 1.767t1.447.537q.473 0 .989-.15.515-.15 1.1-.457v.983q-.563.23-1.087.346t-1.012.116q-1.402 0-2.192-.84-.79-.841-.79-2.318 0-1.44.774-2.3t2.063-.859q1.149 0 1.812.78.664.778.707 1.879m-.989-.29q-.064-.623-.454-1.077-.389-.454-1.12-.454-.714 0-1.176.473t-.505 1.063Zm7.199-2.014v.967q-.424-.247-.854-.371-.43-.123-.875-.123-.672 0-1.002.217-.33.218-.33.663 0 .403.247.602t1.23.387l.397.075q.736.14 1.115.558.378.42.378 1.09 0 .892-.634 1.395-.633.502-1.761.502-.446 0-.935-.094t-1.058-.282v-1.02q.553.284 1.058.426t.956.143q.655 0 1.015-.266t.36-.744q0-.688-1.316-.95l-.043-.012-.37-.075q-.854-.166-1.246-.561t-.392-1.077q0-.865.585-1.335t1.67-.47q.484 0 .93.089.445.089.875.266M41.893 20.336v-.924h6.837v.924Zm7 0v-.924h6.837v.924Zm7 0v-.924h6.837v.924Zm7 0v-.924h6.837v.924Z"/><path d="M72.879 26.32v-5.984h-2.986v-.924h3.845v6.907Zm88.223-11.312h1.482l3.137 6.58v-6.58h1.155V23h-1.482l-3.137-6.58V23h-1.155Zm7.945 5.715v-3.728h.989v3.728q0 .81.287 1.192t.889.381q.698 0 1.069-.491.37-.492.37-1.41v-3.4h.994V23h-.994v-.902q-.263.52-.717.79-.454.268-1.06.268-.924 0-1.375-.604-.452-.605-.452-1.83m9.583-3.125q.183-.387.465-.572.282-.186.68-.186.725 0 1.023.562.298.56.298 2.113V23h-.902v-3.443q0-1.273-.142-1.582-.143-.308-.519-.308-.43 0-.588.33t-.158 1.56V23h-.903v-3.443q0-1.289-.153-1.59-.153-.3-.55-.3-.392 0-.546.33-.153.33-.153 1.56V23h-.897v-6.016h.897v.516q.178-.322.444-.491.265-.17.604-.17.408 0 .68.188.27.188.42.57m5.46 3.233h1.89V23h-1.89Zm15.992-1.617q.419.108.714.406.296.298.736 1.19l1.09 2.191h-1.165l-.956-2.025q-.414-.865-.744-1.114t-.862-.25h-1.037V23h-1.09v-8.019h2.234q1.322 0 2.025.596.704.596.704 1.724 0 .795-.432 1.297-.433.503-1.217.615m-2.224-3.34v2.846h1.187q.78 0 1.16-.349.382-.349.382-1.069 0-.693-.406-1.06-.405-.368-1.179-.368Zm8.451 1.804q-.752 0-1.14.586-.386.585-.386 1.735 0 1.144.387 1.732t1.139.588q.757 0 1.144-.588t.386-1.732q0-1.15-.386-1.735-.387-.586-1.144-.586m0-.838q1.251 0 1.914.811.664.811.664 2.348 0 1.541-.66 2.35-.662.808-1.918.808-1.252 0-1.913-.809-.66-.808-.66-2.35 0-1.536.66-2.347.661-.81 1.913-.81m3.691.144h.978l1.047 4.861.86-3.104h.843l.87 3.104 1.047-4.86h.978L215.215 23h-.945l-.961-3.298-.956 3.298h-.946Zm12.226.21v.967q-.424-.247-.854-.371-.43-.123-.875-.123-.672 0-1.002.217-.33.218-.33.663 0 .403.247.602t1.23.387l.397.075q.736.14 1.115.558.378.42.378 1.09 0 .892-.634 1.395-.633.502-1.761.502-.446 0-.935-.094t-1.058-.282v-1.02q.553.284 1.058.426t.956.143q.655 0 1.015-.266t.36-.744q0-.688-1.316-.95l-.043-.012-.37-.075q-.854-.166-1.246-.561t-.392-1.077q0-.865.585-1.335t1.67-.47q.484 0 .93.089.445.089.875.266m25.653 9.126V12.3h.86v14.02Zm-105-13V6.411h3.851v.924h-2.992v5.983Zm11.014-5.984v-.924h6.837v.924Zm14 0v-.924h6.837v.924Zm14 0v-.924h6.837v.924Zm14 0v-.924h6.837v.924Zm14 0v-.924h6.837v.924Zm14 0v-.924h6.837v.924Zm14 0v-.924h6.837v.924Z"/></svg>
