<svg xmlns="http://www.w3.org/2000/svg" width="281" height="339" viewBox="0 0 281 339"><style>@media (prefers-color-scheme:dark){path{fill:#f6f6f6}}</style><path d="M2.02 13.32V5.487h4.71v.924H2.879v6.907Zm1.718 0V7.335H6.73v.924H4.598v5.06Z"/><path d="M2.02 26.32V12.3h.859v14.02Zm1.718 0V12.3h.86v14.02Z"/><path d="M3.738 32.412v-7.111h.86v6.187H6.73v.924ZM2.02 34.26V25.3h.859v8.036H6.73v.924Zm.859 44.06v-6.908H6.73v.924H3.738v5.983Z"/><path d="M2.879 91.32V77.3h.86v14.02Z"/><path d="M2.879 98.336V90.3h.86v7.111H6.73v.924Zm0 70.984v-6.908H6.73v.924H3.738v5.983Z"/><path d="M2.879 182.32V168.3h.86v14.02Z"/><path d="M2.879 195.32V181.3h.86v14.02Z"/><path d="M2.879 208.32V194.3h.86v14.02Z"/><path d="M2.879 215.336V207.3h.86v7.111H6.73v.924Zm0 83.984v-6.908H6.73v.924H3.738v5.983Z"/><path d="M2.879 312.32V298.3h.86v14.02Z"/><path d="M2.879 319.336V311.3h.86v7.111H6.73v.924Zm140 13V324.3h.86v7.111h2.991v.924Zm4.014 0v-.924h6.837v.924Zm7 0v-.924h6.837v.924Zm7 0v-.924h6.837v.924Zm7 0v-.924h6.837v.924Zm7 0v-.924h6.837v.924Zm7 0v-.924h6.837v.924Zm7 0v-.924h6.837v.924Zm7 0v-.924h6.837v.924Zm7 0v-.924h6.837v.924Zm7 0v-.924h6.837v.924Zm7 0v-.924h6.837v.924Zm7 0v-.924h6.837v.924Zm7 0v-.924h6.837v.924Zm7 0v-.924h6.837v.924Zm7 0v-.924h2.986v-7.111h.86v8.035Zm-238-13v-.924h6.837v.924Zm7 0v-.924h6.837v.924Zm7 0v-.924h6.837v.924Zm7 0v-.924h6.837v.924Zm7 0v-.924h6.837v.924Zm7 0v-.924h6.837v.924Zm7 0v-.924h6.837v.924Zm7 0v-.924h6.837v.924Zm7 0v-.924h6.837v.924Zm7 0v-.924h6.837v.924Zm7 0v-.924h6.837v.924Zm7 0v-.924h6.837v.924Zm7 0v-.924h6.837v.924Zm7 0v-.924h6.837v.924Zm7 0v-.924h6.837v.924Zm7 0v-.924h2.986v-7.111h.86v8.035Z"/><path d="M142.879 325.32V311.3h.86v14.02Zm36.981-7.321q0-1.768-.362-2.525t-1.19-.757q-.821 0-1.184.757-.362.757-.362 2.525 0 1.761.362 2.519.363.757 1.185.757.827 0 1.19-.755.362-.754.362-2.521m1.134 0q0 2.094-.663 3.126-.664 1.03-2.022 1.03-1.36 0-2.02-1.025-.66-1.026-.66-3.131 0-2.1.663-3.132.663-1.031 2.017-1.031 1.358 0 2.022 1.031t.663 3.132m2.052 1.724v-3.728h.989v3.728q0 .81.287 1.192t.889.381q.698 0 1.069-.491.37-.492.37-1.41v-3.4h.994V322h-.994v-.902q-.263.52-.717.79-.454.268-1.06.268-.924 0-1.375-.604-.452-.605-.452-1.83m9.251-5.446v1.708h2.245v.768h-2.245v3.266q0 .666.252.93.253.262.881.262h1.112v.79h-1.209q-1.111 0-1.568-.446-.456-.446-.456-1.536v-3.266h-1.606v-.768h1.606v-1.708Zm5.716 6.967v3.045h-.993v-8.304h.993v.768q.247-.445.658-.679t.948-.234q1.09 0 1.71.844.621.843.621 2.336 0 1.466-.623 2.302-.623.835-1.708.835-.548 0-.959-.234t-.647-.68m2.9-2.245q0-1.15-.362-1.735-.363-.586-1.077-.586-.72 0-1.09.588-.37.589-.37 1.733 0 1.138.37 1.73.37.59 1.09.59.714 0 1.077-.586.363-.585.363-1.734m3.132.726v-3.728h.989v3.728q0 .81.287 1.192t.889.381q.698 0 1.069-.491.37-.492.37-1.41v-3.4h.994V322h-.994v-.902q-.263.52-.717.79-.454.268-1.06.268-.924 0-1.375-.604-.452-.605-.452-1.83m9.251-5.446v1.708h2.245v.768h-2.245v3.266q0 .666.252.93.253.262.881.262h1.112v.79h-1.209q-1.111 0-1.568-.446-.456-.446-.456-1.536v-3.266h-1.606v-.768h1.606v-1.708Zm34.581 11.044V311.3h.86v14.02Zm4.153-6.177 6.558-3.277v6.553Zm6.861.193v-.924h6.837v.924Zm7 0v-.924h6.837v.924Zm7 0v-.924h2.986v-7.111h.86v8.035Zm-260.57-18.178v1q-.339-.2-.72-.304-.381-.105-.795-.105-1.031 0-1.563.776t-.532 2.286q.258-.538.715-.825t1.047-.287q1.16 0 1.797.711.636.712.636 2.017 0 1.3-.655 2.014-.655.715-1.842.715-1.397 0-2.047-1.002T7.714 305q0-2.03.782-3.097.781-1.066 2.264-1.066.397 0 .795.083.397.083.768.24m-1.934 3.39q-.693 0-1.09.499-.398.5-.398 1.38 0 .881.398 1.38.397.5 1.09.5.72 0 1.085-.475.365-.476.365-1.405 0-.934-.365-1.407t-1.085-.473m7.559-2.579-2.53 4.237h2.53Zm-.177-.989h1.256v5.226h1.07v.88h-1.07V309h-1.08v-1.912h-3.4v-1.026Zm12.372.892v3.013H31.4q.752 0 1.173-.398.422-.397.422-1.112 0-.714-.419-1.109-.419-.394-1.176-.394Zm-1.085-.892H31.4q1.343 0 2.036.61.692.61.692 1.785 0 1.187-.69 1.794t-2.038.607h-1.257V309h-1.085Zm12.146 3.244q-.317-.247-.645-.36t-.72-.113q-.923 0-1.412.58t-.489 1.676V309h-.994v-6.016h.994v1.177q.247-.64.76-.98.513-.342 1.217-.342.365 0 .682.092.317.091.607.284Zm6.812 1.273v.483h-4.281v.033q-.043 1.23.47 1.767t1.447.537q.473 0 .989-.15.515-.15 1.1-.457v.983q-.563.23-1.087.346t-1.012.116q-1.402 0-2.192-.84-.79-.841-.79-2.318 0-1.44.774-2.3t2.063-.859q1.149 0 1.812.78.664.778.707 1.879m-.989-.29q-.064-.623-.454-1.077-.389-.454-1.12-.454-.714 0-1.176.473t-.505 1.063Zm6.581-1.456v-3.11h.989V309h-.989v-.757q-.247.445-.658.68-.41.233-.948.233-1.09 0-1.716-.846t-.625-2.334q0-1.466.628-2.301t1.713-.836q.543 0 .956.234.414.234.65.68m-2.905 2.246q0 1.149.365 1.734.365.586 1.08.586.714 0 1.087-.59.373-.592.373-1.73 0-1.144-.373-1.733-.373-.588-1.088-.588-.714 0-1.08.586-.364.585-.364 1.735m6.994-2.993h2.53v5.226h1.96V309h-4.909v-.768h1.96v-4.458h-1.54Zm1.542-2.337h.988v1.247h-.988Zm9.46 8.025q-.398.23-.82.346t-.861.116q-1.397 0-2.184-.838t-.787-2.32.787-2.32 2.184-.839q.435 0 .848.113.414.113.833.35v1.036q-.392-.35-.787-.505t-.894-.156q-.93 0-1.43.602-.499.601-.499 1.719 0 1.111.503 1.716.502.604 1.426.604.515 0 .923-.159.409-.158.758-.491Zm4.599-7.418v1.708h2.245v.768h-2.245v3.266q0 .666.252.93.253.262.881.262h1.112v.79h-1.209q-1.111 0-1.568-.446-.456-.446-.456-1.536v-3.266h-1.606v-.768h1.606v-1.708Zm5.399 1.73h2.53v5.226h1.96V309h-4.909v-.768h1.96v-4.458h-1.54Zm1.542-2.337h.988v1.247h-.988Zm7.07 3.008q-.752 0-1.14.586-.386.585-.386 1.735 0 1.144.387 1.732t1.139.588q.757 0 1.144-.588t.386-1.732q0-1.15-.386-1.735-.387-.586-1.144-.586m0-.838q1.251 0 1.914.811.664.811.664 2.348 0 1.541-.66 2.35-.662.808-1.918.808-1.252 0-1.913-.809-.66-.808-.66-2.35 0-1.536.66-2.347.661-.81 1.913-.81m9.336 2.432V309h-.994v-3.728q0-.81-.284-1.192-.285-.381-.892-.381-.693 0-1.066.491-.373.492-.373 1.41v3.4h-.989v-6.016h.989v.903q.263-.516.714-.782t1.069-.266q.918 0 1.372.605.454.604.454 1.828m6.581-2.078v.967q-.424-.247-.854-.371-.43-.123-.875-.123-.672 0-1.002.217-.33.218-.33.663 0 .403.247.602t1.23.387l.397.075q.736.14 1.115.558.378.42.378 1.09 0 .892-.634 1.395-.633.502-1.761.502-.446 0-.935-.094t-1.058-.282v-1.02q.553.284 1.058.426t.956.143q.655 0 1.015-.266t.36-.744q0-.688-1.316-.95l-.043-.012-.37-.075q-.854-.166-1.246-.561t-.392-1.077q0-.865.585-1.335t1.67-.47q.484 0 .93.089.445.089.875.266m11.653 9.126V298.3h.86v14.02Z"/><path d="M142.879 312.32V298.3h.86v14.02Zm9.444-11.162v1q-.339-.2-.72-.304-.381-.105-.795-.105-1.031 0-1.563.776t-.532 2.286q.258-.538.715-.825t1.047-.287q1.16 0 1.797.711.636.712.636 2.017 0 1.3-.655 2.014-.655.715-1.842.715-1.397 0-2.047-1.002t-.65-3.155q0-2.03.782-3.097.781-1.066 2.264-1.066.397 0 .795.083.397.083.768.24m-1.934 3.39q-.693 0-1.09.499-.398.5-.398 1.38 0 .881.398 1.38.397.5 1.09.5.72 0 1.085-.475.365-.476.365-1.405 0-.934-.365-1.407t-1.085-.473m7.559-2.578-2.53 4.237h2.53Zm-.177-.989h1.256v5.226h1.07v.88h-1.07V309h-1.08v-1.912h-3.4v-1.026Zm15.305-.291v3.288h-1.203v-3.287Zm-2.863 0v3.288h-1.203v-3.287Zm4.889.318h1.482l3.137 6.58v-6.58h1.155V309h-1.482l-3.137-6.58V309h-1.155Zm12.914 4.49v.483h-4.281v.033q-.043 1.23.47 1.767t1.447.537q.473 0 .989-.15.515-.15 1.1-.457v.983q-.563.23-1.087.346t-1.012.116q-1.402 0-2.192-.84-.79-.841-.79-2.318 0-1.44.774-2.3t2.063-.859q1.149 0 1.812.78.664.778.707 1.879m-.989-.29q-.064-.623-.454-1.077-.389-.454-1.12-.454-.714 0-1.176.473t-.505 1.063Zm1.973-2.224h.978l1.047 4.861.86-3.104h.843l.87 3.104 1.047-4.86h.978L194.215 309h-.945l-.961-3.298-.956 3.298h-.946Zm19.763 5.731q-.413.22-.848.33-.436.11-.924.11-1.542 0-2.393-1.09t-.851-3.066q0-1.966.856-3.065.857-1.098 2.388-1.098.488 0 .924.11.435.11.848.33v1.112q-.397-.327-.854-.5-.456-.171-.918-.171-1.058 0-1.585.816-.526.817-.526 2.466 0 1.643.526 2.46.527.816 1.585.816.472 0 .926-.172t.846-.5Zm5.007-2.739h-.327q-.865 0-1.303.304-.437.303-.437.905 0 .542.327.843.328.3.908.3.816 0 1.284-.566.467-.567.472-1.566v-.22Zm1.918-.408V309h-.994v-.892q-.317.538-.797.793t-1.168.255q-.919 0-1.467-.519-.548-.518-.548-1.388 0-1.004.674-1.525t1.98-.521h1.326v-.156q-.005-.72-.365-1.045t-1.15-.325q-.504 0-1.02.145-.515.145-1.004.425v-.989q.548-.21 1.05-.314t.975-.105q.746 0 1.275.22.53.22.857.661.204.269.29.664.086.394.086 1.184m7.011 3.126q-.398.23-.82.346t-.861.116q-1.397 0-2.184-.838t-.787-2.32.787-2.32 2.184-.839q.435 0 .848.113.414.113.833.35v1.036q-.392-.35-.787-.505t-.894-.156q-.93 0-1.43.602-.499.601-.499 1.719 0 1.111.503 1.716.502.604 1.426.604.515 0 .923-.159.409-.158.758-.491Zm6.946-3.422V309h-.994v-3.728q0-.81-.284-1.192-.285-.381-.892-.381-.693 0-1.066.491-.373.492-.373 1.41v3.4h-.989v-8.357h.989v3.244q.263-.516.714-.782t1.069-.266q.918 0 1.372.605.454.604.454 1.828m7.371.226v.483h-4.281v.033q-.043 1.23.47 1.767t1.447.537q.473 0 .989-.15.515-.15 1.1-.457v.983q-.563.23-1.087.346t-1.012.116q-1.402 0-2.192-.84-.79-.841-.79-2.318 0-1.44.774-2.3t2.063-.859q1.149 0 1.812.78.664.778.707 1.879m-.989-.29q-.064-.623-.454-1.077-.389-.454-1.12-.454-.714 0-1.176.473t-.505 1.063Zm7.049-4.518v3.288h-1.203v-3.287Zm-2.863 0v3.288h-1.203v-3.287Zm7.666 11.63V298.3h.86v14.02Zm28 0V298.3h.86v14.02ZM6.893 293.336v-.924h6.837v.924Zm7 0v-.924h6.837v.924Zm7 0v-.924h6.837v.924Zm7 0v-.924h6.837v.924Zm7 0v-.924h6.837v.924Zm7 0v-.924h6.837v.924Zm7 0v-.924h6.837v.924Zm7 0v-.924h6.837v.924Zm7 0v-.924h6.837v.924Zm7 0v-.924h6.837v.924Zm7 0v-.924h6.837v.924Zm7 0v-.924h6.837v.924Zm7 0v-.924h6.837v.924Zm7 0v-.924h6.837v.924Zm7 0v-.924h6.837v.924Zm9.986 5.984v-5.984h-2.986v-.924h3.845v6.907Z"/><path d="M142.879 299.32v-6.908h3.851v.924h-2.992v5.983Zm4.014-5.984v-.924h6.837v.924Zm7 0v-.924h6.837v.924Zm7 0v-.924h6.837v.924Zm7 0v-.924h6.837v.924Zm7 0v-.924h6.837v.924Zm7 0v-.924h6.837v.924Zm7 0v-.924h6.837v.924Zm7 0v-.924h6.837v.924Zm7 0v-.924h6.837v.924Zm7 0v-.924h6.837v.924Zm7 0v-.924h6.837v.924Zm7 0v-.924h6.837v.924Zm7 0v-.924h6.837v.924Zm7 0v-.924h6.837v.924Zm9.986 5.984v-5.984h-2.986v-.924h3.845v6.907Zm28 0V285.3h.86v14.02Zm-217-65V220.3h.86v14.02Z"/><path d="M58.879 247.32V233.3h.86v14.02Z"/><path d="M58.879 260.32V246.3h.86v14.02Z"/><path d="M58.879 273.32V259.3h.86v14.02Zm.43 10.099-3.277-6.553h6.558Zm216.57 2.901V272.3h.86v14.02Zm-147-52V220.3h.86v14.02Z"/><path d="M128.879 247.32V233.3h.86v14.02Z"/><path d="M128.879 254.336V246.3h.86v7.111h2.991v.924Zm147 18.984V259.3h.86v14.02Zm-133-18.984V246.3h.86v7.111h2.991v.924Zm4.014 0v-.924h6.837v.924Zm7 0v-.924h6.837v.924Zm7 0v-.924h6.837v.924Zm7 0v-.924h6.837v.924Zm7 0v-.924h6.837v.924Zm7 0v-.924h6.837v.924Zm7 0v-.924h6.837v.924Zm7 0v-.924h6.837v.924Zm7 0v-.924h6.837v.924Zm7 0v-.924h6.837v.924Zm7 0v-.924h6.837v.924Zm7 0v-.924h6.837v.924Zm7 0v-.924h6.837v.924Zm7 0v-.924h6.837v.924Zm7 0v-.924h6.837v.924Zm7 0v-.924h2.986v-7.111h.86v8.035Zm14 0v-.924h2.986v-7.111h.86v8.035Z"/><path d="M275.879 260.32V246.3h.86v14.02Zm-133-26V220.3h.86v14.02Z"/><path d="M142.879 247.32V233.3h.86v14.02Zm23.444-24.162v1q-.339-.2-.72-.304-.381-.105-.795-.105-1.031 0-1.563.776t-.532 2.286q.258-.538.715-.825t1.047-.287q1.16 0 1.797.711.636.712.636 2.017 0 1.3-.655 2.014-.655.715-1.842.715-1.397 0-2.047-1.002t-.65-3.155q0-2.03.782-3.097.781-1.066 2.264-1.066.397 0 .795.083.397.083.768.24m-1.934 3.39q-.693 0-1.09.499-.398.5-.398 1.38 0 .881.398 1.38.397.5 1.09.5.72 0 1.085-.475.365-.476.365-1.405 0-.934-.365-1.407t-1.085-.473m17.713 9.46h1.482l3.137 6.58v-6.58h1.155V244h-1.482l-3.137-6.58V244h-1.155Zm12.914 4.49v.483h-4.281v.033q-.043 1.23.47 1.767t1.447.537q.473 0 .989-.15.515-.15 1.1-.457v.983q-.563.23-1.087.346t-1.012.116q-1.402 0-2.192-.84-.79-.841-.79-2.318 0-1.44.774-2.3t2.063-.859q1.149 0 1.812.78.664.778.707 1.879m-.989-.29q-.064-.623-.454-1.077-.389-.454-1.12-.454-.714 0-1.176.473t-.505 1.063Zm1.973-2.224h.978l1.047 4.861.86-3.104h.843l.87 3.104 1.047-4.86h.978L201.215 244h-.945l-.961-3.298-.956 3.298h-.946Zm14.736-2.003h1.09v3.566l3.39-3.566h1.272l-3.12 3.276L216.58 244h-1.311l-2.616-4.018-.827.881V244h-1.09Zm44.143 11.339V233.3h.86v14.02Zm14 0V233.3h.86v7.112h2.991v.924h-2.992v5.983Zm7 0v-5.984h-2.986v-.924h3.845v6.907Zm-103.931-23.35-2.53 4.237h2.53Zm-.177-.989h1.256v5.226h1.07v.88h-1.07V231h-1.08v-1.912h-3.4v-1.026Zm15.305-.291v3.288h-1.203v-3.287Zm-2.863 0v3.288h-1.203v-3.287Zm5.039.291h6.118v.913h-2.508V231h-1.09v-7.106h-2.52Zm10.057 2.696q-.752 0-1.14.586-.386.585-.386 1.735 0 1.144.387 1.732t1.139.588q.757 0 1.144-.588t.386-1.732q0-1.15-.386-1.735-.387-.586-1.144-.586m0-.838q1.251 0 1.914.811.664.811.664 2.348 0 1.541-.66 2.35-.662.808-1.918.808-1.252 0-1.913-.809-.66-.808-.66-2.35 0-1.536.66-2.347.661-.81 1.913-.81m4.959-2.197h1.02v4.839l2.594-2.498h1.203l-2.368 2.267 2.74 3.749h-1.21l-2.223-3.104-.736.692V231h-1.02Zm11.748 4.855v.483h-4.281v.033q-.043 1.23.47 1.767t1.447.537q.473 0 .989-.15.515-.15 1.1-.457v.983q-.563.23-1.087.346t-1.012.116q-1.402 0-2.192-.84-.79-.841-.79-2.318 0-1.44.774-2.3t2.063-.859q1.149 0 1.812.78.664.778.707 1.879m-.989-.29q-.064-.623-.454-1.077-.389-.454-1.12-.454-.714 0-1.176.473t-.505 1.063Zm7.618.064V231h-.994v-3.728q0-.81-.284-1.192-.285-.381-.892-.381-.693 0-1.066.491-.373.492-.373 1.41v3.4h-.989v-6.016h.989v.903q.263-.516.714-.782t1.069-.266q.918 0 1.372.605.454.604.454 1.828m6.581-2.078v.967q-.424-.247-.854-.371-.43-.123-.875-.123-.672 0-1.002.217-.33.218-.33.663 0 .403.247.602t1.23.387l.397.075q.736.14 1.115.558.378.42.378 1.09 0 .892-.634 1.395-.633.502-1.761.502-.446 0-.935-.094t-1.058-.282v-1.02q.553.284 1.058.426t.956.143q.655 0 1.015-.266t.36-.744q0-.688-1.316-.95l-.043-.012-.37-.075q-.854-.166-1.246-.561t-.392-1.077q0-.865.585-1.335t1.67-.47q.484 0 .93.089.445.089.875.266m6.85-2.504v3.288h-1.203v-3.287Zm-2.863 0v3.288h-1.203v-3.287Z"/><path d="M254.879 234.32V220.3h.86v14.02Zm14 0V220.3h.86v14.02ZM6.893 215.336v-.924h6.837v.924Zm7 0v-.924h6.837v.924Zm7 0v-.924h6.837v.924Zm7 0v-.924h6.837v.924Zm7 0v-.924h6.837v.924Zm7 0v-.924h6.837v.924Zm7 0v-.924h6.837v.924Zm9.986 5.984v-5.984h-2.986v-.924h6.837v.924h-2.992v5.983Zm4.014-5.984v-.924h6.837v.924Zm7 0v-.924h6.837v.924Zm7 0v-.924h6.837v.924Zm7 0v-.924h6.837v.924Zm7 0v-.924h6.837v.924Zm7 0v-.924h6.837v.924Zm7 0v-.924h6.837v.924Zm7 0v-.924h2.986v-7.111h.86v8.035Zm16.986 5.984V207.3h.86v14.02Zm14 0V207.3h.86v7.112h2.991v.924h-2.992v5.983Zm4.014-5.984v-.924h6.837v.924Zm7 0v-.924h6.837v.924Zm7 0v-.924h6.837v.924Zm7 0v-.924h6.837v.924Zm7 0v-.924h6.837v.924Zm7 0v-.924h6.837v.924Zm7 0v-.924h6.837v.924Zm7 0v-.924h6.837v.924Zm7 0v-.924h6.837v.924Zm7 0v-.924h6.837v.924Zm7 0v-.924h6.837v.924Zm7 0v-.924h6.837v.924Zm7 0v-.924h6.837v.924Zm7 0v-.924h6.837v.924Zm7 0v-.924h6.837v.924Z"/><path d="M254.879 221.32v-5.984h-2.986v-.924h2.986v-7.111h.86v14.018Zm14 0v-5.984h-2.986v-.924h2.986v-7.111h.86v14.018ZM50.155 183.981h1.09v7.106h3.873V192h-4.963Zm7 0h1.09v7.106h3.873V192h-4.963Zm57.724 24.339V194.3h.86v14.02Zm14 0V194.3h.86v14.02Zm14 0V194.3h.86v14.02Z"/><path d="M254.879 208.32V194.3h.86v14.02Zm14 0V194.3h.86v14.02ZM63.193 184.008h1.45l1.386 4.071 1.397-4.071h1.455V192h-1.004v-7.063l-1.429 4.21h-.822l-1.434-4.21V192h-.999Zm21.543-.027h1.09v3.566l3.39-3.566h1.272l-3.12 3.276L90.58 192h-1.311l-2.616-4.018-.827.881V192h-1.09Zm6.909 7.826h5.333v-5.328h-5.333Zm-.613.612v-6.553h6.558v6.553Zm6.861-3.083v-.924h6.837v.924Zm7 0v-.924h6.837v.924Zm10.845 0v5.983h-.86v-5.983h-2.985v-.924h2.986v-7.111h.86v7.111h2.991v.924Zm3.155 0v-.924h6.837v.924Zm9.986 5.984v-5.984h-2.986v-.924h2.986v-7.111h.86v14.018Zm14 0V181.3h.86v14.02Z"/><path d="M254.879 195.32V181.3h.86v14.02Zm14 0V181.3h.86v14.02Zm-154-13V168.3h.86v14.02Zm14 0V168.3h.86v14.02Zm14 0V168.3h.86v14.02Zm13.264-10.447v3.013h1.257q.752 0 1.173-.398.422-.397.422-1.112 0-.714-.419-1.109-.419-.394-1.176-.394Zm-1.085-.892h2.342q1.343 0 2.036.61.692.61.692 1.785 0 1.187-.69 1.794t-2.038.607h-1.257V179h-1.085Zm12.146 3.244q-.317-.247-.645-.36t-.72-.113q-.923 0-1.412.58t-.489 1.676V179h-.994v-6.016h.994v1.177q.247-.64.76-.98.513-.342 1.217-.342.365 0 .682.092.317.091.607.284Zm2.493-1.219h2.53v5.226h1.96V179h-4.909v-.768h1.96v-4.458h-1.54Zm1.542-2.337h.988v1.247h-.988Zm7.07 3.008q-.752 0-1.14.586-.386.585-.386 1.735 0 1.144.387 1.732t1.139.588q.757 0 1.144-.588t.386-1.732q0-1.15-.386-1.735-.387-.586-1.144-.586m0-.838q1.251 0 1.914.811.664.811.664 2.348 0 1.541-.66 2.35-.662.808-1.918.808-1.252 0-1.913-.809-.66-.808-.66-2.35 0-1.536.66-2.347.661-.81 1.913-.81m9.895 1.385q-.317-.247-.645-.36t-.72-.113q-.923 0-1.412.58t-.489 1.676V179h-.994v-6.016h.994v1.177q.247-.64.76-.98.513-.342 1.217-.342.365 0 .682.092.317.091.607.284Zm8.532-3.244h1.09v3.566l3.39-3.566h1.272l-3.12 3.276L202.58 179h-1.311l-2.616-4.018-.827.881V179h-1.09Zm19.027 7.734q-.413.22-.848.33-.436.11-.924.11-1.542 0-2.393-1.09t-.851-3.066q0-1.966.856-3.065.857-1.098 2.388-1.098.488 0 .924.11.435.11.848.33v1.112q-.397-.327-.854-.5-.456-.171-.918-.171-1.058 0-1.585.816-.526.817-.526 2.466 0 1.643.526 2.46.527.816 1.585.816.472 0 .926-.172t.846-.5Zm5.007-2.739h-.327q-.865 0-1.303.304-.437.303-.437.905 0 .542.327.843.328.3.908.3.816 0 1.284-.566.467-.567.472-1.566v-.22Zm1.918-.408V179h-.994v-.892q-.317.538-.797.793t-1.168.255q-.919 0-1.467-.519-.548-.518-.548-1.388 0-1.004.674-1.525t1.98-.521h1.326v-.156q-.005-.72-.365-1.045t-1.15-.325q-.504 0-1.02.145-.515.145-1.004.425v-.989q.548-.21 1.05-.314t.975-.105q.746 0 1.275.22.53.22.857.661.204.269.29.664.086.394.086 1.184m7.011 3.126q-.398.23-.82.346t-.861.116q-1.397 0-2.184-.838t-.787-2.32.787-2.32q.787-.839 2.184-.839.435 0 .848.113.414.113.833.35v1.036q-.392-.35-.787-.505t-.894-.156q-.93 0-1.43.602-.499.601-.499 1.719 0 1.111.503 1.716.502.604 1.426.604.515 0 .923-.159.409-.158.758-.491Zm6.946-3.422V179h-.994v-3.728q0-.81-.284-1.192-.285-.381-.892-.381-.693 0-1.066.491-.373.492-.373 1.41v3.4h-.989v-8.357h.989v3.244q.263-.516.714-.782t1.069-.266q.918 0 1.372.605.454.604.454 1.828m7.371.226v.483h-4.281v.033q-.043 1.23.47 1.767t1.447.537q.473 0 .989-.15.515-.15 1.1-.457v.983q-.563.23-1.087.346t-1.012.116q-1.402 0-2.192-.84-.79-.841-.79-2.318 0-1.44.774-2.3t2.063-.859q1.149 0 1.812.78.664.778.707 1.879m-.989-.29q-.064-.623-.454-1.077-.389-.454-1.12-.454-.714 0-1.176.473t-.505 1.063Z"/><path d="M254.879 182.32V168.3h.86v14.02Zm14 0V168.3h.86v7.112h2.991v.924h-2.992v5.983Zm4.014-5.984v-.924h2.986v-7.111h.86v8.035Zm-266-13v-.924h6.837v.924Zm7 0v-.924h6.837v.924Zm7 0v-.924h6.837v.924Zm7 0v-.924h6.837v.924Zm7 0v-.924h6.837v.924Zm7 0v-.924h6.837v.924Zm7 0v-.924h6.837v.924Zm10.416 3.083-3.277-6.553h6.558Zm3.584-3.083v-.924h6.837v.924Zm7 0v-.924h6.837v.924Zm7 0v-.924h6.837v.924Zm7 0v-.924h6.837v.924Zm7 0v-.924h6.837v.924Zm7 0v-.924h6.837v.924Zm7 0v-.924h6.837v.924Zm9.986 5.984v-5.984h-2.986v-.924h3.845v6.907Zm14 0V155.3h.86v14.02Zm14 0V155.3h.86v14.02Zm15.069-10.35-2.53 4.237h2.53Zm-.177-.989h1.256v5.226h1.07v.88h-1.07V166h-1.08v-1.912h-3.4v-1.026Zm7.177.989-2.53 4.237h2.53Zm-.177-.989h1.256v5.226h1.07v.88h-1.07V166h-1.08v-1.912h-3.4v-1.026Zm6.538 4.211q-.726 0-1.12.405-.395.406-.395 1.147t.4 1.152 1.115.411q.73 0 1.125-.405.395-.406.395-1.158 0-.736-.4-1.144t-1.12-.408m-.946-.451q-.693-.178-1.082-.66-.39-.484-.39-1.166 0-.957.65-1.518t1.768-.561q1.122 0 1.772.561t.65 1.518q0 .682-.39 1.165-.389.483-1.082.66.806.178 1.233.715t.427 1.391q0 1.085-.693 1.697t-1.917.613-1.915-.61-.69-1.69q0-.858.427-1.398t1.232-.717m-.392-1.724q0 .644.344.983t.994.338q.655 0 .999-.338.343-.339.343-.983 0-.656-.34-1-.342-.343-1.002-.343-.65 0-.994.346-.344.347-.344.997m17.105-2.327v3.288h-1.203v-3.287Zm-2.863 0v3.288h-1.203v-3.287Zm5.039.291h6.118v.913h-2.508V166h-1.09v-7.106h-2.52Zm10.057 2.696q-.752 0-1.14.586-.386.585-.386 1.735 0 1.144.387 1.732t1.139.588q.757 0 1.144-.588t.386-1.732q0-1.15-.386-1.735-.387-.586-1.144-.586m0-.838q1.251 0 1.914.811.664.811.664 2.348 0 1.541-.66 2.35-.662.808-1.918.808-1.252 0-1.913-.809-.66-.808-.66-2.35 0-1.536.66-2.347.661-.81 1.913-.81m4.959-2.197h1.02v4.839l2.594-2.498h1.203l-2.368 2.267 2.74 3.749h-1.21l-2.223-3.104-.736.692V166h-1.02Zm11.748 4.855v.483h-4.281v.033q-.043 1.23.47 1.767t1.447.537q.473 0 .989-.15.515-.15 1.1-.457v.983q-.563.23-1.087.346t-1.012.116q-1.402 0-2.192-.84-.79-.841-.79-2.318 0-1.44.774-2.3t2.063-.859q1.149 0 1.812.78.664.778.707 1.879m-.989-.29q-.064-.623-.454-1.077-.389-.454-1.12-.454-.714 0-1.176.473t-.505 1.063Zm7.618.064V166h-.994v-3.728q0-.81-.284-1.192-.285-.381-.892-.381-.693 0-1.066.491-.373.492-.373 1.41v3.4h-.989v-6.016h.989v.903q.263-.516.714-.782t1.069-.266q.918 0 1.372.605.454.604.454 1.828m6.581-2.078v.967q-.424-.247-.854-.371-.43-.123-.875-.123-.672 0-1.002.217-.33.218-.33.663 0 .403.247.602t1.23.387l.397.075q.736.14 1.115.558.378.42.378 1.09 0 .892-.634 1.395-.633.502-1.761.502-.446 0-.935-.094t-1.058-.282v-1.02q.553.284 1.058.426t.956.143q.655 0 1.015-.266t.36-.744q0-.688-1.316-.95l-.043-.012-.37-.075q-.854-.166-1.246-.561t-.392-1.077q0-.865.585-1.335t1.67-.47q.484 0 .93.089.445.089.875.266m6.85-2.504v3.288h-1.203v-3.287Zm-2.863 0v3.288h-1.203v-3.287Z"/><path d="M254.879 169.32V155.3h.86v14.02Zm14 0V155.3h.86v14.02Zm7 0V155.3h.86v14.02Zm-217-52V103.3h.86v14.02Z"/><path d="M58.879 130.32V116.3h.86v14.02Z"/><path d="M58.879 143.32V129.3h.86v14.02Z"/><path d="M58.879 156.32V142.3h.86v14.02Zm70-26v-6.908h3.851v.924h-2.992v5.983Z"/><path d="M128.879 143.32V129.3h.86v14.02Z"/><path d="M128.879 156.32V142.3h.86v14.02Zm14-13V129.3h.86v14.02Z"/><path d="M142.879 156.32V142.3h.86v14.02Zm112-13V129.3h.86v14.02Z"/><path d="M254.879 156.32V142.3h.86v14.02Zm14-13V129.3h.86v14.02Z"/><path d="M268.879 156.32V142.3h.86v14.02Zm7-13V129.3h.86v14.02Z"/><path d="M275.879 156.32V142.3h.86v14.02Zm-133-26v-6.908h3.851v.924h-2.992v5.983Zm4.014-5.984v-.924h6.837v.924Zm7 0v-.924h6.837v.924Zm7 0v-.924h6.837v.924Zm7 0v-.924h6.837v.924Zm7 0v-.924h6.837v.924Zm7 0v-.924h6.837v.924Zm7 0v-.924h6.837v.924Zm7 0v-.924h6.837v.924Zm7 0v-.924h6.837v.924Zm7 0v-.924h6.837v.924Zm7 0v-.924h6.837v.924Zm7 0v-.924h6.837v.924Zm7 0v-.924h6.837v.924Zm7 0v-.924h6.837v.924Zm7 0v-.924h6.837v.924Zm9.986 5.984v-5.984h-2.986v-.924h3.845v6.907Zm14 0v-5.984h-2.986v-.924h3.845v6.907Zm7 0V116.3h.86v14.02Z"/><path d="M275.879 117.32V103.3h.86v14.02ZM6.893 98.336v-.924h6.837v.924Zm7 0v-.924h6.837v.924Zm7 0v-.924h6.837v.924Zm7 0v-.924h6.837v.924Zm7 0v-.924h6.837v.924Zm7 0v-.924h6.837v.924Zm7 0v-.924h6.837v.924Zm9.986 5.984v-5.984h-2.986v-.924h6.837v.924h-2.992v5.983Zm4.014-5.984v-.924h6.837v.924Zm7 0v-.924h6.837v.924Zm7 0v-.924h6.837v.924Zm7 0v-.924h6.837v.924Zm7 0v-.924h6.837v.924Zm7 0v-.924h6.837v.924Zm7 0v-.924h6.837v.924Zm7 0v-.924h2.986v-7.111h.86v8.035Zm30.986 0V90.3h.86v7.111h2.991v.924Zm4.014 0v-.924h6.837v.924Zm7 0v-.924h6.837v.924Zm7 0v-.924h6.837v.924Zm7 0v-.924h6.837v.924Zm7 0v-.924h6.837v.924Zm7 0v-.924h6.837v.924Zm7 0v-.924h6.837v.924Zm7 0v-.924h6.837v.924Zm7 0v-.924h6.837v.924Zm7 0v-.924h6.837v.924Zm7 0v-.924h6.837v.924Zm7 0v-.924h6.837v.924Zm7 0v-.924h6.837v.924Zm7 0v-.924h6.837v.924Zm7 0v-.924h6.837v.924Zm7 0v-.924h2.986v-7.111h.86v8.035Z"/><path d="M275.879 104.32V90.3h.86v14.02ZM12.323 80.158v1q-.339-.2-.72-.304-.381-.105-.795-.105-1.031 0-1.563.776t-.532 2.286q.258-.538.715-.825t1.047-.287q1.16 0 1.797.711.636.712.636 2.017 0 1.3-.655 2.014-.655.715-1.842.715-1.397 0-2.047-1.002T7.714 84q0-2.03.782-3.097.781-1.066 2.264-1.066.397 0 .795.083.397.083.768.24m-1.934 3.39q-.693 0-1.09.499-.398.5-.398 1.38 0 .881.398 1.38.397.5 1.09.5.72 0 1.085-.475.365-.476.365-1.405 0-.934-.365-1.407t-1.085-.473m7.559-2.579-2.53 4.237h2.53Zm-.177-.989h1.256v5.226h1.07v.88h-1.07V88h-1.08v-1.912h-3.4v-1.026Zm11.309 0h4.452v.913h-1.68v6.193h1.68V88H29.08v-.913h1.68v-6.193h-1.68Zm11.565 4.291V88h-.994v-3.728q0-.81-.284-1.192-.285-.381-.892-.381-.693 0-1.066.491-.373.492-.373 1.41V88h-.989v-6.016h.989v.903q.263-.516.714-.782t1.069-.266q.918 0 1.372.605.454.604.454 1.828m3.369 2.971v3.045h-.993v-8.304h.993v.768q.247-.445.658-.679t.948-.234q1.09 0 1.71.844.621.843.621 2.336 0 1.466-.623 2.302-.623.835-1.708.835-.548 0-.959-.234t-.647-.68m2.9-2.245q0-1.15-.362-1.735-.363-.586-1.077-.586-.72 0-1.09.588-.37.589-.37 1.733 0 1.138.37 1.73.37.59 1.09.59.714 0 1.077-.586.363-.585.363-1.734m3.132.726v-3.728h.989v3.728q0 .81.287 1.192t.889.381q.698 0 1.069-.491.37-.492.37-1.41v-3.4h.994V88h-.994v-.902q-.263.52-.717.79-.454.268-1.06.268-.924 0-1.375-.604-.452-.605-.452-1.83m9.251-5.446v1.708h2.245v.768h-2.245v3.266q0 .666.252.93.253.262.881.262h1.112V88h-1.209q-1.111 0-1.568-.446-.456-.446-.456-1.536v-3.266h-1.606v-.768h1.606v-1.708Zm10.954-.295h6.118v.913h-2.508V88h-1.09v-7.106h-2.52Zm10.057 2.696q-.752 0-1.14.586-.386.585-.386 1.735 0 1.144.387 1.732t1.139.588q.757 0 1.144-.588t.386-1.732q0-1.15-.386-1.735-.387-.586-1.144-.586m0-.838q1.251 0 1.914.811.664.811.664 2.348 0 1.541-.66 2.35-.662.808-1.918.808-1.252 0-1.913-.809-.66-.808-.66-2.35 0-1.536.66-2.347.661-.81 1.913-.81m4.959-2.197h1.02v4.839l2.594-2.498h1.203l-2.368 2.267L90.457 88h-1.21l-2.223-3.104-.736.692V88h-1.02Zm11.748 4.855v.483h-4.281v.033q-.043 1.23.47 1.767t1.447.537q.473 0 .989-.15.515-.15 1.1-.457v.983q-.563.23-1.087.346t-1.012.116q-1.402 0-2.192-.84-.79-.841-.79-2.318 0-1.44.774-2.3t2.063-.859q1.149 0 1.812.78.664.778.707 1.879m-.989-.29q-.064-.623-.454-1.077-.389-.454-1.12-.454-.714 0-1.176.473t-.505 1.063Zm7.618.064V88h-.994v-3.728q0-.81-.284-1.192-.285-.381-.892-.381-.693 0-1.066.491-.373.492-.373 1.41V88h-.989v-6.016h.989v.903q.263-.516.714-.782t1.069-.266q.918 0 1.372.605.454.604.454 1.828m6.581-2.078v.967q-.424-.247-.854-.371-.43-.123-.875-.123-.672 0-1.002.217-.33.218-.33.663 0 .403.247.602t1.23.387l.397.075q.736.14 1.115.558.378.42.378 1.09 0 .892-.634 1.395-.633.502-1.761.502-.446 0-.935-.094t-1.058-.282v-1.02q.553.284 1.058.426t.956.143q.655 0 1.015-.266t.36-.744q0-.688-1.316-.95l-.043-.012-.37-.075q-.854-.166-1.246-.561t-.392-1.077q0-.865.585-1.335t1.67-.47q.484 0 .93.089.445.089.875.266m4.653 9.126V77.3h.86v14.02Zm28 0V77.3h.86v14.02Zm112 0V77.3h.86v14.02Z"/><path d="M275.879 91.32V77.3h.86v14.02ZM6.893 72.336v-.924h6.837v.924Zm7 0v-.924h6.837v.924Zm7 0v-.924h6.837v.924Zm7 0v-.924h6.837v.924Zm7 0v-.924h6.837v.924Zm7 0v-.924h6.837v.924Zm7 0v-.924h6.837v.924Zm7 0v-.924h6.837v.924Zm7 0v-.924h6.837v.924Zm7 0v-.924h6.837v.924Zm7 0v-.924h6.837v.924Zm7 0v-.924h6.837v.924Zm7 0v-.924h6.837v.924Zm7 0v-.924h6.837v.924Zm7 0v-.924h6.837v.924Zm9.986 5.984v-5.984h-2.986v-.924h3.845v6.907Zm28 0V64.3h.86v14.02Zm16.884-3.605q-.413.22-.848.33-.436.11-.924.11-1.542 0-2.393-1.09T154.747 71q0-1.966.856-3.065.857-1.098 2.388-1.098.488 0 .924.11.435.11.848.33v1.112q-.397-.327-.854-.5-.456-.171-.918-.171-1.058 0-1.585.816-.526.817-.526 2.466 0 1.643.526 2.46.527.816 1.585.816.472 0 .926-.172t.846-.5Zm5.007-2.739h-.327q-.865 0-1.303.304-.437.303-.437.905 0 .542.327.843.328.3.908.3.816 0 1.284-.566.467-.567.472-1.566v-.22Zm1.918-.408V75h-.994v-.892q-.317.538-.797.793t-1.168.255q-.919 0-1.467-.519-.548-.518-.548-1.388 0-1.004.674-1.525t1.98-.521h1.326v-.156q-.005-.72-.365-1.045t-1.15-.325q-.504 0-1.02.145-.515.145-1.004.425v-.989q.548-.21 1.05-.314t.975-.105q.746 0 1.275.22.53.22.857.661.204.269.29.664.086.394.086 1.184m7.011 3.126q-.398.23-.82.346t-.861.116q-1.397 0-2.184-.838t-.787-2.32.787-2.32q.787-.839 2.184-.839.435 0 .848.113.414.113.833.35v1.036q-.392-.35-.787-.505t-.894-.156q-.93 0-1.43.602-.499.601-.499 1.719 0 1.111.503 1.716.502.604 1.426.604.515 0 .923-.159.409-.158.758-.491Zm6.946-3.422V75h-.994v-3.728q0-.81-.284-1.192-.285-.381-.892-.381-.693 0-1.066.491-.373.492-.373 1.41V75h-.989v-8.357h.989v3.244q.263-.516.714-.782t1.069-.266q.918 0 1.372.605.454.604.454 1.828m7.371.226v.483h-4.281v.033q-.043 1.23.47 1.767t1.447.537q.473 0 .989-.15.515-.15 1.1-.457v.983q-.563.23-1.087.346t-1.012.116q-1.402 0-2.192-.84-.79-.841-.79-2.318 0-1.44.774-2.3t2.063-.859q1.149 0 1.812.78.664.778.707 1.879m-.989-.29q-.064-.623-.454-1.077-.389-.454-1.12-.454-.714 0-1.176.473t-.505 1.063Zm7.049-4.518v3.288h-1.203v-3.287Zm-2.863 0v3.288h-1.203v-3.287Zm12.867.291h4.452v.913h-1.68v6.193h1.68V75h-4.452v-.913h1.68v-6.193h-1.68Zm11.565 4.291V75h-.994v-3.728q0-.81-.284-1.192-.285-.381-.892-.381-.693 0-1.066.491-.373.492-.373 1.41V75h-.989v-6.016h.989v.903q.263-.516.714-.782t1.069-.266q.918 0 1.372.605.454.604.454 1.828m3.369 2.971v3.045h-.993v-8.304h.993v.768q.247-.445.658-.679t.948-.234q1.09 0 1.71.844.621.843.621 2.336 0 1.466-.623 2.302-.623.835-1.708.835-.548 0-.959-.234t-.647-.68m2.9-2.245q0-1.15-.362-1.735-.363-.586-1.077-.586-.72 0-1.09.588-.37.589-.37 1.733 0 1.138.37 1.73.37.59 1.09.59.714 0 1.077-.586.363-.585.363-1.734m3.132.726v-3.728h.989v3.728q0 .81.287 1.192t.889.381q.698 0 1.069-.491.37-.492.37-1.41v-3.4h.994V75h-.994v-.902q-.263.52-.717.79-.454.268-1.06.268-.924 0-1.375-.604-.452-.605-.452-1.83m9.251-5.446v1.708h2.245v.768h-2.245v3.266q0 .666.252.93.253.262.881.262h1.112V75h-1.209q-1.111 0-1.568-.446-.456-.446-.456-1.536v-3.266h-1.606v-.768h1.606v-1.708Zm20.581 11.044V64.3h.86v14.02Zm4.014-5.984v-.924h6.837v.924Zm7 0v-.924h6.837v.924Z"/><path d="M275.879 78.32v-5.984h-2.986v-.924h3.845v6.907Zm-133-26v-6.908h3.851v.924h-2.992v5.983Z"/><path d="M142.879 65.32V51.3h.86v14.02Zm22.069-10.35-2.53 4.237h2.53Zm-.177-.989h1.256v5.226h1.07v.88h-1.07V62h-1.08v-1.912h-3.4v-1.026Zm7.177.989-2.53 4.237h2.53Zm-.177-.989h1.256v5.226h1.07v.88h-1.07V62h-1.08v-1.912h-3.4v-1.026Zm6.538 4.211q-.726 0-1.12.405-.395.406-.395 1.147t.4 1.152 1.115.411q.73 0 1.125-.405.395-.406.395-1.158 0-.736-.4-1.144t-1.12-.408m-.946-.451q-.693-.178-1.082-.66-.39-.484-.39-1.166 0-.957.65-1.518t1.768-.561q1.122 0 1.772.561t.65 1.518q0 .682-.39 1.165-.389.483-1.082.66.806.178 1.233.715t.427 1.391q0 1.085-.693 1.697t-1.917.613-1.915-.61-.69-1.69q0-.858.427-1.398t1.232-.717m-.392-1.724q0 .644.344.983t.994.338q.655 0 .999-.338.343-.339.343-.983 0-.656-.34-1-.342-.343-1.002-.343-.65 0-.994.346-.344.347-.344.997m17.105-2.327v3.288h-1.203v-3.287Zm-2.863 0v3.288h-1.203v-3.287Zm6.93 1.183v3.013h1.257q.752 0 1.173-.398.422-.397.422-1.112 0-.714-.419-1.109-.419-.394-1.176-.394Zm-1.085-.892h2.342q1.343 0 2.036.61.692.61.692 1.785 0 1.187-.69 1.794t-2.038.607h-1.257V62h-1.085Zm12.146 3.244q-.317-.247-.645-.36t-.72-.113q-.923 0-1.412.58t-.489 1.676V62h-.994v-6.016h.994v1.177q.247-.64.76-.98.513-.342 1.217-.342.365 0 .682.092.317.091.607.284Zm2.493-1.219h2.53v5.226h1.96V62h-4.909v-.768h1.96v-4.458h-1.54Zm1.542-2.337h.988v1.247h-.988Zm7.07 3.008q-.752 0-1.14.586-.386.585-.386 1.735 0 1.144.387 1.732t1.139.588q.757 0 1.144-.588t.386-1.732q0-1.15-.386-1.735-.387-.586-1.144-.586m0-.838q1.251 0 1.914.811.664.811.664 2.348 0 1.541-.66 2.35-.662.808-1.918.808-1.252 0-1.913-.809-.66-.808-.66-2.35 0-1.536.66-2.347.661-.81 1.913-.81m9.895 1.385q-.317-.247-.645-.36t-.72-.113q-.923 0-1.412.58t-.489 1.676V62h-.994v-6.016h.994v1.177q.247-.64.76-.98.513-.342 1.217-.342.365 0 .682.092.317.091.607.284Zm24.675 8.095V51.3h.86v14.02ZM146.893 46.336v-.924h6.837v.924Zm7 0v-.924h6.837v.924Zm7 0v-.924h6.837v.924Zm7 0v-.924h6.837v.924Zm7 0v-.924h6.837v.924Zm7 0v-.924h6.837v.924Zm7 0v-.924h6.837v.924Zm7 0v-.924h6.837v.924Zm7 0v-.924h6.837v.924Zm7 0v-.924h6.837v.924Zm7 0v-.924h6.837v.924Zm7 0v-.924h6.837v.924Zm7 0v-.924h6.837v.924Zm7 0v-.924h6.837v.924Zm7 0v-.924h6.837v.924Z"/><path d="M254.879 52.32v-5.984h-2.986v-.924h3.845v6.907ZM6.893 32.412v-.924h6.837v.924Zm0 1.848v-.924h6.837v.924Zm7-1.848v-.924h6.837v.924Zm0 1.848v-.924h6.837v.924Zm7-1.848v-.924h6.837v.924Zm0 1.848v-.924h6.837v.924Zm7-1.848v-.924h6.837v.924Zm0 1.848v-.924h6.837v.924Zm7-1.848v-.924h6.837v.924Zm0 1.848v-.924h6.837v.924Zm7-1.848v-.924h6.837v.924Zm0 1.848v-.924h6.837v.924Zm7-1.848v-.924h6.837v.924Zm0 1.848v-.924h6.837v.924Zm7-1.848v-.924h6.837v.924Zm0 1.848v-.924h6.837v.924Zm7-1.848v-.924h6.837v.924Zm0 1.848v-.924h6.837v.924Zm7-1.848v-.924h6.837v.924Zm0 1.848v-.924h6.837v.924Zm7-1.848v-.924h6.837v.924Zm0 1.848v-.924h6.837v.924Zm7-1.848v-.924h6.837v.924Zm0 1.848v-.924h6.837v.924Zm7-1.848v-.924h6.837v.924Zm0 1.848v-.924h6.837v.924Zm7-1.848v-.924h6.837v.924Zm0 1.848v-.924h6.837v.924Zm7-1.848v-.924h6.837v.924Zm0 1.848v-.924h6.837v.924Zm7-1.848v-.924h6.837v.924Zm0 1.848v-.924h6.837v.924Zm7-1.848v-.924h6.837v.924Zm0 1.848v-.924h6.837v.924Zm7-1.848v-.924h2.127v-6.187h.859v7.111Zm0 1.848v-.924h3.845V25.3h.86v8.959ZM19.436 15.255v1.101q-.495-.317-.991-.478-.497-.161-1.002-.161-.768 0-1.214.357t-.446.964q0 .532.293.811.293.28 1.093.467l.57.13q1.127.262 1.643.826.515.564.515 1.537 0 1.144-.709 1.745t-2.062.602q-.564 0-1.133-.121-.57-.12-1.144-.363v-1.154q.617.392 1.168.574.55.183 1.109.183.822 0 1.278-.368t.457-1.029q0-.601-.314-.918-.315-.317-1.093-.489l-.58-.134q-1.118-.253-1.623-.763t-.504-1.37q0-1.074.722-1.72.722-.648 1.92-.648.462 0 .972.105.51.104 1.075.314m4.862.021v1.708h2.245v.768h-2.245v3.266q0 .666.252.93.253.262.881.262h1.112V23h-1.209q-1.111 0-1.568-.446-.456-.446-.456-1.536v-3.266h-1.606v-.768h1.606v-1.708Zm7.472 4.7h-.327q-.865 0-1.303.304-.437.303-.437.905 0 .542.327.843.328.3.908.3.816 0 1.284-.566.467-.567.472-1.566v-.22Zm1.918-.408V23h-.994v-.892q-.317.538-.797.793t-1.168.255q-.919 0-1.467-.519-.548-.518-.548-1.388 0-1.004.674-1.525t1.98-.521h1.326v-.156q-.005-.72-.365-1.045t-1.15-.325q-.504 0-1.02.145-.515.145-1.004.425v-.989q.548-.21 1.05-.314t.975-.105q.746 0 1.275.22.53.22.857.661.204.269.29.664.086.394.086 1.184m4.61-4.292v1.708h2.245v.768h-2.245v3.266q0 .666.252.93.253.262.881.262h1.112V23h-1.209q-1.111 0-1.568-.446-.456-.446-.456-1.536v-3.266h-1.606v-.768h1.606v-1.708Zm5.399 1.73h2.53v5.226h1.96V23h-4.909v-.768h1.96v-4.458h-1.54Zm1.542-2.337h.988v1.247h-.988Zm9.46 8.025q-.398.23-.82.346t-.861.116q-1.397 0-2.184-.838t-.787-2.32.787-2.32 2.184-.839q.435 0 .848.113.414.113.833.35v1.036q-.392-.35-.787-.505t-.894-.156q-.93 0-1.43.602-.499.601-.499 1.719 0 1.111.503 1.716.502.604 1.426.604.515 0 .923-.159.409-.158.758-.491Zm9.037-7.713h1.09v3.566l3.39-3.566h1.272l-3.12 3.276L69.58 23h-1.311l-2.616-4.018-.827.881V23h-1.09Zm9.573 7.106 1.885-7.106h1.122L73.97 23h-1.316l-2.347-8.019h1.123Zm16.454.628q-.413.22-.848.33-.436.11-.924.11-1.542 0-2.393-1.09T84.747 19q0-1.966.856-3.065.857-1.098 2.388-1.098.488 0 .924.11.435.11.848.33v1.112q-.397-.327-.854-.5-.456-.171-.918-.171-1.058 0-1.585.816-.526.817-.526 2.466 0 1.643.526 2.46.527.816 1.585.816.472 0 .926-.172t.846-.5Zm5.007-2.739h-.327q-.865 0-1.303.304-.437.303-.437.905 0 .542.327.843.328.3.908.3.816 0 1.284-.566.467-.567.472-1.566v-.22Zm1.918-.408V23h-.994v-.892q-.317.538-.797.793t-1.168.255q-.919 0-1.467-.519-.548-.518-.548-1.388 0-1.004.674-1.525t1.98-.521h1.326v-.156q-.005-.72-.365-1.045t-1.15-.325q-.504 0-1.02.145-.515.145-1.004.425v-.989q.548-.21 1.05-.314t.975-.105q.746 0 1.275.22.53.22.857.661.204.269.29.664.086.394.086 1.184m7.011 3.126q-.398.23-.82.346t-.861.116q-1.397 0-2.184-.838t-.787-2.32.787-2.32 2.184-.839q.435 0 .848.113.414.113.833.35v1.036q-.392-.35-.787-.505t-.894-.156q-.93 0-1.43.602-.499.601-.499 1.719 0 1.111.503 1.716.502.604 1.426.604.515 0 .923-.159.409-.158.758-.491Zm6.946-3.422V23h-.994v-3.728q0-.81-.284-1.192-.285-.381-.892-.381-.693 0-1.066.491-.373.492-.373 1.41V23h-.989v-8.357h.989v3.244q.263-.516.714-.782t1.069-.266q.918 0 1.372.605.454.604.454 1.828m7.371.226v.483h-4.281v.033q-.043 1.23.47 1.767t1.447.537q.473 0 .989-.15.515-.15 1.1-.457v.983q-.563.23-1.087.346t-1.012.116q-1.402 0-2.192-.84-.79-.841-.79-2.318 0-1.44.774-2.3t2.063-.859q1.149 0 1.812.78.664.778.707 1.879m-.989-.29q-.064-.623-.454-1.077-.389-.454-1.12-.454-.714 0-1.176.473t-.505 1.063Z"/><path d="M128.02 26.32V12.3h.859v14.02Zm1.718 0V12.3h.86v14.02ZM6.893 6.412v-.924h6.837v.924Zm0 1.848v-.924h6.837v.924Zm7-1.848v-.924h6.837v.924Zm0 1.848v-.924h6.837v.924Zm7-1.848v-.924h6.837v.924Zm0 1.848v-.924h6.837v.924Zm7-1.848v-.924h6.837v.924Zm0 1.848v-.924h6.837v.924Zm7-1.848v-.924h6.837v.924Zm0 1.848v-.924h6.837v.924Zm7-1.848v-.924h6.837v.924Zm0 1.848v-.924h6.837v.924Zm7-1.848v-.924h6.837v.924Zm0 1.848v-.924h6.837v.924Zm7-1.848v-.924h6.837v.924Zm0 1.848v-.924h6.837v.924Zm7-1.848v-.924h6.837v.924Zm0 1.848v-.924h6.837v.924Zm7-1.848v-.924h6.837v.924Zm0 1.848v-.924h6.837v.924Zm7-1.848v-.924h6.837v.924Zm0 1.848v-.924h6.837v.924Zm7-1.848v-.924h6.837v.924Zm0 1.848v-.924h6.837v.924Zm7-1.848v-.924h6.837v.924Zm0 1.848v-.924h6.837v.924Zm7-1.848v-.924h6.837v.924Zm0 1.848v-.924h6.837v.924Zm7-1.848v-.924h6.837v.924Zm0 1.848v-.924h6.837v.924Zm7-1.848v-.924h6.837v.924Zm0 1.848v-.924h6.837v.924Zm7-1.848v-.924h6.837v.924Zm0 1.848v-.924h6.837v.924Z"/><path d="M129.738 13.32V6.411h-3.845v-.924h4.705v7.831Zm-1.718 0V8.26h-2.127v-.924h2.986v5.983Z"/></svg>
